M48
; DRILL file {KiCad (5.1.5)-2} date 1/8/2020 7:40:49 PM
; FORMAT={-:-/ absolute / inch / decimal}
; #@! TF.CreationDate,2020-01-08T19:40:49-08:00
; #@! TF.GenerationSoftware,Kicad,Pcbnew,(5.1.5)-2
FMAT,2
INCH
T1C0.0150
T2C0.0197
T3C0.0200
T4C0.0300
T5C0.0315
T6C0.0394
T7C0.0433
T8C0.0472
T9C0.0512
T10C0.1260
T11C0.0669
%
G90
G05
T1
X5.13Y-3.93
X5.1428Y-3.7112
X5.1428Y-3.6688
X5.144Y-3.84
X5.4Y-3.95
X5.45Y-2.88
X5.45Y-3.02
X5.51Y-4.29
X5.65Y-4.675
X5.66Y-2.55
X5.8Y-4.575
X5.85Y-3.58
X5.92Y-4.72
X6.16Y-2.55
X6.17Y-4.01
X6.175Y-4.48
X6.31Y-4.04
X6.325Y-4.48
X6.34Y-4.01
X6.475Y-4.48
X6.66Y-2.55
X6.75Y-4.01
X6.79Y-4.04
X6.82Y-4.11
X6.8412Y-3.9188
X6.85Y-2.8
X6.88Y-3.95
X7.0492Y-4.4179
X7.05Y-2.8
X7.065Y-3.04
X7.13Y-4.4
X7.15Y-2.9
X7.16Y-2.55
X7.39Y-3.98
X7.44Y-2.63
X7.4675Y-3.9349
X7.64Y-3.65
X7.64Y-3.76
T2
X7.6055Y-2.3
X7.6332Y-2.2332
X7.6332Y-2.3668
X7.7Y-2.2055
X7.7Y-2.3945
X7.7668Y-2.2332
X7.7668Y-2.3668
X7.7945Y-2.3
X5.1055Y-2.3
X5.1332Y-2.2332
X5.1332Y-2.3668
X5.2Y-2.2055
X5.2Y-2.3945
X5.2668Y-2.2332
X5.2668Y-2.3668
X5.2945Y-2.3
X7.6055Y-4.7
X7.6332Y-4.6332
X7.6332Y-4.7668
X7.7Y-4.6055
X7.7Y-4.7945
X7.7668Y-4.6332
X7.7668Y-4.7668
X7.7945Y-4.7
X5.1055Y-4.7
X5.1332Y-4.6332
X5.1332Y-4.7668
X5.2Y-4.6055
X5.2Y-4.7945
X5.2668Y-4.6332
X5.2668Y-4.7668
X5.2945Y-4.7
T3
X5.57Y-3.65
X5.57Y-3.8
X5.58Y-3.74
X6.05Y-3.89
X7.2Y-2.825
X7.44Y-2.76
X7.44Y-2.96
T4
X5.59Y-3.27
X5.95Y-4.8
X6.0Y-4.26
X6.26Y-3.77
X6.59Y-3.62
X6.76Y-3.58
X7.2Y-3.025
T5
X5.16Y-3.5
X5.16Y-4.1
X5.26Y-3.5
X5.26Y-4.1
X5.36Y-3.5
X5.36Y-4.1
X5.46Y-3.5
X5.46Y-4.1
X5.56Y-3.5
X5.56Y-4.1
X5.66Y-3.5
X5.66Y-4.1
X5.76Y-3.5
X5.76Y-4.1
X5.86Y-3.5
X5.86Y-4.1
X5.96Y-3.5
X5.96Y-4.1
X6.06Y-3.5
X6.06Y-4.1
X6.16Y-3.5
X6.16Y-4.1
X6.26Y-3.5
X6.26Y-4.1
X6.36Y-3.5
X6.36Y-4.1
X6.46Y-3.5
X6.46Y-4.1
X6.56Y-3.5
X6.56Y-4.1
T6
X5.06Y-4.4
X5.16Y-4.4
X5.26Y-4.4
X7.84Y-3.4
X7.84Y-3.5
X7.84Y-3.6
X7.84Y-3.7
X7.84Y-2.65
X7.84Y-2.75
X7.84Y-2.85
X7.84Y-2.95
X7.84Y-3.05
X7.84Y-3.15
X6.06Y-4.64
X6.06Y-4.74
X6.06Y-4.84
X6.16Y-4.64
X6.16Y-4.74
X6.16Y-4.84
X6.26Y-4.64
X6.26Y-4.74
X6.26Y-4.84
X6.36Y-4.64
X6.36Y-4.74
X6.36Y-4.84
X6.46Y-4.64
X6.46Y-4.74
X6.46Y-4.84
X6.56Y-4.64
X6.56Y-4.74
X6.56Y-4.84
X6.66Y-4.64
X6.66Y-4.74
X6.66Y-4.84
X7.84Y-3.9
X7.84Y-4.0
X7.84Y-4.1
X7.84Y-4.2
T7
X6.7628Y-4.3578
X6.888Y-4.4831
X6.9437Y-4.1769
X7.069Y-4.3021
X7.0279Y-4.0927
X7.1532Y-4.2179
X7.2089Y-3.9117
X7.3342Y-4.037
X7.0279Y-4.623
X7.1532Y-4.7483
X7.2089Y-4.442
X7.3342Y-4.5673
X7.2931Y-4.3578
X7.4184Y-4.4831
X7.4741Y-4.1769
X7.5993Y-4.3021
T8
X5.5744Y-2.24
X5.7122Y-2.24
X5.85Y-2.24
X6.5744Y-2.24
X6.7122Y-2.24
X6.85Y-2.24
X6.0744Y-2.24
X6.2122Y-2.24
X6.35Y-2.24
X7.0744Y-2.24
X7.2122Y-2.24
X7.35Y-2.24
T9
X5.135Y-3.05
X5.135Y-3.2469
X5.135Y-2.6563
X5.135Y-2.8531
T10
X7.7Y-2.3
X5.2Y-2.3
X7.7Y-4.7
X5.2Y-4.7
T11
X5.7Y-4.4828
X5.7Y-4.7584
T0
M30
