G04 #@! TF.GenerationSoftware,KiCad,Pcbnew,(5.1.5)-2*
G04 #@! TF.CreationDate,2020-01-08T19:40:40-08:00*
G04 #@! TF.ProjectId,bifrost,62696672-6f73-4742-9e6b-696361645f70,A*
G04 #@! TF.SameCoordinates,Original*
G04 #@! TF.FileFunction,Soldermask,Bot*
G04 #@! TF.FilePolarity,Negative*
%FSLAX46Y46*%
G04 Gerber Fmt 4.6, Leading zero omitted, Abs format (unit mm)*
G04 Created by KiCad (PCBNEW (5.1.5)-2) date 2020-01-08 19:40:40*
%MOMM*%
%LPD*%
G04 APERTURE LIST*
%ADD10C,0.100000*%
G04 APERTURE END LIST*
D10*
G36*
X154037512Y-122039927D02*
G01*
X154186812Y-122069624D01*
X154350784Y-122137544D01*
X154498354Y-122236147D01*
X154623853Y-122361646D01*
X154722456Y-122509216D01*
X154790376Y-122673188D01*
X154825000Y-122847259D01*
X154825000Y-123024741D01*
X154790376Y-123198812D01*
X154722456Y-123362784D01*
X154623853Y-123510354D01*
X154498354Y-123635853D01*
X154350784Y-123734456D01*
X154186812Y-123802376D01*
X154037512Y-123832073D01*
X154012742Y-123837000D01*
X153835258Y-123837000D01*
X153810488Y-123832073D01*
X153661188Y-123802376D01*
X153497216Y-123734456D01*
X153349646Y-123635853D01*
X153224147Y-123510354D01*
X153125544Y-123362784D01*
X153057624Y-123198812D01*
X153023000Y-123024741D01*
X153023000Y-122847259D01*
X153057624Y-122673188D01*
X153125544Y-122509216D01*
X153224147Y-122361646D01*
X153349646Y-122236147D01*
X153497216Y-122137544D01*
X153661188Y-122069624D01*
X153810488Y-122039927D01*
X153835258Y-122035000D01*
X154012742Y-122035000D01*
X154037512Y-122039927D01*
G37*
G36*
X166737512Y-122039927D02*
G01*
X166886812Y-122069624D01*
X167050784Y-122137544D01*
X167198354Y-122236147D01*
X167323853Y-122361646D01*
X167422456Y-122509216D01*
X167490376Y-122673188D01*
X167525000Y-122847259D01*
X167525000Y-123024741D01*
X167490376Y-123198812D01*
X167422456Y-123362784D01*
X167323853Y-123510354D01*
X167198354Y-123635853D01*
X167050784Y-123734456D01*
X166886812Y-123802376D01*
X166737512Y-123832073D01*
X166712742Y-123837000D01*
X166535258Y-123837000D01*
X166510488Y-123832073D01*
X166361188Y-123802376D01*
X166197216Y-123734456D01*
X166049646Y-123635853D01*
X165924147Y-123510354D01*
X165825544Y-123362784D01*
X165757624Y-123198812D01*
X165723000Y-123024741D01*
X165723000Y-122847259D01*
X165757624Y-122673188D01*
X165825544Y-122509216D01*
X165924147Y-122361646D01*
X166049646Y-122236147D01*
X166197216Y-122137544D01*
X166361188Y-122069624D01*
X166510488Y-122039927D01*
X166535258Y-122035000D01*
X166712742Y-122035000D01*
X166737512Y-122039927D01*
G37*
G36*
X164197512Y-122039927D02*
G01*
X164346812Y-122069624D01*
X164510784Y-122137544D01*
X164658354Y-122236147D01*
X164783853Y-122361646D01*
X164882456Y-122509216D01*
X164950376Y-122673188D01*
X164985000Y-122847259D01*
X164985000Y-123024741D01*
X164950376Y-123198812D01*
X164882456Y-123362784D01*
X164783853Y-123510354D01*
X164658354Y-123635853D01*
X164510784Y-123734456D01*
X164346812Y-123802376D01*
X164197512Y-123832073D01*
X164172742Y-123837000D01*
X163995258Y-123837000D01*
X163970488Y-123832073D01*
X163821188Y-123802376D01*
X163657216Y-123734456D01*
X163509646Y-123635853D01*
X163384147Y-123510354D01*
X163285544Y-123362784D01*
X163217624Y-123198812D01*
X163183000Y-123024741D01*
X163183000Y-122847259D01*
X163217624Y-122673188D01*
X163285544Y-122509216D01*
X163384147Y-122361646D01*
X163509646Y-122236147D01*
X163657216Y-122137544D01*
X163821188Y-122069624D01*
X163970488Y-122039927D01*
X163995258Y-122035000D01*
X164172742Y-122035000D01*
X164197512Y-122039927D01*
G37*
G36*
X169277512Y-122039927D02*
G01*
X169426812Y-122069624D01*
X169590784Y-122137544D01*
X169738354Y-122236147D01*
X169863853Y-122361646D01*
X169962456Y-122509216D01*
X170030376Y-122673188D01*
X170065000Y-122847259D01*
X170065000Y-123024741D01*
X170030376Y-123198812D01*
X169962456Y-123362784D01*
X169863853Y-123510354D01*
X169738354Y-123635853D01*
X169590784Y-123734456D01*
X169426812Y-123802376D01*
X169277512Y-123832073D01*
X169252742Y-123837000D01*
X169075258Y-123837000D01*
X169050488Y-123832073D01*
X168901188Y-123802376D01*
X168737216Y-123734456D01*
X168589646Y-123635853D01*
X168464147Y-123510354D01*
X168365544Y-123362784D01*
X168297624Y-123198812D01*
X168263000Y-123024741D01*
X168263000Y-122847259D01*
X168297624Y-122673188D01*
X168365544Y-122509216D01*
X168464147Y-122361646D01*
X168589646Y-122236147D01*
X168737216Y-122137544D01*
X168901188Y-122069624D01*
X169050488Y-122039927D01*
X169075258Y-122035000D01*
X169252742Y-122035000D01*
X169277512Y-122039927D01*
G37*
G36*
X159117512Y-122039927D02*
G01*
X159266812Y-122069624D01*
X159430784Y-122137544D01*
X159578354Y-122236147D01*
X159703853Y-122361646D01*
X159802456Y-122509216D01*
X159870376Y-122673188D01*
X159905000Y-122847259D01*
X159905000Y-123024741D01*
X159870376Y-123198812D01*
X159802456Y-123362784D01*
X159703853Y-123510354D01*
X159578354Y-123635853D01*
X159430784Y-123734456D01*
X159266812Y-123802376D01*
X159117512Y-123832073D01*
X159092742Y-123837000D01*
X158915258Y-123837000D01*
X158890488Y-123832073D01*
X158741188Y-123802376D01*
X158577216Y-123734456D01*
X158429646Y-123635853D01*
X158304147Y-123510354D01*
X158205544Y-123362784D01*
X158137624Y-123198812D01*
X158103000Y-123024741D01*
X158103000Y-122847259D01*
X158137624Y-122673188D01*
X158205544Y-122509216D01*
X158304147Y-122361646D01*
X158429646Y-122236147D01*
X158577216Y-122137544D01*
X158741188Y-122069624D01*
X158890488Y-122039927D01*
X158915258Y-122035000D01*
X159092742Y-122035000D01*
X159117512Y-122039927D01*
G37*
G36*
X161657512Y-122039927D02*
G01*
X161806812Y-122069624D01*
X161970784Y-122137544D01*
X162118354Y-122236147D01*
X162243853Y-122361646D01*
X162342456Y-122509216D01*
X162410376Y-122673188D01*
X162445000Y-122847259D01*
X162445000Y-123024741D01*
X162410376Y-123198812D01*
X162342456Y-123362784D01*
X162243853Y-123510354D01*
X162118354Y-123635853D01*
X161970784Y-123734456D01*
X161806812Y-123802376D01*
X161657512Y-123832073D01*
X161632742Y-123837000D01*
X161455258Y-123837000D01*
X161430488Y-123832073D01*
X161281188Y-123802376D01*
X161117216Y-123734456D01*
X160969646Y-123635853D01*
X160844147Y-123510354D01*
X160745544Y-123362784D01*
X160677624Y-123198812D01*
X160643000Y-123024741D01*
X160643000Y-122847259D01*
X160677624Y-122673188D01*
X160745544Y-122509216D01*
X160844147Y-122361646D01*
X160969646Y-122236147D01*
X161117216Y-122137544D01*
X161281188Y-122069624D01*
X161430488Y-122039927D01*
X161455258Y-122035000D01*
X161632742Y-122035000D01*
X161657512Y-122039927D01*
G37*
G36*
X156577512Y-122039927D02*
G01*
X156726812Y-122069624D01*
X156890784Y-122137544D01*
X157038354Y-122236147D01*
X157163853Y-122361646D01*
X157262456Y-122509216D01*
X157330376Y-122673188D01*
X157365000Y-122847259D01*
X157365000Y-123024741D01*
X157330376Y-123198812D01*
X157262456Y-123362784D01*
X157163853Y-123510354D01*
X157038354Y-123635853D01*
X156890784Y-123734456D01*
X156726812Y-123802376D01*
X156577512Y-123832073D01*
X156552742Y-123837000D01*
X156375258Y-123837000D01*
X156350488Y-123832073D01*
X156201188Y-123802376D01*
X156037216Y-123734456D01*
X155889646Y-123635853D01*
X155764147Y-123510354D01*
X155665544Y-123362784D01*
X155597624Y-123198812D01*
X155563000Y-123024741D01*
X155563000Y-122847259D01*
X155597624Y-122673188D01*
X155665544Y-122509216D01*
X155764147Y-122361646D01*
X155889646Y-122236147D01*
X156037216Y-122137544D01*
X156201188Y-122069624D01*
X156350488Y-122039927D01*
X156375258Y-122035000D01*
X156552742Y-122035000D01*
X156577512Y-122039927D01*
G37*
G36*
X196214239Y-116191467D02*
G01*
X196528282Y-116253934D01*
X197119926Y-116499001D01*
X197390025Y-116679476D01*
X197652391Y-116854783D01*
X198105217Y-117307609D01*
X198162585Y-117393466D01*
X198460999Y-117840074D01*
X198705501Y-118430354D01*
X198706066Y-118431719D01*
X198831000Y-119059803D01*
X198831000Y-119700197D01*
X198784150Y-119935725D01*
X198706066Y-120328282D01*
X198460999Y-120919926D01*
X198105216Y-121452392D01*
X197652392Y-121905216D01*
X197119926Y-122260999D01*
X196528282Y-122506066D01*
X196214239Y-122568533D01*
X195900197Y-122631000D01*
X195259803Y-122631000D01*
X194945761Y-122568533D01*
X194631718Y-122506066D01*
X194040074Y-122260999D01*
X193507608Y-121905216D01*
X193054784Y-121452392D01*
X192699001Y-120919926D01*
X192453934Y-120328282D01*
X192375850Y-119935725D01*
X192329000Y-119700197D01*
X192329000Y-119059803D01*
X192453934Y-118431719D01*
X192454499Y-118430354D01*
X192699001Y-117840074D01*
X192997415Y-117393466D01*
X193054783Y-117307609D01*
X193507609Y-116854783D01*
X193769975Y-116679476D01*
X194040074Y-116499001D01*
X194631718Y-116253934D01*
X194945761Y-116191467D01*
X195259803Y-116129000D01*
X195900197Y-116129000D01*
X196214239Y-116191467D01*
G37*
G36*
X132714239Y-116191467D02*
G01*
X133028282Y-116253934D01*
X133619926Y-116499001D01*
X133890025Y-116679476D01*
X134152391Y-116854783D01*
X134605217Y-117307609D01*
X134662585Y-117393466D01*
X134960999Y-117840074D01*
X135205501Y-118430354D01*
X135206066Y-118431719D01*
X135331000Y-119059803D01*
X135331000Y-119700197D01*
X135284150Y-119935725D01*
X135206066Y-120328282D01*
X134960999Y-120919926D01*
X134605216Y-121452392D01*
X134152392Y-121905216D01*
X133619926Y-122260999D01*
X133028282Y-122506066D01*
X132714239Y-122568533D01*
X132400197Y-122631000D01*
X131759803Y-122631000D01*
X131445761Y-122568533D01*
X131131718Y-122506066D01*
X130540074Y-122260999D01*
X130007608Y-121905216D01*
X129554784Y-121452392D01*
X129199001Y-120919926D01*
X128953934Y-120328282D01*
X128875850Y-119935725D01*
X128829000Y-119700197D01*
X128829000Y-119059803D01*
X128953934Y-118431719D01*
X128954499Y-118430354D01*
X129199001Y-117840074D01*
X129497415Y-117393466D01*
X129554783Y-117307609D01*
X130007609Y-116854783D01*
X130269975Y-116679476D01*
X130540074Y-116499001D01*
X131131718Y-116253934D01*
X131445761Y-116191467D01*
X131759803Y-116129000D01*
X132400197Y-116129000D01*
X132714239Y-116191467D01*
G37*
G36*
X144893512Y-119967927D02*
G01*
X145042812Y-119997624D01*
X145206784Y-120065544D01*
X145354354Y-120164147D01*
X145479853Y-120289646D01*
X145578456Y-120437216D01*
X145646376Y-120601188D01*
X145681000Y-120775259D01*
X145681000Y-120952741D01*
X145646376Y-121126812D01*
X145578456Y-121290784D01*
X145479853Y-121438354D01*
X145354354Y-121563853D01*
X145206784Y-121662456D01*
X145042812Y-121730376D01*
X144893512Y-121760073D01*
X144868742Y-121765000D01*
X144691258Y-121765000D01*
X144666488Y-121760073D01*
X144517188Y-121730376D01*
X144353216Y-121662456D01*
X144205646Y-121563853D01*
X144080147Y-121438354D01*
X143981544Y-121290784D01*
X143913624Y-121126812D01*
X143879000Y-120952741D01*
X143879000Y-120775259D01*
X143913624Y-120601188D01*
X143981544Y-120437216D01*
X144080147Y-120289646D01*
X144205646Y-120164147D01*
X144353216Y-120065544D01*
X144517188Y-119997624D01*
X144666488Y-119967927D01*
X144691258Y-119963000D01*
X144868742Y-119963000D01*
X144893512Y-119967927D01*
G37*
G36*
X181998147Y-119595087D02*
G01*
X182172958Y-119667496D01*
X182189418Y-119674314D01*
X182361556Y-119789333D01*
X182507948Y-119935725D01*
X182549308Y-119997624D01*
X182622968Y-120107865D01*
X182702194Y-120299134D01*
X182742583Y-120502182D01*
X182742583Y-120709214D01*
X182702194Y-120912262D01*
X182626149Y-121095852D01*
X182622967Y-121103533D01*
X182507948Y-121275671D01*
X182361556Y-121422063D01*
X182189418Y-121537082D01*
X182189417Y-121537083D01*
X182189416Y-121537083D01*
X181998147Y-121616309D01*
X181795099Y-121656698D01*
X181588067Y-121656698D01*
X181385019Y-121616309D01*
X181193750Y-121537083D01*
X181193749Y-121537083D01*
X181193748Y-121537082D01*
X181021610Y-121422063D01*
X180875218Y-121275671D01*
X180760199Y-121103533D01*
X180757017Y-121095852D01*
X180680972Y-120912262D01*
X180640583Y-120709214D01*
X180640583Y-120502182D01*
X180680972Y-120299134D01*
X180760198Y-120107865D01*
X180833859Y-119997624D01*
X180875218Y-119935725D01*
X181021610Y-119789333D01*
X181193748Y-119674314D01*
X181210208Y-119667496D01*
X181385019Y-119595087D01*
X181588067Y-119554698D01*
X181795099Y-119554698D01*
X181998147Y-119595087D01*
G37*
G36*
X161657512Y-119499927D02*
G01*
X161806812Y-119529624D01*
X161970784Y-119597544D01*
X162118354Y-119696147D01*
X162243853Y-119821646D01*
X162342456Y-119969216D01*
X162410376Y-120133188D01*
X162440073Y-120282488D01*
X162445000Y-120307258D01*
X162445000Y-120484742D01*
X162440073Y-120509512D01*
X162410376Y-120658812D01*
X162342456Y-120822784D01*
X162243853Y-120970354D01*
X162118354Y-121095853D01*
X161970784Y-121194456D01*
X161806812Y-121262376D01*
X161657512Y-121292073D01*
X161632742Y-121297000D01*
X161455258Y-121297000D01*
X161430488Y-121292073D01*
X161281188Y-121262376D01*
X161117216Y-121194456D01*
X160969646Y-121095853D01*
X160844147Y-120970354D01*
X160745544Y-120822784D01*
X160677624Y-120658812D01*
X160647927Y-120509512D01*
X160643000Y-120484742D01*
X160643000Y-120307258D01*
X160647927Y-120282488D01*
X160677624Y-120133188D01*
X160745544Y-119969216D01*
X160844147Y-119821646D01*
X160969646Y-119696147D01*
X161117216Y-119597544D01*
X161281188Y-119529624D01*
X161430488Y-119499927D01*
X161455258Y-119495000D01*
X161632742Y-119495000D01*
X161657512Y-119499927D01*
G37*
G36*
X159117512Y-119499927D02*
G01*
X159266812Y-119529624D01*
X159430784Y-119597544D01*
X159578354Y-119696147D01*
X159703853Y-119821646D01*
X159802456Y-119969216D01*
X159870376Y-120133188D01*
X159900073Y-120282488D01*
X159905000Y-120307258D01*
X159905000Y-120484742D01*
X159900073Y-120509512D01*
X159870376Y-120658812D01*
X159802456Y-120822784D01*
X159703853Y-120970354D01*
X159578354Y-121095853D01*
X159430784Y-121194456D01*
X159266812Y-121262376D01*
X159117512Y-121292073D01*
X159092742Y-121297000D01*
X158915258Y-121297000D01*
X158890488Y-121292073D01*
X158741188Y-121262376D01*
X158577216Y-121194456D01*
X158429646Y-121095853D01*
X158304147Y-120970354D01*
X158205544Y-120822784D01*
X158137624Y-120658812D01*
X158107927Y-120509512D01*
X158103000Y-120484742D01*
X158103000Y-120307258D01*
X158107927Y-120282488D01*
X158137624Y-120133188D01*
X158205544Y-119969216D01*
X158304147Y-119821646D01*
X158429646Y-119696147D01*
X158577216Y-119597544D01*
X158741188Y-119529624D01*
X158890488Y-119499927D01*
X158915258Y-119495000D01*
X159092742Y-119495000D01*
X159117512Y-119499927D01*
G37*
G36*
X164197512Y-119499927D02*
G01*
X164346812Y-119529624D01*
X164510784Y-119597544D01*
X164658354Y-119696147D01*
X164783853Y-119821646D01*
X164882456Y-119969216D01*
X164950376Y-120133188D01*
X164980073Y-120282488D01*
X164985000Y-120307258D01*
X164985000Y-120484742D01*
X164980073Y-120509512D01*
X164950376Y-120658812D01*
X164882456Y-120822784D01*
X164783853Y-120970354D01*
X164658354Y-121095853D01*
X164510784Y-121194456D01*
X164346812Y-121262376D01*
X164197512Y-121292073D01*
X164172742Y-121297000D01*
X163995258Y-121297000D01*
X163970488Y-121292073D01*
X163821188Y-121262376D01*
X163657216Y-121194456D01*
X163509646Y-121095853D01*
X163384147Y-120970354D01*
X163285544Y-120822784D01*
X163217624Y-120658812D01*
X163187927Y-120509512D01*
X163183000Y-120484742D01*
X163183000Y-120307258D01*
X163187927Y-120282488D01*
X163217624Y-120133188D01*
X163285544Y-119969216D01*
X163384147Y-119821646D01*
X163509646Y-119696147D01*
X163657216Y-119597544D01*
X163821188Y-119529624D01*
X163970488Y-119499927D01*
X163995258Y-119495000D01*
X164172742Y-119495000D01*
X164197512Y-119499927D01*
G37*
G36*
X154037512Y-119499927D02*
G01*
X154186812Y-119529624D01*
X154350784Y-119597544D01*
X154498354Y-119696147D01*
X154623853Y-119821646D01*
X154722456Y-119969216D01*
X154790376Y-120133188D01*
X154820073Y-120282488D01*
X154825000Y-120307258D01*
X154825000Y-120484742D01*
X154820073Y-120509512D01*
X154790376Y-120658812D01*
X154722456Y-120822784D01*
X154623853Y-120970354D01*
X154498354Y-121095853D01*
X154350784Y-121194456D01*
X154186812Y-121262376D01*
X154037512Y-121292073D01*
X154012742Y-121297000D01*
X153835258Y-121297000D01*
X153810488Y-121292073D01*
X153661188Y-121262376D01*
X153497216Y-121194456D01*
X153349646Y-121095853D01*
X153224147Y-120970354D01*
X153125544Y-120822784D01*
X153057624Y-120658812D01*
X153027927Y-120509512D01*
X153023000Y-120484742D01*
X153023000Y-120307258D01*
X153027927Y-120282488D01*
X153057624Y-120133188D01*
X153125544Y-119969216D01*
X153224147Y-119821646D01*
X153349646Y-119696147D01*
X153497216Y-119597544D01*
X153661188Y-119529624D01*
X153810488Y-119499927D01*
X153835258Y-119495000D01*
X154012742Y-119495000D01*
X154037512Y-119499927D01*
G37*
G36*
X166737512Y-119499927D02*
G01*
X166886812Y-119529624D01*
X167050784Y-119597544D01*
X167198354Y-119696147D01*
X167323853Y-119821646D01*
X167422456Y-119969216D01*
X167490376Y-120133188D01*
X167520073Y-120282488D01*
X167525000Y-120307258D01*
X167525000Y-120484742D01*
X167520073Y-120509512D01*
X167490376Y-120658812D01*
X167422456Y-120822784D01*
X167323853Y-120970354D01*
X167198354Y-121095853D01*
X167050784Y-121194456D01*
X166886812Y-121262376D01*
X166737512Y-121292073D01*
X166712742Y-121297000D01*
X166535258Y-121297000D01*
X166510488Y-121292073D01*
X166361188Y-121262376D01*
X166197216Y-121194456D01*
X166049646Y-121095853D01*
X165924147Y-120970354D01*
X165825544Y-120822784D01*
X165757624Y-120658812D01*
X165727927Y-120509512D01*
X165723000Y-120484742D01*
X165723000Y-120307258D01*
X165727927Y-120282488D01*
X165757624Y-120133188D01*
X165825544Y-119969216D01*
X165924147Y-119821646D01*
X166049646Y-119696147D01*
X166197216Y-119597544D01*
X166361188Y-119529624D01*
X166510488Y-119499927D01*
X166535258Y-119495000D01*
X166712742Y-119495000D01*
X166737512Y-119499927D01*
G37*
G36*
X169277512Y-119499927D02*
G01*
X169426812Y-119529624D01*
X169590784Y-119597544D01*
X169738354Y-119696147D01*
X169863853Y-119821646D01*
X169962456Y-119969216D01*
X170030376Y-120133188D01*
X170060073Y-120282488D01*
X170065000Y-120307258D01*
X170065000Y-120484742D01*
X170060073Y-120509512D01*
X170030376Y-120658812D01*
X169962456Y-120822784D01*
X169863853Y-120970354D01*
X169738354Y-121095853D01*
X169590784Y-121194456D01*
X169426812Y-121262376D01*
X169277512Y-121292073D01*
X169252742Y-121297000D01*
X169075258Y-121297000D01*
X169050488Y-121292073D01*
X168901188Y-121262376D01*
X168737216Y-121194456D01*
X168589646Y-121095853D01*
X168464147Y-120970354D01*
X168365544Y-120822784D01*
X168297624Y-120658812D01*
X168267927Y-120509512D01*
X168263000Y-120484742D01*
X168263000Y-120307258D01*
X168267927Y-120282488D01*
X168297624Y-120133188D01*
X168365544Y-119969216D01*
X168464147Y-119821646D01*
X168589646Y-119696147D01*
X168737216Y-119597544D01*
X168901188Y-119529624D01*
X169050488Y-119499927D01*
X169075258Y-119495000D01*
X169252742Y-119495000D01*
X169277512Y-119499927D01*
G37*
G36*
X156577512Y-119499927D02*
G01*
X156726812Y-119529624D01*
X156890784Y-119597544D01*
X157038354Y-119696147D01*
X157163853Y-119821646D01*
X157262456Y-119969216D01*
X157330376Y-120133188D01*
X157360073Y-120282488D01*
X157365000Y-120307258D01*
X157365000Y-120484742D01*
X157360073Y-120509512D01*
X157330376Y-120658812D01*
X157262456Y-120822784D01*
X157163853Y-120970354D01*
X157038354Y-121095853D01*
X156890784Y-121194456D01*
X156726812Y-121262376D01*
X156577512Y-121292073D01*
X156552742Y-121297000D01*
X156375258Y-121297000D01*
X156350488Y-121292073D01*
X156201188Y-121262376D01*
X156037216Y-121194456D01*
X155889646Y-121095853D01*
X155764147Y-120970354D01*
X155665544Y-120822784D01*
X155597624Y-120658812D01*
X155567927Y-120509512D01*
X155563000Y-120484742D01*
X155563000Y-120307258D01*
X155567927Y-120282488D01*
X155597624Y-120133188D01*
X155665544Y-119969216D01*
X155764147Y-119821646D01*
X155889646Y-119696147D01*
X156037216Y-119597544D01*
X156201188Y-119529624D01*
X156350488Y-119499927D01*
X156375258Y-119495000D01*
X156552742Y-119495000D01*
X156577512Y-119499927D01*
G37*
G36*
X183588404Y-117827182D02*
G01*
X183626097Y-117838616D01*
X183660833Y-117857183D01*
X183691278Y-117882169D01*
X183716264Y-117912614D01*
X183734831Y-117947350D01*
X183746265Y-117985043D01*
X183750730Y-118030378D01*
X183750730Y-118867056D01*
X183746265Y-118912391D01*
X183734831Y-118950084D01*
X183716264Y-118984820D01*
X183691278Y-119015265D01*
X183660833Y-119040251D01*
X183626097Y-119058818D01*
X183588404Y-119070252D01*
X183543069Y-119074717D01*
X182456391Y-119074717D01*
X182411056Y-119070252D01*
X182373363Y-119058818D01*
X182338627Y-119040251D01*
X182308182Y-119015265D01*
X182283196Y-118984820D01*
X182264629Y-118950084D01*
X182253195Y-118912391D01*
X182248730Y-118867056D01*
X182248730Y-118030378D01*
X182253195Y-117985043D01*
X182264629Y-117947350D01*
X182283196Y-117912614D01*
X182308182Y-117882169D01*
X182338627Y-117857183D01*
X182373363Y-117838616D01*
X182411056Y-117827182D01*
X182456391Y-117822717D01*
X183543069Y-117822717D01*
X183588404Y-117827182D01*
G37*
G36*
X148028674Y-117363465D02*
G01*
X148066367Y-117374899D01*
X148101103Y-117393466D01*
X148131548Y-117418452D01*
X148156534Y-117448897D01*
X148175101Y-117483633D01*
X148186535Y-117521326D01*
X148191000Y-117566661D01*
X148191000Y-118653339D01*
X148186535Y-118698674D01*
X148175101Y-118736367D01*
X148156534Y-118771103D01*
X148131548Y-118801548D01*
X148101103Y-118826534D01*
X148066367Y-118845101D01*
X148028674Y-118856535D01*
X147983339Y-118861000D01*
X147146661Y-118861000D01*
X147101326Y-118856535D01*
X147063633Y-118845101D01*
X147028897Y-118826534D01*
X146998452Y-118801548D01*
X146973466Y-118771103D01*
X146954899Y-118736367D01*
X146943465Y-118698674D01*
X146939000Y-118653339D01*
X146939000Y-117566661D01*
X146943465Y-117521326D01*
X146954899Y-117483633D01*
X146973466Y-117448897D01*
X146998452Y-117418452D01*
X147028897Y-117393466D01*
X147063633Y-117374899D01*
X147101326Y-117363465D01*
X147146661Y-117359000D01*
X147983339Y-117359000D01*
X148028674Y-117363465D01*
G37*
G36*
X140408674Y-117363465D02*
G01*
X140446367Y-117374899D01*
X140481103Y-117393466D01*
X140511548Y-117418452D01*
X140536534Y-117448897D01*
X140555101Y-117483633D01*
X140566535Y-117521326D01*
X140571000Y-117566661D01*
X140571000Y-118653339D01*
X140566535Y-118698674D01*
X140555101Y-118736367D01*
X140536534Y-118771103D01*
X140511548Y-118801548D01*
X140481103Y-118826534D01*
X140446367Y-118845101D01*
X140408674Y-118856535D01*
X140363339Y-118861000D01*
X139526661Y-118861000D01*
X139481326Y-118856535D01*
X139443633Y-118845101D01*
X139408897Y-118826534D01*
X139378452Y-118801548D01*
X139353466Y-118771103D01*
X139334899Y-118736367D01*
X139323465Y-118698674D01*
X139319000Y-118653339D01*
X139319000Y-117566661D01*
X139323465Y-117521326D01*
X139334899Y-117483633D01*
X139353466Y-117448897D01*
X139378452Y-117418452D01*
X139408897Y-117393466D01*
X139443633Y-117374899D01*
X139481326Y-117363465D01*
X139526661Y-117359000D01*
X140363339Y-117359000D01*
X140408674Y-117363465D01*
G37*
G36*
X142458674Y-117363465D02*
G01*
X142496367Y-117374899D01*
X142531103Y-117393466D01*
X142561548Y-117418452D01*
X142586534Y-117448897D01*
X142605101Y-117483633D01*
X142616535Y-117521326D01*
X142621000Y-117566661D01*
X142621000Y-118653339D01*
X142616535Y-118698674D01*
X142605101Y-118736367D01*
X142586534Y-118771103D01*
X142561548Y-118801548D01*
X142531103Y-118826534D01*
X142496367Y-118845101D01*
X142458674Y-118856535D01*
X142413339Y-118861000D01*
X141576661Y-118861000D01*
X141531326Y-118856535D01*
X141493633Y-118845101D01*
X141458897Y-118826534D01*
X141428452Y-118801548D01*
X141403466Y-118771103D01*
X141384899Y-118736367D01*
X141373465Y-118698674D01*
X141369000Y-118653339D01*
X141369000Y-117566661D01*
X141373465Y-117521326D01*
X141384899Y-117483633D01*
X141403466Y-117448897D01*
X141428452Y-117418452D01*
X141458897Y-117393466D01*
X141493633Y-117374899D01*
X141531326Y-117363465D01*
X141576661Y-117359000D01*
X142413339Y-117359000D01*
X142458674Y-117363465D01*
G37*
G36*
X150078674Y-117363465D02*
G01*
X150116367Y-117374899D01*
X150151103Y-117393466D01*
X150181548Y-117418452D01*
X150206534Y-117448897D01*
X150225101Y-117483633D01*
X150236535Y-117521326D01*
X150241000Y-117566661D01*
X150241000Y-118653339D01*
X150236535Y-118698674D01*
X150225101Y-118736367D01*
X150206534Y-118771103D01*
X150181548Y-118801548D01*
X150151103Y-118826534D01*
X150116367Y-118845101D01*
X150078674Y-118856535D01*
X150033339Y-118861000D01*
X149196661Y-118861000D01*
X149151326Y-118856535D01*
X149113633Y-118845101D01*
X149078897Y-118826534D01*
X149048452Y-118801548D01*
X149023466Y-118771103D01*
X149004899Y-118736367D01*
X148993465Y-118698674D01*
X148989000Y-118653339D01*
X148989000Y-117566661D01*
X148993465Y-117521326D01*
X149004899Y-117483633D01*
X149023466Y-117448897D01*
X149048452Y-117418452D01*
X149078897Y-117393466D01*
X149113633Y-117374899D01*
X149151326Y-117363465D01*
X149196661Y-117359000D01*
X150033339Y-117359000D01*
X150078674Y-117363465D01*
G37*
G36*
X169277512Y-116959927D02*
G01*
X169426812Y-116989624D01*
X169590784Y-117057544D01*
X169738354Y-117156147D01*
X169863853Y-117281646D01*
X169962456Y-117429216D01*
X170030376Y-117593188D01*
X170065000Y-117767259D01*
X170065000Y-117944741D01*
X170030376Y-118118812D01*
X169962456Y-118282784D01*
X169863853Y-118430354D01*
X169738354Y-118555853D01*
X169590784Y-118654456D01*
X169426812Y-118722376D01*
X169277512Y-118752073D01*
X169252742Y-118757000D01*
X169075258Y-118757000D01*
X169050488Y-118752073D01*
X168901188Y-118722376D01*
X168737216Y-118654456D01*
X168589646Y-118555853D01*
X168464147Y-118430354D01*
X168365544Y-118282784D01*
X168297624Y-118118812D01*
X168263000Y-117944741D01*
X168263000Y-117767259D01*
X168297624Y-117593188D01*
X168365544Y-117429216D01*
X168464147Y-117281646D01*
X168589646Y-117156147D01*
X168737216Y-117057544D01*
X168901188Y-116989624D01*
X169050488Y-116959927D01*
X169075258Y-116955000D01*
X169252742Y-116955000D01*
X169277512Y-116959927D01*
G37*
G36*
X166737512Y-116959927D02*
G01*
X166886812Y-116989624D01*
X167050784Y-117057544D01*
X167198354Y-117156147D01*
X167323853Y-117281646D01*
X167422456Y-117429216D01*
X167490376Y-117593188D01*
X167525000Y-117767259D01*
X167525000Y-117944741D01*
X167490376Y-118118812D01*
X167422456Y-118282784D01*
X167323853Y-118430354D01*
X167198354Y-118555853D01*
X167050784Y-118654456D01*
X166886812Y-118722376D01*
X166737512Y-118752073D01*
X166712742Y-118757000D01*
X166535258Y-118757000D01*
X166510488Y-118752073D01*
X166361188Y-118722376D01*
X166197216Y-118654456D01*
X166049646Y-118555853D01*
X165924147Y-118430354D01*
X165825544Y-118282784D01*
X165757624Y-118118812D01*
X165723000Y-117944741D01*
X165723000Y-117767259D01*
X165757624Y-117593188D01*
X165825544Y-117429216D01*
X165924147Y-117281646D01*
X166049646Y-117156147D01*
X166197216Y-117057544D01*
X166361188Y-116989624D01*
X166510488Y-116959927D01*
X166535258Y-116955000D01*
X166712742Y-116955000D01*
X166737512Y-116959927D01*
G37*
G36*
X161657512Y-116959927D02*
G01*
X161806812Y-116989624D01*
X161970784Y-117057544D01*
X162118354Y-117156147D01*
X162243853Y-117281646D01*
X162342456Y-117429216D01*
X162410376Y-117593188D01*
X162445000Y-117767259D01*
X162445000Y-117944741D01*
X162410376Y-118118812D01*
X162342456Y-118282784D01*
X162243853Y-118430354D01*
X162118354Y-118555853D01*
X161970784Y-118654456D01*
X161806812Y-118722376D01*
X161657512Y-118752073D01*
X161632742Y-118757000D01*
X161455258Y-118757000D01*
X161430488Y-118752073D01*
X161281188Y-118722376D01*
X161117216Y-118654456D01*
X160969646Y-118555853D01*
X160844147Y-118430354D01*
X160745544Y-118282784D01*
X160677624Y-118118812D01*
X160643000Y-117944741D01*
X160643000Y-117767259D01*
X160677624Y-117593188D01*
X160745544Y-117429216D01*
X160844147Y-117281646D01*
X160969646Y-117156147D01*
X161117216Y-117057544D01*
X161281188Y-116989624D01*
X161430488Y-116959927D01*
X161455258Y-116955000D01*
X161632742Y-116955000D01*
X161657512Y-116959927D01*
G37*
G36*
X156577512Y-116959927D02*
G01*
X156726812Y-116989624D01*
X156890784Y-117057544D01*
X157038354Y-117156147D01*
X157163853Y-117281646D01*
X157262456Y-117429216D01*
X157330376Y-117593188D01*
X157365000Y-117767259D01*
X157365000Y-117944741D01*
X157330376Y-118118812D01*
X157262456Y-118282784D01*
X157163853Y-118430354D01*
X157038354Y-118555853D01*
X156890784Y-118654456D01*
X156726812Y-118722376D01*
X156577512Y-118752073D01*
X156552742Y-118757000D01*
X156375258Y-118757000D01*
X156350488Y-118752073D01*
X156201188Y-118722376D01*
X156037216Y-118654456D01*
X155889646Y-118555853D01*
X155764147Y-118430354D01*
X155665544Y-118282784D01*
X155597624Y-118118812D01*
X155563000Y-117944741D01*
X155563000Y-117767259D01*
X155597624Y-117593188D01*
X155665544Y-117429216D01*
X155764147Y-117281646D01*
X155889646Y-117156147D01*
X156037216Y-117057544D01*
X156201188Y-116989624D01*
X156350488Y-116959927D01*
X156375258Y-116955000D01*
X156552742Y-116955000D01*
X156577512Y-116959927D01*
G37*
G36*
X154037512Y-116959927D02*
G01*
X154186812Y-116989624D01*
X154350784Y-117057544D01*
X154498354Y-117156147D01*
X154623853Y-117281646D01*
X154722456Y-117429216D01*
X154790376Y-117593188D01*
X154825000Y-117767259D01*
X154825000Y-117944741D01*
X154790376Y-118118812D01*
X154722456Y-118282784D01*
X154623853Y-118430354D01*
X154498354Y-118555853D01*
X154350784Y-118654456D01*
X154186812Y-118722376D01*
X154037512Y-118752073D01*
X154012742Y-118757000D01*
X153835258Y-118757000D01*
X153810488Y-118752073D01*
X153661188Y-118722376D01*
X153497216Y-118654456D01*
X153349646Y-118555853D01*
X153224147Y-118430354D01*
X153125544Y-118282784D01*
X153057624Y-118118812D01*
X153023000Y-117944741D01*
X153023000Y-117767259D01*
X153057624Y-117593188D01*
X153125544Y-117429216D01*
X153224147Y-117281646D01*
X153349646Y-117156147D01*
X153497216Y-117057544D01*
X153661188Y-116989624D01*
X153810488Y-116959927D01*
X153835258Y-116955000D01*
X154012742Y-116955000D01*
X154037512Y-116959927D01*
G37*
G36*
X164197512Y-116959927D02*
G01*
X164346812Y-116989624D01*
X164510784Y-117057544D01*
X164658354Y-117156147D01*
X164783853Y-117281646D01*
X164882456Y-117429216D01*
X164950376Y-117593188D01*
X164985000Y-117767259D01*
X164985000Y-117944741D01*
X164950376Y-118118812D01*
X164882456Y-118282784D01*
X164783853Y-118430354D01*
X164658354Y-118555853D01*
X164510784Y-118654456D01*
X164346812Y-118722376D01*
X164197512Y-118752073D01*
X164172742Y-118757000D01*
X163995258Y-118757000D01*
X163970488Y-118752073D01*
X163821188Y-118722376D01*
X163657216Y-118654456D01*
X163509646Y-118555853D01*
X163384147Y-118430354D01*
X163285544Y-118282784D01*
X163217624Y-118118812D01*
X163183000Y-117944741D01*
X163183000Y-117767259D01*
X163217624Y-117593188D01*
X163285544Y-117429216D01*
X163384147Y-117281646D01*
X163509646Y-117156147D01*
X163657216Y-117057544D01*
X163821188Y-116989624D01*
X163970488Y-116959927D01*
X163995258Y-116955000D01*
X164172742Y-116955000D01*
X164197512Y-116959927D01*
G37*
G36*
X159117512Y-116959927D02*
G01*
X159266812Y-116989624D01*
X159430784Y-117057544D01*
X159578354Y-117156147D01*
X159703853Y-117281646D01*
X159802456Y-117429216D01*
X159870376Y-117593188D01*
X159905000Y-117767259D01*
X159905000Y-117944741D01*
X159870376Y-118118812D01*
X159802456Y-118282784D01*
X159703853Y-118430354D01*
X159578354Y-118555853D01*
X159430784Y-118654456D01*
X159266812Y-118722376D01*
X159117512Y-118752073D01*
X159092742Y-118757000D01*
X158915258Y-118757000D01*
X158890488Y-118752073D01*
X158741188Y-118722376D01*
X158577216Y-118654456D01*
X158429646Y-118555853D01*
X158304147Y-118430354D01*
X158205544Y-118282784D01*
X158137624Y-118118812D01*
X158103000Y-117944741D01*
X158103000Y-117767259D01*
X158137624Y-117593188D01*
X158205544Y-117429216D01*
X158304147Y-117281646D01*
X158429646Y-117156147D01*
X158577216Y-117057544D01*
X158741188Y-116989624D01*
X158890488Y-116959927D01*
X158915258Y-116955000D01*
X159092742Y-116955000D01*
X159117512Y-116959927D01*
G37*
G36*
X178816166Y-116413106D02*
G01*
X179007435Y-116492332D01*
X179007437Y-116492333D01*
X179179575Y-116607352D01*
X179325967Y-116753744D01*
X179398563Y-116862391D01*
X179440987Y-116925884D01*
X179520213Y-117117153D01*
X179560602Y-117320201D01*
X179560602Y-117527233D01*
X179520213Y-117730281D01*
X179444688Y-117912614D01*
X179440986Y-117921552D01*
X179325967Y-118093690D01*
X179179575Y-118240082D01*
X179007437Y-118355101D01*
X179007436Y-118355102D01*
X179007435Y-118355102D01*
X178816166Y-118434328D01*
X178613118Y-118474717D01*
X178406086Y-118474717D01*
X178203038Y-118434328D01*
X178011769Y-118355102D01*
X178011768Y-118355102D01*
X178011767Y-118355101D01*
X177839629Y-118240082D01*
X177693237Y-118093690D01*
X177578218Y-117921552D01*
X177574516Y-117912614D01*
X177498991Y-117730281D01*
X177458602Y-117527233D01*
X177458602Y-117320201D01*
X177498991Y-117117153D01*
X177578217Y-116925884D01*
X177620642Y-116862391D01*
X177693237Y-116753744D01*
X177839629Y-116607352D01*
X178011767Y-116492333D01*
X178011769Y-116492332D01*
X178203038Y-116413106D01*
X178406086Y-116372717D01*
X178613118Y-116372717D01*
X178816166Y-116413106D01*
G37*
G36*
X186594341Y-114998892D02*
G01*
X186785610Y-115078118D01*
X186785612Y-115078119D01*
X186957750Y-115193138D01*
X187104142Y-115339530D01*
X187219162Y-115511670D01*
X187298388Y-115702939D01*
X187338777Y-115905987D01*
X187338777Y-116113019D01*
X187298388Y-116316067D01*
X187225377Y-116492332D01*
X187219161Y-116507338D01*
X187104142Y-116679476D01*
X186957750Y-116825868D01*
X186785612Y-116940887D01*
X186785611Y-116940888D01*
X186785610Y-116940888D01*
X186594341Y-117020114D01*
X186391293Y-117060503D01*
X186184261Y-117060503D01*
X185981213Y-117020114D01*
X185789944Y-116940888D01*
X185789943Y-116940888D01*
X185789942Y-116940887D01*
X185617804Y-116825868D01*
X185471412Y-116679476D01*
X185356393Y-116507338D01*
X185350177Y-116492332D01*
X185277166Y-116316067D01*
X185236777Y-116113019D01*
X185236777Y-115905987D01*
X185277166Y-115702939D01*
X185356392Y-115511670D01*
X185471412Y-115339530D01*
X185617804Y-115193138D01*
X185789942Y-115078119D01*
X185789944Y-115078118D01*
X185981213Y-114998892D01*
X186184261Y-114958503D01*
X186391293Y-114958503D01*
X186594341Y-114998892D01*
G37*
G36*
X183588404Y-115777182D02*
G01*
X183626097Y-115788616D01*
X183660833Y-115807183D01*
X183691278Y-115832169D01*
X183716264Y-115862614D01*
X183734831Y-115897350D01*
X183746265Y-115935043D01*
X183750730Y-115980378D01*
X183750730Y-116817056D01*
X183746265Y-116862391D01*
X183734831Y-116900084D01*
X183716264Y-116934820D01*
X183691278Y-116965265D01*
X183660833Y-116990251D01*
X183626097Y-117008818D01*
X183588404Y-117020252D01*
X183543069Y-117024717D01*
X182456391Y-117024717D01*
X182411056Y-117020252D01*
X182373363Y-117008818D01*
X182338627Y-116990251D01*
X182308182Y-116965265D01*
X182283196Y-116934820D01*
X182264629Y-116900084D01*
X182253195Y-116862391D01*
X182248730Y-116817056D01*
X182248730Y-115980378D01*
X182253195Y-115935043D01*
X182264629Y-115897350D01*
X182283196Y-115862614D01*
X182308182Y-115832169D01*
X182338627Y-115807183D01*
X182373363Y-115788616D01*
X182411056Y-115777182D01*
X182456391Y-115772717D01*
X183543069Y-115772717D01*
X183588404Y-115777182D01*
G37*
G36*
X180508802Y-114747580D02*
G01*
X180546495Y-114759014D01*
X180581231Y-114777581D01*
X180611676Y-114802567D01*
X180636662Y-114833012D01*
X180655229Y-114867748D01*
X180666663Y-114905441D01*
X180671128Y-114950776D01*
X180671128Y-115787454D01*
X180666663Y-115832789D01*
X180655229Y-115870482D01*
X180636662Y-115905218D01*
X180611676Y-115935663D01*
X180581231Y-115960649D01*
X180546495Y-115979216D01*
X180508802Y-115990650D01*
X180463467Y-115995115D01*
X179376789Y-115995115D01*
X179331454Y-115990650D01*
X179293761Y-115979216D01*
X179259025Y-115960649D01*
X179228580Y-115935663D01*
X179203594Y-115905218D01*
X179185027Y-115870482D01*
X179173593Y-115832789D01*
X179169128Y-115787454D01*
X179169128Y-114950776D01*
X179173593Y-114905441D01*
X179185027Y-114867748D01*
X179203594Y-114833012D01*
X179228580Y-114802567D01*
X179259025Y-114777581D01*
X179293761Y-114759014D01*
X179331454Y-114747580D01*
X179376789Y-114743115D01*
X180463467Y-114743115D01*
X180508802Y-114747580D01*
G37*
G36*
X150078674Y-113553465D02*
G01*
X150116367Y-113564899D01*
X150151103Y-113583466D01*
X150181548Y-113608452D01*
X150206534Y-113638897D01*
X150225101Y-113673633D01*
X150236535Y-113711326D01*
X150241000Y-113756661D01*
X150241000Y-114843339D01*
X150236535Y-114888674D01*
X150225101Y-114926367D01*
X150206534Y-114961103D01*
X150181548Y-114991548D01*
X150151103Y-115016534D01*
X150116367Y-115035101D01*
X150078674Y-115046535D01*
X150033339Y-115051000D01*
X149196661Y-115051000D01*
X149151326Y-115046535D01*
X149113633Y-115035101D01*
X149078897Y-115016534D01*
X149048452Y-114991548D01*
X149023466Y-114961103D01*
X149004899Y-114926367D01*
X148993465Y-114888674D01*
X148989000Y-114843339D01*
X148989000Y-113756661D01*
X148993465Y-113711326D01*
X149004899Y-113673633D01*
X149023466Y-113638897D01*
X149048452Y-113608452D01*
X149078897Y-113583466D01*
X149113633Y-113564899D01*
X149151326Y-113553465D01*
X149196661Y-113549000D01*
X150033339Y-113549000D01*
X150078674Y-113553465D01*
G37*
G36*
X140408674Y-113553465D02*
G01*
X140446367Y-113564899D01*
X140481103Y-113583466D01*
X140511548Y-113608452D01*
X140536534Y-113638897D01*
X140555101Y-113673633D01*
X140566535Y-113711326D01*
X140571000Y-113756661D01*
X140571000Y-114843339D01*
X140566535Y-114888674D01*
X140555101Y-114926367D01*
X140536534Y-114961103D01*
X140511548Y-114991548D01*
X140481103Y-115016534D01*
X140446367Y-115035101D01*
X140408674Y-115046535D01*
X140363339Y-115051000D01*
X139526661Y-115051000D01*
X139481326Y-115046535D01*
X139443633Y-115035101D01*
X139408897Y-115016534D01*
X139378452Y-114991548D01*
X139353466Y-114961103D01*
X139334899Y-114926367D01*
X139323465Y-114888674D01*
X139319000Y-114843339D01*
X139319000Y-113756661D01*
X139323465Y-113711326D01*
X139334899Y-113673633D01*
X139353466Y-113638897D01*
X139378452Y-113608452D01*
X139408897Y-113583466D01*
X139443633Y-113564899D01*
X139481326Y-113553465D01*
X139526661Y-113549000D01*
X140363339Y-113549000D01*
X140408674Y-113553465D01*
G37*
G36*
X142458674Y-113553465D02*
G01*
X142496367Y-113564899D01*
X142531103Y-113583466D01*
X142561548Y-113608452D01*
X142586534Y-113638897D01*
X142605101Y-113673633D01*
X142616535Y-113711326D01*
X142621000Y-113756661D01*
X142621000Y-114843339D01*
X142616535Y-114888674D01*
X142605101Y-114926367D01*
X142586534Y-114961103D01*
X142561548Y-114991548D01*
X142531103Y-115016534D01*
X142496367Y-115035101D01*
X142458674Y-115046535D01*
X142413339Y-115051000D01*
X141576661Y-115051000D01*
X141531326Y-115046535D01*
X141493633Y-115035101D01*
X141458897Y-115016534D01*
X141428452Y-114991548D01*
X141403466Y-114961103D01*
X141384899Y-114926367D01*
X141373465Y-114888674D01*
X141369000Y-114843339D01*
X141369000Y-113756661D01*
X141373465Y-113711326D01*
X141384899Y-113673633D01*
X141403466Y-113638897D01*
X141428452Y-113608452D01*
X141458897Y-113583466D01*
X141493633Y-113564899D01*
X141531326Y-113553465D01*
X141576661Y-113549000D01*
X142413339Y-113549000D01*
X142458674Y-113553465D01*
G37*
G36*
X148028674Y-113553465D02*
G01*
X148066367Y-113564899D01*
X148101103Y-113583466D01*
X148131548Y-113608452D01*
X148156534Y-113638897D01*
X148175101Y-113673633D01*
X148186535Y-113711326D01*
X148191000Y-113756661D01*
X148191000Y-114843339D01*
X148186535Y-114888674D01*
X148175101Y-114926367D01*
X148156534Y-114961103D01*
X148131548Y-114991548D01*
X148101103Y-115016534D01*
X148066367Y-115035101D01*
X148028674Y-115046535D01*
X147983339Y-115051000D01*
X147146661Y-115051000D01*
X147101326Y-115046535D01*
X147063633Y-115035101D01*
X147028897Y-115016534D01*
X146998452Y-114991548D01*
X146973466Y-114961103D01*
X146954899Y-114926367D01*
X146943465Y-114888674D01*
X146939000Y-114843339D01*
X146939000Y-113756661D01*
X146943465Y-113711326D01*
X146954899Y-113673633D01*
X146973466Y-113638897D01*
X146998452Y-113608452D01*
X147028897Y-113583466D01*
X147063633Y-113564899D01*
X147101326Y-113553465D01*
X147146661Y-113549000D01*
X147983339Y-113549000D01*
X148028674Y-113553465D01*
G37*
G36*
X175262955Y-112859895D02*
G01*
X175430866Y-112929446D01*
X175454226Y-112939122D01*
X175460073Y-112943029D01*
X175626364Y-113054141D01*
X175772756Y-113200533D01*
X175887776Y-113372673D01*
X175967002Y-113563942D01*
X176007391Y-113766990D01*
X176007391Y-113974022D01*
X175967002Y-114177070D01*
X175919901Y-114290782D01*
X175887775Y-114368341D01*
X175772756Y-114540479D01*
X175626364Y-114686871D01*
X175454226Y-114801890D01*
X175454225Y-114801891D01*
X175454224Y-114801891D01*
X175262955Y-114881117D01*
X175059907Y-114921506D01*
X174852875Y-114921506D01*
X174649827Y-114881117D01*
X174458558Y-114801891D01*
X174458557Y-114801891D01*
X174458556Y-114801890D01*
X174286418Y-114686871D01*
X174140026Y-114540479D01*
X174025007Y-114368341D01*
X173992881Y-114290782D01*
X173945780Y-114177070D01*
X173905391Y-113974022D01*
X173905391Y-113766990D01*
X173945780Y-113563942D01*
X174025006Y-113372673D01*
X174140026Y-113200533D01*
X174286418Y-113054141D01*
X174452709Y-112943029D01*
X174458556Y-112939122D01*
X174481916Y-112929446D01*
X174649827Y-112859895D01*
X174852875Y-112819506D01*
X175059907Y-112819506D01*
X175262955Y-112859895D01*
G37*
G36*
X188733339Y-112859895D02*
G01*
X188901250Y-112929446D01*
X188924610Y-112939122D01*
X188930457Y-112943029D01*
X189096748Y-113054141D01*
X189243140Y-113200533D01*
X189358160Y-113372673D01*
X189437386Y-113563942D01*
X189477775Y-113766990D01*
X189477775Y-113974022D01*
X189437386Y-114177070D01*
X189390285Y-114290782D01*
X189358159Y-114368341D01*
X189243140Y-114540479D01*
X189096748Y-114686871D01*
X188924610Y-114801890D01*
X188924609Y-114801891D01*
X188924608Y-114801891D01*
X188733339Y-114881117D01*
X188530291Y-114921506D01*
X188323259Y-114921506D01*
X188120211Y-114881117D01*
X187928942Y-114801891D01*
X187928941Y-114801891D01*
X187928940Y-114801890D01*
X187756802Y-114686871D01*
X187610410Y-114540479D01*
X187495391Y-114368341D01*
X187463265Y-114290782D01*
X187416164Y-114177070D01*
X187375775Y-113974022D01*
X187375775Y-113766990D01*
X187416164Y-113563942D01*
X187495390Y-113372673D01*
X187610410Y-113200533D01*
X187756802Y-113054141D01*
X187923093Y-112943029D01*
X187928940Y-112939122D01*
X187952300Y-112929446D01*
X188120211Y-112859895D01*
X188323259Y-112819506D01*
X188530291Y-112819506D01*
X188733339Y-112859895D01*
G37*
G36*
X144880244Y-112965288D02*
G01*
X145042812Y-112997624D01*
X145206784Y-113065544D01*
X145354354Y-113164147D01*
X145479853Y-113289646D01*
X145578456Y-113437216D01*
X145646376Y-113601188D01*
X145668283Y-113711326D01*
X145677748Y-113758907D01*
X145681000Y-113775259D01*
X145681000Y-113952741D01*
X145646376Y-114126812D01*
X145578456Y-114290784D01*
X145479853Y-114438354D01*
X145354354Y-114563853D01*
X145206784Y-114662456D01*
X145042812Y-114730376D01*
X144898835Y-114759014D01*
X144868742Y-114765000D01*
X144691258Y-114765000D01*
X144661165Y-114759014D01*
X144517188Y-114730376D01*
X144353216Y-114662456D01*
X144205646Y-114563853D01*
X144080147Y-114438354D01*
X143981544Y-114290784D01*
X143913624Y-114126812D01*
X143879000Y-113952741D01*
X143879000Y-113775259D01*
X143882253Y-113758907D01*
X143891717Y-113711326D01*
X143913624Y-113601188D01*
X143981544Y-113437216D01*
X144080147Y-113289646D01*
X144205646Y-113164147D01*
X144353216Y-113065544D01*
X144517188Y-112997624D01*
X144679756Y-112965288D01*
X144691258Y-112963000D01*
X144868742Y-112963000D01*
X144880244Y-112965288D01*
G37*
G36*
X192119648Y-112888042D02*
G01*
X192157341Y-112899476D01*
X192192077Y-112918043D01*
X192222522Y-112943029D01*
X192247508Y-112973474D01*
X192266075Y-113008210D01*
X192277509Y-113045903D01*
X192281974Y-113091238D01*
X192281974Y-113927916D01*
X192277509Y-113973251D01*
X192266075Y-114010944D01*
X192247508Y-114045680D01*
X192222522Y-114076125D01*
X192192077Y-114101111D01*
X192157341Y-114119678D01*
X192119648Y-114131112D01*
X192074313Y-114135577D01*
X190987635Y-114135577D01*
X190942300Y-114131112D01*
X190904607Y-114119678D01*
X190869871Y-114101111D01*
X190839426Y-114076125D01*
X190814440Y-114045680D01*
X190795873Y-114010944D01*
X190784439Y-113973251D01*
X190779974Y-113927916D01*
X190779974Y-113091238D01*
X190784439Y-113045903D01*
X190795873Y-113008210D01*
X190814440Y-112973474D01*
X190839426Y-112943029D01*
X190869871Y-112918043D01*
X190904607Y-112899476D01*
X190942300Y-112888042D01*
X190987635Y-112883577D01*
X192074313Y-112883577D01*
X192119648Y-112888042D01*
G37*
G36*
X180508802Y-112697580D02*
G01*
X180546495Y-112709014D01*
X180581231Y-112727581D01*
X180611676Y-112752567D01*
X180636662Y-112783012D01*
X180655229Y-112817748D01*
X180666663Y-112855441D01*
X180671128Y-112900776D01*
X180671128Y-113737454D01*
X180666663Y-113782789D01*
X180655229Y-113820482D01*
X180636662Y-113855218D01*
X180611676Y-113885663D01*
X180581231Y-113910649D01*
X180546495Y-113929216D01*
X180508802Y-113940650D01*
X180463467Y-113945115D01*
X179376789Y-113945115D01*
X179331454Y-113940650D01*
X179293761Y-113929216D01*
X179259025Y-113910649D01*
X179228580Y-113885663D01*
X179203594Y-113855218D01*
X179185027Y-113820482D01*
X179173593Y-113782789D01*
X179169128Y-113737454D01*
X179169128Y-112900776D01*
X179173593Y-112855441D01*
X179185027Y-112817748D01*
X179203594Y-112783012D01*
X179228580Y-112752567D01*
X179259025Y-112727581D01*
X179293761Y-112709014D01*
X179331454Y-112697580D01*
X179376789Y-112693115D01*
X180463467Y-112693115D01*
X180508802Y-112697580D01*
G37*
G36*
X183412360Y-111816912D02*
G01*
X183603629Y-111896138D01*
X183603631Y-111896139D01*
X183775769Y-112011158D01*
X183922161Y-112157550D01*
X183941695Y-112186784D01*
X184037181Y-112329690D01*
X184116407Y-112520959D01*
X184156796Y-112724007D01*
X184156796Y-112931039D01*
X184116407Y-113134087D01*
X184051972Y-113289647D01*
X184037180Y-113325358D01*
X183922161Y-113497496D01*
X183775769Y-113643888D01*
X183603631Y-113758907D01*
X183603630Y-113758908D01*
X183603629Y-113758908D01*
X183412360Y-113838134D01*
X183209312Y-113878523D01*
X183002280Y-113878523D01*
X182799232Y-113838134D01*
X182607963Y-113758908D01*
X182607962Y-113758908D01*
X182607961Y-113758907D01*
X182435823Y-113643888D01*
X182289431Y-113497496D01*
X182174412Y-113325358D01*
X182159620Y-113289647D01*
X182095185Y-113134087D01*
X182054796Y-112931039D01*
X182054796Y-112724007D01*
X182095185Y-112520959D01*
X182174411Y-112329690D01*
X182269898Y-112186784D01*
X182289431Y-112157550D01*
X182435823Y-112011158D01*
X182607961Y-111896139D01*
X182607963Y-111896138D01*
X182799232Y-111816912D01*
X183002280Y-111776523D01*
X183209312Y-111776523D01*
X183412360Y-111816912D01*
G37*
G36*
X177302225Y-111541003D02*
G01*
X177339918Y-111552437D01*
X177374654Y-111571004D01*
X177405099Y-111595990D01*
X177430085Y-111626435D01*
X177448652Y-111661171D01*
X177460086Y-111698864D01*
X177464551Y-111744199D01*
X177464551Y-112580877D01*
X177460086Y-112626212D01*
X177448652Y-112663905D01*
X177430085Y-112698641D01*
X177405099Y-112729086D01*
X177374654Y-112754072D01*
X177339918Y-112772639D01*
X177302225Y-112784073D01*
X177256890Y-112788538D01*
X176170212Y-112788538D01*
X176124877Y-112784073D01*
X176087184Y-112772639D01*
X176052448Y-112754072D01*
X176022003Y-112729086D01*
X175997017Y-112698641D01*
X175978450Y-112663905D01*
X175967016Y-112626212D01*
X175962551Y-112580877D01*
X175962551Y-111744199D01*
X175967016Y-111698864D01*
X175978450Y-111661171D01*
X175997017Y-111626435D01*
X176022003Y-111595990D01*
X176052448Y-111571004D01*
X176087184Y-111552437D01*
X176124877Y-111541003D01*
X176170212Y-111536538D01*
X177256890Y-111536538D01*
X177302225Y-111541003D01*
G37*
G36*
X129425000Y-112661000D02*
G01*
X127623000Y-112661000D01*
X127623000Y-110859000D01*
X129425000Y-110859000D01*
X129425000Y-112661000D01*
G37*
G36*
X131177512Y-110863927D02*
G01*
X131326812Y-110893624D01*
X131490784Y-110961544D01*
X131638354Y-111060147D01*
X131763853Y-111185646D01*
X131862456Y-111333216D01*
X131930376Y-111497188D01*
X131950028Y-111595990D01*
X131962994Y-111661171D01*
X131965000Y-111671259D01*
X131965000Y-111848741D01*
X131930376Y-112022812D01*
X131862456Y-112186784D01*
X131763853Y-112334354D01*
X131638354Y-112459853D01*
X131490784Y-112558456D01*
X131326812Y-112626376D01*
X131177512Y-112656073D01*
X131152742Y-112661000D01*
X130975258Y-112661000D01*
X130950488Y-112656073D01*
X130801188Y-112626376D01*
X130637216Y-112558456D01*
X130489646Y-112459853D01*
X130364147Y-112334354D01*
X130265544Y-112186784D01*
X130197624Y-112022812D01*
X130163000Y-111848741D01*
X130163000Y-111671259D01*
X130165007Y-111661171D01*
X130177972Y-111595990D01*
X130197624Y-111497188D01*
X130265544Y-111333216D01*
X130364147Y-111185646D01*
X130489646Y-111060147D01*
X130637216Y-110961544D01*
X130801188Y-110893624D01*
X130950488Y-110863927D01*
X130975258Y-110859000D01*
X131152742Y-110859000D01*
X131177512Y-110863927D01*
G37*
G36*
X133717512Y-110863927D02*
G01*
X133866812Y-110893624D01*
X134030784Y-110961544D01*
X134178354Y-111060147D01*
X134303853Y-111185646D01*
X134402456Y-111333216D01*
X134470376Y-111497188D01*
X134490028Y-111595990D01*
X134502994Y-111661171D01*
X134505000Y-111671259D01*
X134505000Y-111848741D01*
X134470376Y-112022812D01*
X134402456Y-112186784D01*
X134303853Y-112334354D01*
X134178354Y-112459853D01*
X134030784Y-112558456D01*
X133866812Y-112626376D01*
X133717512Y-112656073D01*
X133692742Y-112661000D01*
X133515258Y-112661000D01*
X133490488Y-112656073D01*
X133341188Y-112626376D01*
X133177216Y-112558456D01*
X133029646Y-112459853D01*
X132904147Y-112334354D01*
X132805544Y-112186784D01*
X132737624Y-112022812D01*
X132703000Y-111848741D01*
X132703000Y-111671259D01*
X132705007Y-111661171D01*
X132717972Y-111595990D01*
X132737624Y-111497188D01*
X132805544Y-111333216D01*
X132904147Y-111185646D01*
X133029646Y-111060147D01*
X133177216Y-110961544D01*
X133341188Y-110893624D01*
X133490488Y-110863927D01*
X133515258Y-110859000D01*
X133692742Y-110859000D01*
X133717512Y-110863927D01*
G37*
G36*
X165053674Y-111020465D02*
G01*
X165091367Y-111031899D01*
X165126103Y-111050466D01*
X165156548Y-111075452D01*
X165181534Y-111105897D01*
X165200101Y-111140633D01*
X165211535Y-111178326D01*
X165216000Y-111223661D01*
X165216000Y-112060339D01*
X165211535Y-112105674D01*
X165200101Y-112143367D01*
X165181534Y-112178103D01*
X165156548Y-112208548D01*
X165126103Y-112233534D01*
X165091367Y-112252101D01*
X165053674Y-112263535D01*
X165008339Y-112268000D01*
X163921661Y-112268000D01*
X163876326Y-112263535D01*
X163838633Y-112252101D01*
X163803897Y-112233534D01*
X163773452Y-112208548D01*
X163748466Y-112178103D01*
X163729899Y-112143367D01*
X163718465Y-112105674D01*
X163714000Y-112060339D01*
X163714000Y-111223661D01*
X163718465Y-111178326D01*
X163729899Y-111140633D01*
X163748466Y-111105897D01*
X163773452Y-111075452D01*
X163803897Y-111050466D01*
X163838633Y-111031899D01*
X163876326Y-111020465D01*
X163921661Y-111016000D01*
X165008339Y-111016000D01*
X165053674Y-111020465D01*
G37*
G36*
X161243674Y-111020465D02*
G01*
X161281367Y-111031899D01*
X161316103Y-111050466D01*
X161346548Y-111075452D01*
X161371534Y-111105897D01*
X161390101Y-111140633D01*
X161401535Y-111178326D01*
X161406000Y-111223661D01*
X161406000Y-112060339D01*
X161401535Y-112105674D01*
X161390101Y-112143367D01*
X161371534Y-112178103D01*
X161346548Y-112208548D01*
X161316103Y-112233534D01*
X161281367Y-112252101D01*
X161243674Y-112263535D01*
X161198339Y-112268000D01*
X160111661Y-112268000D01*
X160066326Y-112263535D01*
X160028633Y-112252101D01*
X159993897Y-112233534D01*
X159963452Y-112208548D01*
X159938466Y-112178103D01*
X159919899Y-112143367D01*
X159908465Y-112105674D01*
X159904000Y-112060339D01*
X159904000Y-111223661D01*
X159908465Y-111178326D01*
X159919899Y-111140633D01*
X159938466Y-111105897D01*
X159963452Y-111075452D01*
X159993897Y-111050466D01*
X160028633Y-111031899D01*
X160066326Y-111020465D01*
X160111661Y-111016000D01*
X161198339Y-111016000D01*
X161243674Y-111020465D01*
G37*
G36*
X157433674Y-111020465D02*
G01*
X157471367Y-111031899D01*
X157506103Y-111050466D01*
X157536548Y-111075452D01*
X157561534Y-111105897D01*
X157580101Y-111140633D01*
X157591535Y-111178326D01*
X157596000Y-111223661D01*
X157596000Y-112060339D01*
X157591535Y-112105674D01*
X157580101Y-112143367D01*
X157561534Y-112178103D01*
X157536548Y-112208548D01*
X157506103Y-112233534D01*
X157471367Y-112252101D01*
X157433674Y-112263535D01*
X157388339Y-112268000D01*
X156301661Y-112268000D01*
X156256326Y-112263535D01*
X156218633Y-112252101D01*
X156183897Y-112233534D01*
X156153452Y-112208548D01*
X156128466Y-112178103D01*
X156109899Y-112143367D01*
X156098465Y-112105674D01*
X156094000Y-112060339D01*
X156094000Y-111223661D01*
X156098465Y-111178326D01*
X156109899Y-111140633D01*
X156128466Y-111105897D01*
X156153452Y-111075452D01*
X156183897Y-111050466D01*
X156218633Y-111031899D01*
X156256326Y-111020465D01*
X156301661Y-111016000D01*
X157388339Y-111016000D01*
X157433674Y-111020465D01*
G37*
G36*
X192119648Y-110838042D02*
G01*
X192157341Y-110849476D01*
X192192077Y-110868043D01*
X192222522Y-110893029D01*
X192247508Y-110923474D01*
X192266075Y-110958210D01*
X192277509Y-110995903D01*
X192281974Y-111041238D01*
X192281974Y-111877916D01*
X192277509Y-111923251D01*
X192266075Y-111960944D01*
X192247508Y-111995680D01*
X192222522Y-112026125D01*
X192192077Y-112051111D01*
X192157341Y-112069678D01*
X192119648Y-112081112D01*
X192074313Y-112085577D01*
X190987635Y-112085577D01*
X190942300Y-112081112D01*
X190904607Y-112069678D01*
X190869871Y-112051111D01*
X190839426Y-112026125D01*
X190814440Y-111995680D01*
X190795873Y-111960944D01*
X190784439Y-111923251D01*
X190779974Y-111877916D01*
X190779974Y-111041238D01*
X190784439Y-110995903D01*
X190795873Y-110958210D01*
X190814440Y-110923474D01*
X190839426Y-110893029D01*
X190869871Y-110868043D01*
X190904607Y-110849476D01*
X190942300Y-110838042D01*
X190987635Y-110833577D01*
X192074313Y-110833577D01*
X192119648Y-110838042D01*
G37*
G36*
X185551358Y-109677914D02*
G01*
X185742627Y-109757140D01*
X185742629Y-109757141D01*
X185914767Y-109872160D01*
X186061159Y-110018552D01*
X186171397Y-110183534D01*
X186176179Y-110190692D01*
X186255405Y-110381961D01*
X186295794Y-110585009D01*
X186295794Y-110792041D01*
X186255405Y-110995089D01*
X186176179Y-111186358D01*
X186176178Y-111186360D01*
X186061159Y-111358498D01*
X185914767Y-111504890D01*
X185742629Y-111619909D01*
X185742628Y-111619910D01*
X185742627Y-111619910D01*
X185551358Y-111699136D01*
X185348310Y-111739525D01*
X185141278Y-111739525D01*
X184938230Y-111699136D01*
X184746961Y-111619910D01*
X184746960Y-111619910D01*
X184746959Y-111619909D01*
X184574821Y-111504890D01*
X184428429Y-111358498D01*
X184313410Y-111186360D01*
X184313409Y-111186358D01*
X184234183Y-110995089D01*
X184193794Y-110792041D01*
X184193794Y-110585009D01*
X184234183Y-110381961D01*
X184313409Y-110190692D01*
X184318192Y-110183534D01*
X184428429Y-110018552D01*
X184574821Y-109872160D01*
X184746959Y-109757141D01*
X184746961Y-109757140D01*
X184938230Y-109677914D01*
X185141278Y-109637525D01*
X185348310Y-109637525D01*
X185551358Y-109677914D01*
G37*
G36*
X172080974Y-109677914D02*
G01*
X172272243Y-109757140D01*
X172272245Y-109757141D01*
X172444383Y-109872160D01*
X172590775Y-110018552D01*
X172701013Y-110183534D01*
X172705795Y-110190692D01*
X172785021Y-110381961D01*
X172825410Y-110585009D01*
X172825410Y-110792041D01*
X172785021Y-110995089D01*
X172705795Y-111186358D01*
X172705794Y-111186360D01*
X172590775Y-111358498D01*
X172444383Y-111504890D01*
X172272245Y-111619909D01*
X172272244Y-111619910D01*
X172272243Y-111619910D01*
X172080974Y-111699136D01*
X171877926Y-111739525D01*
X171670894Y-111739525D01*
X171467846Y-111699136D01*
X171276577Y-111619910D01*
X171276576Y-111619910D01*
X171276575Y-111619909D01*
X171104437Y-111504890D01*
X170958045Y-111358498D01*
X170843026Y-111186360D01*
X170843025Y-111186358D01*
X170763799Y-110995089D01*
X170723410Y-110792041D01*
X170723410Y-110585009D01*
X170763799Y-110381961D01*
X170843025Y-110190692D01*
X170847808Y-110183534D01*
X170958045Y-110018552D01*
X171104437Y-109872160D01*
X171276575Y-109757141D01*
X171276577Y-109757140D01*
X171467846Y-109677914D01*
X171670894Y-109637525D01*
X171877926Y-109637525D01*
X172080974Y-109677914D01*
G37*
G36*
X148028674Y-109743465D02*
G01*
X148066367Y-109754899D01*
X148101103Y-109773466D01*
X148131548Y-109798452D01*
X148156534Y-109828897D01*
X148175101Y-109863633D01*
X148186535Y-109901326D01*
X148191000Y-109946661D01*
X148191000Y-111033339D01*
X148186535Y-111078674D01*
X148175101Y-111116367D01*
X148156534Y-111151103D01*
X148131548Y-111181548D01*
X148101103Y-111206534D01*
X148066367Y-111225101D01*
X148028674Y-111236535D01*
X147983339Y-111241000D01*
X147146661Y-111241000D01*
X147101326Y-111236535D01*
X147063633Y-111225101D01*
X147028897Y-111206534D01*
X146998452Y-111181548D01*
X146973466Y-111151103D01*
X146954899Y-111116367D01*
X146943465Y-111078674D01*
X146939000Y-111033339D01*
X146939000Y-109946661D01*
X146943465Y-109901326D01*
X146954899Y-109863633D01*
X146973466Y-109828897D01*
X146998452Y-109798452D01*
X147028897Y-109773466D01*
X147063633Y-109754899D01*
X147101326Y-109743465D01*
X147146661Y-109739000D01*
X147983339Y-109739000D01*
X148028674Y-109743465D01*
G37*
G36*
X142458674Y-109743465D02*
G01*
X142496367Y-109754899D01*
X142531103Y-109773466D01*
X142561548Y-109798452D01*
X142586534Y-109828897D01*
X142605101Y-109863633D01*
X142616535Y-109901326D01*
X142621000Y-109946661D01*
X142621000Y-111033339D01*
X142616535Y-111078674D01*
X142605101Y-111116367D01*
X142586534Y-111151103D01*
X142561548Y-111181548D01*
X142531103Y-111206534D01*
X142496367Y-111225101D01*
X142458674Y-111236535D01*
X142413339Y-111241000D01*
X141576661Y-111241000D01*
X141531326Y-111236535D01*
X141493633Y-111225101D01*
X141458897Y-111206534D01*
X141428452Y-111181548D01*
X141403466Y-111151103D01*
X141384899Y-111116367D01*
X141373465Y-111078674D01*
X141369000Y-111033339D01*
X141369000Y-109946661D01*
X141373465Y-109901326D01*
X141384899Y-109863633D01*
X141403466Y-109828897D01*
X141428452Y-109798452D01*
X141458897Y-109773466D01*
X141493633Y-109754899D01*
X141531326Y-109743465D01*
X141576661Y-109739000D01*
X142413339Y-109739000D01*
X142458674Y-109743465D01*
G37*
G36*
X140408674Y-109743465D02*
G01*
X140446367Y-109754899D01*
X140481103Y-109773466D01*
X140511548Y-109798452D01*
X140536534Y-109828897D01*
X140555101Y-109863633D01*
X140566535Y-109901326D01*
X140571000Y-109946661D01*
X140571000Y-111033339D01*
X140566535Y-111078674D01*
X140555101Y-111116367D01*
X140536534Y-111151103D01*
X140511548Y-111181548D01*
X140481103Y-111206534D01*
X140446367Y-111225101D01*
X140408674Y-111236535D01*
X140363339Y-111241000D01*
X139526661Y-111241000D01*
X139481326Y-111236535D01*
X139443633Y-111225101D01*
X139408897Y-111206534D01*
X139378452Y-111181548D01*
X139353466Y-111151103D01*
X139334899Y-111116367D01*
X139323465Y-111078674D01*
X139319000Y-111033339D01*
X139319000Y-109946661D01*
X139323465Y-109901326D01*
X139334899Y-109863633D01*
X139353466Y-109828897D01*
X139378452Y-109798452D01*
X139408897Y-109773466D01*
X139443633Y-109754899D01*
X139481326Y-109743465D01*
X139526661Y-109739000D01*
X140363339Y-109739000D01*
X140408674Y-109743465D01*
G37*
G36*
X150078674Y-109743465D02*
G01*
X150116367Y-109754899D01*
X150151103Y-109773466D01*
X150181548Y-109798452D01*
X150206534Y-109828897D01*
X150225101Y-109863633D01*
X150236535Y-109901326D01*
X150241000Y-109946661D01*
X150241000Y-111033339D01*
X150236535Y-111078674D01*
X150225101Y-111116367D01*
X150206534Y-111151103D01*
X150181548Y-111181548D01*
X150151103Y-111206534D01*
X150116367Y-111225101D01*
X150078674Y-111236535D01*
X150033339Y-111241000D01*
X149196661Y-111241000D01*
X149151326Y-111236535D01*
X149113633Y-111225101D01*
X149078897Y-111206534D01*
X149048452Y-111181548D01*
X149023466Y-111151103D01*
X149004899Y-111116367D01*
X148993465Y-111078674D01*
X148989000Y-111033339D01*
X148989000Y-109946661D01*
X148993465Y-109901326D01*
X149004899Y-109863633D01*
X149023466Y-109828897D01*
X149048452Y-109798452D01*
X149078897Y-109773466D01*
X149113633Y-109754899D01*
X149151326Y-109743465D01*
X149196661Y-109739000D01*
X150033339Y-109739000D01*
X150078674Y-109743465D01*
G37*
G36*
X188976558Y-109744952D02*
G01*
X189014251Y-109756386D01*
X189048987Y-109774953D01*
X189079432Y-109799939D01*
X189104418Y-109830384D01*
X189122985Y-109865120D01*
X189134419Y-109902813D01*
X189138884Y-109948148D01*
X189138884Y-110784826D01*
X189134419Y-110830161D01*
X189122985Y-110867854D01*
X189104418Y-110902590D01*
X189079432Y-110933035D01*
X189048987Y-110958021D01*
X189014251Y-110976588D01*
X188976558Y-110988022D01*
X188931223Y-110992487D01*
X187844545Y-110992487D01*
X187799210Y-110988022D01*
X187761517Y-110976588D01*
X187726781Y-110958021D01*
X187696336Y-110933035D01*
X187671350Y-110902590D01*
X187652783Y-110867854D01*
X187641349Y-110830161D01*
X187636884Y-110784826D01*
X187636884Y-109948148D01*
X187641349Y-109902813D01*
X187652783Y-109865120D01*
X187671350Y-109830384D01*
X187696336Y-109799939D01*
X187726781Y-109774953D01*
X187761517Y-109756386D01*
X187799210Y-109744952D01*
X187844545Y-109740487D01*
X188931223Y-109740487D01*
X188976558Y-109744952D01*
G37*
G36*
X177302225Y-109491003D02*
G01*
X177339918Y-109502437D01*
X177374654Y-109521004D01*
X177405099Y-109545990D01*
X177430085Y-109576435D01*
X177448652Y-109611171D01*
X177460086Y-109648864D01*
X177464551Y-109694199D01*
X177464551Y-110530877D01*
X177460086Y-110576212D01*
X177448652Y-110613905D01*
X177430085Y-110648641D01*
X177405099Y-110679086D01*
X177374654Y-110704072D01*
X177339918Y-110722639D01*
X177302225Y-110734073D01*
X177256890Y-110738538D01*
X176170212Y-110738538D01*
X176124877Y-110734073D01*
X176087184Y-110722639D01*
X176052448Y-110704072D01*
X176022003Y-110679086D01*
X175997017Y-110648641D01*
X175978450Y-110613905D01*
X175967016Y-110576212D01*
X175962551Y-110530877D01*
X175962551Y-109694199D01*
X175967016Y-109648864D01*
X175978450Y-109611171D01*
X175997017Y-109576435D01*
X176022003Y-109545990D01*
X176052448Y-109521004D01*
X176087184Y-109502437D01*
X176124877Y-109491003D01*
X176170212Y-109486538D01*
X177256890Y-109486538D01*
X177302225Y-109491003D01*
G37*
G36*
X179859149Y-108263700D02*
G01*
X180050418Y-108342926D01*
X180050420Y-108342927D01*
X180222558Y-108457946D01*
X180368950Y-108604338D01*
X180482629Y-108774470D01*
X180483970Y-108776478D01*
X180563196Y-108967747D01*
X180603585Y-109170795D01*
X180603585Y-109377827D01*
X180563196Y-109580875D01*
X180495849Y-109743465D01*
X180483969Y-109772146D01*
X180368950Y-109944284D01*
X180222558Y-110090676D01*
X180050420Y-110205695D01*
X180050419Y-110205696D01*
X180050418Y-110205696D01*
X179859149Y-110284922D01*
X179656101Y-110325311D01*
X179449069Y-110325311D01*
X179246021Y-110284922D01*
X179054752Y-110205696D01*
X179054751Y-110205696D01*
X179054750Y-110205695D01*
X178882612Y-110090676D01*
X178736220Y-109944284D01*
X178621201Y-109772146D01*
X178609321Y-109743465D01*
X178541974Y-109580875D01*
X178501585Y-109377827D01*
X178501585Y-109170795D01*
X178541974Y-108967747D01*
X178621200Y-108776478D01*
X178622542Y-108774470D01*
X178736220Y-108604338D01*
X178882612Y-108457946D01*
X179054750Y-108342927D01*
X179054752Y-108342926D01*
X179246021Y-108263700D01*
X179449069Y-108223311D01*
X179656101Y-108223311D01*
X179859149Y-108263700D01*
G37*
G36*
X193329533Y-108263700D02*
G01*
X193520802Y-108342926D01*
X193520804Y-108342927D01*
X193692942Y-108457946D01*
X193839334Y-108604338D01*
X193953013Y-108774470D01*
X193954354Y-108776478D01*
X194033580Y-108967747D01*
X194073969Y-109170795D01*
X194073969Y-109377827D01*
X194033580Y-109580875D01*
X193966233Y-109743465D01*
X193954353Y-109772146D01*
X193839334Y-109944284D01*
X193692942Y-110090676D01*
X193520804Y-110205695D01*
X193520803Y-110205696D01*
X193520802Y-110205696D01*
X193329533Y-110284922D01*
X193126485Y-110325311D01*
X192919453Y-110325311D01*
X192716405Y-110284922D01*
X192525136Y-110205696D01*
X192525135Y-110205696D01*
X192525134Y-110205695D01*
X192352996Y-110090676D01*
X192206604Y-109944284D01*
X192091585Y-109772146D01*
X192079705Y-109743465D01*
X192012358Y-109580875D01*
X191971969Y-109377827D01*
X191971969Y-109170795D01*
X192012358Y-108967747D01*
X192091584Y-108776478D01*
X192092926Y-108774470D01*
X192206604Y-108604338D01*
X192352996Y-108457946D01*
X192525134Y-108342927D01*
X192525136Y-108342926D01*
X192716405Y-108263700D01*
X192919453Y-108223311D01*
X193126485Y-108223311D01*
X193329533Y-108263700D01*
G37*
G36*
X165053674Y-108970465D02*
G01*
X165091367Y-108981899D01*
X165126103Y-109000466D01*
X165156548Y-109025452D01*
X165181534Y-109055897D01*
X165200101Y-109090633D01*
X165211535Y-109128326D01*
X165216000Y-109173661D01*
X165216000Y-110010339D01*
X165211535Y-110055674D01*
X165200101Y-110093367D01*
X165181534Y-110128103D01*
X165156548Y-110158548D01*
X165126103Y-110183534D01*
X165091367Y-110202101D01*
X165053674Y-110213535D01*
X165008339Y-110218000D01*
X163921661Y-110218000D01*
X163876326Y-110213535D01*
X163838633Y-110202101D01*
X163803897Y-110183534D01*
X163773452Y-110158548D01*
X163748466Y-110128103D01*
X163729899Y-110093367D01*
X163718465Y-110055674D01*
X163714000Y-110010339D01*
X163714000Y-109173661D01*
X163718465Y-109128326D01*
X163729899Y-109090633D01*
X163748466Y-109055897D01*
X163773452Y-109025452D01*
X163803897Y-109000466D01*
X163838633Y-108981899D01*
X163876326Y-108970465D01*
X163921661Y-108966000D01*
X165008339Y-108966000D01*
X165053674Y-108970465D01*
G37*
G36*
X161243674Y-108970465D02*
G01*
X161281367Y-108981899D01*
X161316103Y-109000466D01*
X161346548Y-109025452D01*
X161371534Y-109055897D01*
X161390101Y-109090633D01*
X161401535Y-109128326D01*
X161406000Y-109173661D01*
X161406000Y-110010339D01*
X161401535Y-110055674D01*
X161390101Y-110093367D01*
X161371534Y-110128103D01*
X161346548Y-110158548D01*
X161316103Y-110183534D01*
X161281367Y-110202101D01*
X161243674Y-110213535D01*
X161198339Y-110218000D01*
X160111661Y-110218000D01*
X160066326Y-110213535D01*
X160028633Y-110202101D01*
X159993897Y-110183534D01*
X159963452Y-110158548D01*
X159938466Y-110128103D01*
X159919899Y-110093367D01*
X159908465Y-110055674D01*
X159904000Y-110010339D01*
X159904000Y-109173661D01*
X159908465Y-109128326D01*
X159919899Y-109090633D01*
X159938466Y-109055897D01*
X159963452Y-109025452D01*
X159993897Y-109000466D01*
X160028633Y-108981899D01*
X160066326Y-108970465D01*
X160111661Y-108966000D01*
X161198339Y-108966000D01*
X161243674Y-108970465D01*
G37*
G36*
X157433674Y-108970465D02*
G01*
X157471367Y-108981899D01*
X157506103Y-109000466D01*
X157536548Y-109025452D01*
X157561534Y-109055897D01*
X157580101Y-109090633D01*
X157591535Y-109128326D01*
X157596000Y-109173661D01*
X157596000Y-110010339D01*
X157591535Y-110055674D01*
X157580101Y-110093367D01*
X157561534Y-110128103D01*
X157536548Y-110158548D01*
X157506103Y-110183534D01*
X157471367Y-110202101D01*
X157433674Y-110213535D01*
X157388339Y-110218000D01*
X156301661Y-110218000D01*
X156256326Y-110213535D01*
X156218633Y-110202101D01*
X156183897Y-110183534D01*
X156153452Y-110158548D01*
X156128466Y-110128103D01*
X156109899Y-110093367D01*
X156098465Y-110055674D01*
X156094000Y-110010339D01*
X156094000Y-109173661D01*
X156098465Y-109128326D01*
X156109899Y-109090633D01*
X156128466Y-109055897D01*
X156153452Y-109025452D01*
X156183897Y-109000466D01*
X156218633Y-108981899D01*
X156256326Y-108970465D01*
X156301661Y-108966000D01*
X157388339Y-108966000D01*
X157433674Y-108970465D01*
G37*
G36*
X174159135Y-108397913D02*
G01*
X174196828Y-108409347D01*
X174231564Y-108427914D01*
X174262009Y-108452900D01*
X174286995Y-108483345D01*
X174305562Y-108518081D01*
X174316996Y-108555774D01*
X174321461Y-108601109D01*
X174321461Y-109437787D01*
X174316996Y-109483122D01*
X174305562Y-109520815D01*
X174286995Y-109555551D01*
X174262009Y-109585996D01*
X174231564Y-109610982D01*
X174196828Y-109629549D01*
X174159135Y-109640983D01*
X174113800Y-109645448D01*
X173027122Y-109645448D01*
X172981787Y-109640983D01*
X172944094Y-109629549D01*
X172909358Y-109610982D01*
X172878913Y-109585996D01*
X172853927Y-109555551D01*
X172835360Y-109520815D01*
X172823926Y-109483122D01*
X172819461Y-109437787D01*
X172819461Y-108601109D01*
X172823926Y-108555774D01*
X172835360Y-108518081D01*
X172853927Y-108483345D01*
X172878913Y-108452900D01*
X172909358Y-108427914D01*
X172944094Y-108409347D01*
X172981787Y-108397913D01*
X173027122Y-108393448D01*
X174113800Y-108393448D01*
X174159135Y-108397913D01*
G37*
G36*
X188976558Y-107694952D02*
G01*
X189014251Y-107706386D01*
X189048987Y-107724953D01*
X189079432Y-107749939D01*
X189104418Y-107780384D01*
X189122985Y-107815120D01*
X189134419Y-107852813D01*
X189138884Y-107898148D01*
X189138884Y-108734826D01*
X189134419Y-108780161D01*
X189122985Y-108817854D01*
X189104418Y-108852590D01*
X189079432Y-108883035D01*
X189048987Y-108908021D01*
X189014251Y-108926588D01*
X188976558Y-108938022D01*
X188931223Y-108942487D01*
X187844545Y-108942487D01*
X187799210Y-108938022D01*
X187761517Y-108926588D01*
X187726781Y-108908021D01*
X187696336Y-108883035D01*
X187671350Y-108852590D01*
X187652783Y-108817854D01*
X187641349Y-108780161D01*
X187636884Y-108734826D01*
X187636884Y-107898148D01*
X187641349Y-107852813D01*
X187652783Y-107815120D01*
X187671350Y-107780384D01*
X187696336Y-107749939D01*
X187726781Y-107724953D01*
X187761517Y-107706386D01*
X187799210Y-107694952D01*
X187844545Y-107690487D01*
X188931223Y-107690487D01*
X188976558Y-107694952D01*
G37*
G36*
X128978674Y-107203465D02*
G01*
X129016367Y-107214899D01*
X129051103Y-107233466D01*
X129081548Y-107258452D01*
X129106534Y-107288897D01*
X129125101Y-107323633D01*
X129136535Y-107361326D01*
X129141000Y-107406661D01*
X129141000Y-108493339D01*
X129136535Y-108538674D01*
X129125101Y-108576367D01*
X129106534Y-108611103D01*
X129081548Y-108641548D01*
X129051103Y-108666534D01*
X129016367Y-108685101D01*
X128978674Y-108696535D01*
X128933339Y-108701000D01*
X128096661Y-108701000D01*
X128051326Y-108696535D01*
X128013633Y-108685101D01*
X127978897Y-108666534D01*
X127948452Y-108641548D01*
X127923466Y-108611103D01*
X127904899Y-108576367D01*
X127893465Y-108538674D01*
X127889000Y-108493339D01*
X127889000Y-107406661D01*
X127893465Y-107361326D01*
X127904899Y-107323633D01*
X127923466Y-107288897D01*
X127948452Y-107258452D01*
X127978897Y-107233466D01*
X128013633Y-107214899D01*
X128051326Y-107203465D01*
X128096661Y-107199000D01*
X128933339Y-107199000D01*
X128978674Y-107203465D01*
G37*
G36*
X131028674Y-107203465D02*
G01*
X131066367Y-107214899D01*
X131101103Y-107233466D01*
X131131548Y-107258452D01*
X131156534Y-107288897D01*
X131175101Y-107323633D01*
X131186535Y-107361326D01*
X131191000Y-107406661D01*
X131191000Y-108493339D01*
X131186535Y-108538674D01*
X131175101Y-108576367D01*
X131156534Y-108611103D01*
X131131548Y-108641548D01*
X131101103Y-108666534D01*
X131066367Y-108685101D01*
X131028674Y-108696535D01*
X130983339Y-108701000D01*
X130146661Y-108701000D01*
X130101326Y-108696535D01*
X130063633Y-108685101D01*
X130028897Y-108666534D01*
X129998452Y-108641548D01*
X129973466Y-108611103D01*
X129954899Y-108576367D01*
X129943465Y-108538674D01*
X129939000Y-108493339D01*
X129939000Y-107406661D01*
X129943465Y-107361326D01*
X129954899Y-107323633D01*
X129973466Y-107288897D01*
X129998452Y-107258452D01*
X130028897Y-107233466D01*
X130063633Y-107214899D01*
X130101326Y-107203465D01*
X130146661Y-107199000D01*
X130983339Y-107199000D01*
X131028674Y-107203465D01*
G37*
G36*
X181998147Y-106124703D02*
G01*
X182169899Y-106195845D01*
X182189418Y-106203930D01*
X182361556Y-106318949D01*
X182507948Y-106465341D01*
X182619215Y-106631863D01*
X182622968Y-106637481D01*
X182702194Y-106828750D01*
X182742583Y-107031798D01*
X182742583Y-107238830D01*
X182702194Y-107441878D01*
X182640433Y-107590983D01*
X182622967Y-107633149D01*
X182507948Y-107805287D01*
X182361556Y-107951679D01*
X182189418Y-108066698D01*
X182189417Y-108066699D01*
X182189416Y-108066699D01*
X181998147Y-108145925D01*
X181795099Y-108186314D01*
X181588067Y-108186314D01*
X181385019Y-108145925D01*
X181193750Y-108066699D01*
X181193749Y-108066699D01*
X181193748Y-108066698D01*
X181021610Y-107951679D01*
X180875218Y-107805287D01*
X180760199Y-107633149D01*
X180742733Y-107590983D01*
X180680972Y-107441878D01*
X180640583Y-107238830D01*
X180640583Y-107031798D01*
X180680972Y-106828750D01*
X180760198Y-106637481D01*
X180763952Y-106631863D01*
X180875218Y-106465341D01*
X181021610Y-106318949D01*
X181193748Y-106203930D01*
X181213267Y-106195845D01*
X181385019Y-106124703D01*
X181588067Y-106084314D01*
X181795099Y-106084314D01*
X181998147Y-106124703D01*
G37*
G36*
X185833468Y-106601862D02*
G01*
X185871161Y-106613296D01*
X185905897Y-106631863D01*
X185936342Y-106656849D01*
X185961328Y-106687294D01*
X185979895Y-106722030D01*
X185991329Y-106759723D01*
X185995794Y-106805058D01*
X185995794Y-107641736D01*
X185991329Y-107687071D01*
X185979895Y-107724764D01*
X185961328Y-107759500D01*
X185936342Y-107789945D01*
X185905897Y-107814931D01*
X185871161Y-107833498D01*
X185833468Y-107844932D01*
X185788133Y-107849397D01*
X184701455Y-107849397D01*
X184656120Y-107844932D01*
X184618427Y-107833498D01*
X184583691Y-107814931D01*
X184553246Y-107789945D01*
X184528260Y-107759500D01*
X184509693Y-107724764D01*
X184498259Y-107687071D01*
X184493794Y-107641736D01*
X184493794Y-106805058D01*
X184498259Y-106759723D01*
X184509693Y-106722030D01*
X184528260Y-106687294D01*
X184553246Y-106656849D01*
X184583691Y-106631863D01*
X184618427Y-106613296D01*
X184656120Y-106601862D01*
X184701455Y-106597397D01*
X185788133Y-106597397D01*
X185833468Y-106601862D01*
G37*
G36*
X174159135Y-106347913D02*
G01*
X174196828Y-106359347D01*
X174231564Y-106377914D01*
X174262009Y-106402900D01*
X174286995Y-106433345D01*
X174305562Y-106468081D01*
X174316996Y-106505774D01*
X174321461Y-106551109D01*
X174321461Y-107387787D01*
X174316996Y-107433122D01*
X174305562Y-107470815D01*
X174286995Y-107505551D01*
X174262009Y-107535996D01*
X174231564Y-107560982D01*
X174196828Y-107579549D01*
X174159135Y-107590983D01*
X174113800Y-107595448D01*
X173027122Y-107595448D01*
X172981787Y-107590983D01*
X172944094Y-107579549D01*
X172909358Y-107560982D01*
X172878913Y-107535996D01*
X172853927Y-107505551D01*
X172835360Y-107470815D01*
X172823926Y-107433122D01*
X172819461Y-107387787D01*
X172819461Y-106551109D01*
X172823926Y-106505774D01*
X172835360Y-106468081D01*
X172853927Y-106433345D01*
X172878913Y-106402900D01*
X172909358Y-106377914D01*
X172944094Y-106359347D01*
X172981787Y-106347913D01*
X173027122Y-106343448D01*
X174113800Y-106343448D01*
X174159135Y-106347913D01*
G37*
G36*
X199247355Y-105783498D02*
G01*
X199398812Y-105813624D01*
X199562784Y-105881544D01*
X199710354Y-105980147D01*
X199835853Y-106105646D01*
X199934456Y-106253216D01*
X200002376Y-106417188D01*
X200037000Y-106591259D01*
X200037000Y-106768741D01*
X200002376Y-106942812D01*
X199934456Y-107106784D01*
X199835853Y-107254354D01*
X199710354Y-107379853D01*
X199562784Y-107478456D01*
X199398812Y-107546376D01*
X199256263Y-107574730D01*
X199224742Y-107581000D01*
X199047258Y-107581000D01*
X199015737Y-107574730D01*
X198873188Y-107546376D01*
X198709216Y-107478456D01*
X198561646Y-107379853D01*
X198436147Y-107254354D01*
X198337544Y-107106784D01*
X198269624Y-106942812D01*
X198235000Y-106768741D01*
X198235000Y-106591259D01*
X198269624Y-106417188D01*
X198337544Y-106253216D01*
X198436147Y-106105646D01*
X198561646Y-105980147D01*
X198709216Y-105881544D01*
X198873188Y-105813624D01*
X199024645Y-105783498D01*
X199047258Y-105779000D01*
X199224742Y-105779000D01*
X199247355Y-105783498D01*
G37*
G36*
X176677168Y-105081720D02*
G01*
X176868437Y-105160946D01*
X176868439Y-105160947D01*
X177040577Y-105275966D01*
X177186969Y-105422358D01*
X177300144Y-105591736D01*
X177301989Y-105594498D01*
X177381215Y-105785767D01*
X177421604Y-105988815D01*
X177421604Y-106195847D01*
X177381215Y-106398895D01*
X177353692Y-106465341D01*
X177301988Y-106590166D01*
X177186969Y-106762304D01*
X177040577Y-106908696D01*
X176868439Y-107023715D01*
X176868438Y-107023716D01*
X176868437Y-107023716D01*
X176677168Y-107102942D01*
X176474120Y-107143331D01*
X176267088Y-107143331D01*
X176064040Y-107102942D01*
X175872771Y-107023716D01*
X175872770Y-107023716D01*
X175872769Y-107023715D01*
X175700631Y-106908696D01*
X175554239Y-106762304D01*
X175439220Y-106590166D01*
X175387516Y-106465341D01*
X175359993Y-106398895D01*
X175319604Y-106195847D01*
X175319604Y-105988815D01*
X175359993Y-105785767D01*
X175439219Y-105594498D01*
X175441065Y-105591736D01*
X175554239Y-105422358D01*
X175700631Y-105275966D01*
X175872769Y-105160947D01*
X175872771Y-105160946D01*
X176064040Y-105081720D01*
X176267088Y-105041331D01*
X176474120Y-105041331D01*
X176677168Y-105081720D01*
G37*
G36*
X190147552Y-105081720D02*
G01*
X190338821Y-105160946D01*
X190338823Y-105160947D01*
X190510961Y-105275966D01*
X190657353Y-105422358D01*
X190770528Y-105591736D01*
X190772373Y-105594498D01*
X190851599Y-105785767D01*
X190891988Y-105988815D01*
X190891988Y-106195847D01*
X190851599Y-106398895D01*
X190824076Y-106465341D01*
X190772372Y-106590166D01*
X190657353Y-106762304D01*
X190510961Y-106908696D01*
X190338823Y-107023715D01*
X190338822Y-107023716D01*
X190338821Y-107023716D01*
X190147552Y-107102942D01*
X189944504Y-107143331D01*
X189737472Y-107143331D01*
X189534424Y-107102942D01*
X189343155Y-107023716D01*
X189343154Y-107023716D01*
X189343153Y-107023715D01*
X189171015Y-106908696D01*
X189024623Y-106762304D01*
X188909604Y-106590166D01*
X188857900Y-106465341D01*
X188830377Y-106398895D01*
X188789988Y-106195847D01*
X188789988Y-105988815D01*
X188830377Y-105785767D01*
X188909603Y-105594498D01*
X188911449Y-105591736D01*
X189024623Y-105422358D01*
X189171015Y-105275966D01*
X189343153Y-105160947D01*
X189343155Y-105160946D01*
X189534424Y-105081720D01*
X189737472Y-105041331D01*
X189944504Y-105041331D01*
X190147552Y-105081720D01*
G37*
G36*
X185833468Y-104551862D02*
G01*
X185871161Y-104563296D01*
X185905897Y-104581863D01*
X185936342Y-104606849D01*
X185961328Y-104637294D01*
X185979895Y-104672030D01*
X185991329Y-104709723D01*
X185995794Y-104755058D01*
X185995794Y-105591736D01*
X185991329Y-105637071D01*
X185979895Y-105674764D01*
X185961328Y-105709500D01*
X185936342Y-105739945D01*
X185905897Y-105764931D01*
X185871161Y-105783498D01*
X185833468Y-105794932D01*
X185788133Y-105799397D01*
X184701455Y-105799397D01*
X184656120Y-105794932D01*
X184618427Y-105783498D01*
X184583691Y-105764931D01*
X184553246Y-105739945D01*
X184528260Y-105709500D01*
X184509693Y-105674764D01*
X184498259Y-105637071D01*
X184493794Y-105591736D01*
X184493794Y-104755058D01*
X184498259Y-104709723D01*
X184509693Y-104672030D01*
X184528260Y-104637294D01*
X184553246Y-104606849D01*
X184583691Y-104581863D01*
X184618427Y-104563296D01*
X184656120Y-104551862D01*
X184701455Y-104547397D01*
X185788133Y-104547397D01*
X185833468Y-104551862D01*
G37*
G36*
X199249512Y-103243927D02*
G01*
X199398812Y-103273624D01*
X199562784Y-103341544D01*
X199710354Y-103440147D01*
X199835853Y-103565646D01*
X199934456Y-103713216D01*
X200002376Y-103877188D01*
X200037000Y-104051259D01*
X200037000Y-104228741D01*
X200002376Y-104402812D01*
X199934456Y-104566784D01*
X199835853Y-104714354D01*
X199710354Y-104839853D01*
X199562784Y-104938456D01*
X199398812Y-105006376D01*
X199249512Y-105036073D01*
X199224742Y-105041000D01*
X199047258Y-105041000D01*
X199022488Y-105036073D01*
X198873188Y-105006376D01*
X198709216Y-104938456D01*
X198561646Y-104839853D01*
X198436147Y-104714354D01*
X198337544Y-104566784D01*
X198269624Y-104402812D01*
X198235000Y-104228741D01*
X198235000Y-104051259D01*
X198269624Y-103877188D01*
X198337544Y-103713216D01*
X198436147Y-103565646D01*
X198561646Y-103440147D01*
X198709216Y-103341544D01*
X198873188Y-103273624D01*
X199022488Y-103243927D01*
X199047258Y-103239000D01*
X199224742Y-103239000D01*
X199249512Y-103243927D01*
G37*
G36*
X178816166Y-102942722D02*
G01*
X179007435Y-103021948D01*
X179007437Y-103021949D01*
X179179575Y-103136968D01*
X179325967Y-103283360D01*
X179430729Y-103440147D01*
X179440987Y-103455500D01*
X179520213Y-103646769D01*
X179560602Y-103849817D01*
X179560602Y-104056849D01*
X179520213Y-104259897D01*
X179467056Y-104388229D01*
X179440986Y-104451168D01*
X179325967Y-104623306D01*
X179179575Y-104769698D01*
X179007437Y-104884717D01*
X179007436Y-104884718D01*
X179007435Y-104884718D01*
X178816166Y-104963944D01*
X178613118Y-105004333D01*
X178406086Y-105004333D01*
X178203038Y-104963944D01*
X178011769Y-104884718D01*
X178011768Y-104884718D01*
X178011767Y-104884717D01*
X177839629Y-104769698D01*
X177693237Y-104623306D01*
X177578218Y-104451168D01*
X177552148Y-104388229D01*
X177498991Y-104259897D01*
X177458602Y-104056849D01*
X177458602Y-103849817D01*
X177498991Y-103646769D01*
X177578217Y-103455500D01*
X177588476Y-103440147D01*
X177693237Y-103283360D01*
X177839629Y-103136968D01*
X178011767Y-103021949D01*
X178011769Y-103021948D01*
X178203038Y-102942722D01*
X178406086Y-102902333D01*
X178613118Y-102902333D01*
X178816166Y-102942722D01*
G37*
G36*
X164332228Y-103321703D02*
G01*
X164487100Y-103385853D01*
X164626481Y-103478985D01*
X164745015Y-103597519D01*
X164838147Y-103736900D01*
X164902297Y-103891772D01*
X164935000Y-104056184D01*
X164935000Y-104223816D01*
X164902297Y-104388228D01*
X164838147Y-104543100D01*
X164745015Y-104682481D01*
X164626481Y-104801015D01*
X164487100Y-104894147D01*
X164332228Y-104958297D01*
X164167816Y-104991000D01*
X164000184Y-104991000D01*
X163835772Y-104958297D01*
X163680900Y-104894147D01*
X163541519Y-104801015D01*
X163422985Y-104682481D01*
X163329853Y-104543100D01*
X163265703Y-104388228D01*
X163233000Y-104223816D01*
X163233000Y-104056184D01*
X163265703Y-103891772D01*
X163329853Y-103736900D01*
X163422985Y-103597519D01*
X163541519Y-103478985D01*
X163680900Y-103385853D01*
X163835772Y-103321703D01*
X164000184Y-103289000D01*
X164167816Y-103289000D01*
X164332228Y-103321703D01*
G37*
G36*
X141472228Y-103321703D02*
G01*
X141627100Y-103385853D01*
X141766481Y-103478985D01*
X141885015Y-103597519D01*
X141978147Y-103736900D01*
X142042297Y-103891772D01*
X142075000Y-104056184D01*
X142075000Y-104223816D01*
X142042297Y-104388228D01*
X141978147Y-104543100D01*
X141885015Y-104682481D01*
X141766481Y-104801015D01*
X141627100Y-104894147D01*
X141472228Y-104958297D01*
X141307816Y-104991000D01*
X141140184Y-104991000D01*
X140975772Y-104958297D01*
X140820900Y-104894147D01*
X140681519Y-104801015D01*
X140562985Y-104682481D01*
X140469853Y-104543100D01*
X140405703Y-104388228D01*
X140373000Y-104223816D01*
X140373000Y-104056184D01*
X140405703Y-103891772D01*
X140469853Y-103736900D01*
X140562985Y-103597519D01*
X140681519Y-103478985D01*
X140820900Y-103385853D01*
X140975772Y-103321703D01*
X141140184Y-103289000D01*
X141307816Y-103289000D01*
X141472228Y-103321703D01*
G37*
G36*
X166872228Y-103321703D02*
G01*
X167027100Y-103385853D01*
X167166481Y-103478985D01*
X167285015Y-103597519D01*
X167378147Y-103736900D01*
X167442297Y-103891772D01*
X167475000Y-104056184D01*
X167475000Y-104223816D01*
X167442297Y-104388228D01*
X167378147Y-104543100D01*
X167285015Y-104682481D01*
X167166481Y-104801015D01*
X167027100Y-104894147D01*
X166872228Y-104958297D01*
X166707816Y-104991000D01*
X166540184Y-104991000D01*
X166375772Y-104958297D01*
X166220900Y-104894147D01*
X166081519Y-104801015D01*
X165962985Y-104682481D01*
X165869853Y-104543100D01*
X165805703Y-104388228D01*
X165773000Y-104223816D01*
X165773000Y-104056184D01*
X165805703Y-103891772D01*
X165869853Y-103736900D01*
X165962985Y-103597519D01*
X166081519Y-103478985D01*
X166220900Y-103385853D01*
X166375772Y-103321703D01*
X166540184Y-103289000D01*
X166707816Y-103289000D01*
X166872228Y-103321703D01*
G37*
G36*
X138932228Y-103321703D02*
G01*
X139087100Y-103385853D01*
X139226481Y-103478985D01*
X139345015Y-103597519D01*
X139438147Y-103736900D01*
X139502297Y-103891772D01*
X139535000Y-104056184D01*
X139535000Y-104223816D01*
X139502297Y-104388228D01*
X139438147Y-104543100D01*
X139345015Y-104682481D01*
X139226481Y-104801015D01*
X139087100Y-104894147D01*
X138932228Y-104958297D01*
X138767816Y-104991000D01*
X138600184Y-104991000D01*
X138435772Y-104958297D01*
X138280900Y-104894147D01*
X138141519Y-104801015D01*
X138022985Y-104682481D01*
X137929853Y-104543100D01*
X137865703Y-104388228D01*
X137833000Y-104223816D01*
X137833000Y-104056184D01*
X137865703Y-103891772D01*
X137929853Y-103736900D01*
X138022985Y-103597519D01*
X138141519Y-103478985D01*
X138280900Y-103385853D01*
X138435772Y-103321703D01*
X138600184Y-103289000D01*
X138767816Y-103289000D01*
X138932228Y-103321703D01*
G37*
G36*
X136392228Y-103321703D02*
G01*
X136547100Y-103385853D01*
X136686481Y-103478985D01*
X136805015Y-103597519D01*
X136898147Y-103736900D01*
X136962297Y-103891772D01*
X136995000Y-104056184D01*
X136995000Y-104223816D01*
X136962297Y-104388228D01*
X136898147Y-104543100D01*
X136805015Y-104682481D01*
X136686481Y-104801015D01*
X136547100Y-104894147D01*
X136392228Y-104958297D01*
X136227816Y-104991000D01*
X136060184Y-104991000D01*
X135895772Y-104958297D01*
X135740900Y-104894147D01*
X135601519Y-104801015D01*
X135482985Y-104682481D01*
X135389853Y-104543100D01*
X135325703Y-104388228D01*
X135293000Y-104223816D01*
X135293000Y-104056184D01*
X135325703Y-103891772D01*
X135389853Y-103736900D01*
X135482985Y-103597519D01*
X135601519Y-103478985D01*
X135740900Y-103385853D01*
X135895772Y-103321703D01*
X136060184Y-103289000D01*
X136227816Y-103289000D01*
X136392228Y-103321703D01*
G37*
G36*
X144012228Y-103321703D02*
G01*
X144167100Y-103385853D01*
X144306481Y-103478985D01*
X144425015Y-103597519D01*
X144518147Y-103736900D01*
X144582297Y-103891772D01*
X144615000Y-104056184D01*
X144615000Y-104223816D01*
X144582297Y-104388228D01*
X144518147Y-104543100D01*
X144425015Y-104682481D01*
X144306481Y-104801015D01*
X144167100Y-104894147D01*
X144012228Y-104958297D01*
X143847816Y-104991000D01*
X143680184Y-104991000D01*
X143515772Y-104958297D01*
X143360900Y-104894147D01*
X143221519Y-104801015D01*
X143102985Y-104682481D01*
X143009853Y-104543100D01*
X142945703Y-104388228D01*
X142913000Y-104223816D01*
X142913000Y-104056184D01*
X142945703Y-103891772D01*
X143009853Y-103736900D01*
X143102985Y-103597519D01*
X143221519Y-103478985D01*
X143360900Y-103385853D01*
X143515772Y-103321703D01*
X143680184Y-103289000D01*
X143847816Y-103289000D01*
X144012228Y-103321703D01*
G37*
G36*
X146552228Y-103321703D02*
G01*
X146707100Y-103385853D01*
X146846481Y-103478985D01*
X146965015Y-103597519D01*
X147058147Y-103736900D01*
X147122297Y-103891772D01*
X147155000Y-104056184D01*
X147155000Y-104223816D01*
X147122297Y-104388228D01*
X147058147Y-104543100D01*
X146965015Y-104682481D01*
X146846481Y-104801015D01*
X146707100Y-104894147D01*
X146552228Y-104958297D01*
X146387816Y-104991000D01*
X146220184Y-104991000D01*
X146055772Y-104958297D01*
X145900900Y-104894147D01*
X145761519Y-104801015D01*
X145642985Y-104682481D01*
X145549853Y-104543100D01*
X145485703Y-104388228D01*
X145453000Y-104223816D01*
X145453000Y-104056184D01*
X145485703Y-103891772D01*
X145549853Y-103736900D01*
X145642985Y-103597519D01*
X145761519Y-103478985D01*
X145900900Y-103385853D01*
X146055772Y-103321703D01*
X146220184Y-103289000D01*
X146387816Y-103289000D01*
X146552228Y-103321703D01*
G37*
G36*
X161792228Y-103321703D02*
G01*
X161947100Y-103385853D01*
X162086481Y-103478985D01*
X162205015Y-103597519D01*
X162298147Y-103736900D01*
X162362297Y-103891772D01*
X162395000Y-104056184D01*
X162395000Y-104223816D01*
X162362297Y-104388228D01*
X162298147Y-104543100D01*
X162205015Y-104682481D01*
X162086481Y-104801015D01*
X161947100Y-104894147D01*
X161792228Y-104958297D01*
X161627816Y-104991000D01*
X161460184Y-104991000D01*
X161295772Y-104958297D01*
X161140900Y-104894147D01*
X161001519Y-104801015D01*
X160882985Y-104682481D01*
X160789853Y-104543100D01*
X160725703Y-104388228D01*
X160693000Y-104223816D01*
X160693000Y-104056184D01*
X160725703Y-103891772D01*
X160789853Y-103736900D01*
X160882985Y-103597519D01*
X161001519Y-103478985D01*
X161140900Y-103385853D01*
X161295772Y-103321703D01*
X161460184Y-103289000D01*
X161627816Y-103289000D01*
X161792228Y-103321703D01*
G37*
G36*
X133852228Y-103321703D02*
G01*
X134007100Y-103385853D01*
X134146481Y-103478985D01*
X134265015Y-103597519D01*
X134358147Y-103736900D01*
X134422297Y-103891772D01*
X134455000Y-104056184D01*
X134455000Y-104223816D01*
X134422297Y-104388228D01*
X134358147Y-104543100D01*
X134265015Y-104682481D01*
X134146481Y-104801015D01*
X134007100Y-104894147D01*
X133852228Y-104958297D01*
X133687816Y-104991000D01*
X133520184Y-104991000D01*
X133355772Y-104958297D01*
X133200900Y-104894147D01*
X133061519Y-104801015D01*
X132942985Y-104682481D01*
X132849853Y-104543100D01*
X132785703Y-104388228D01*
X132753000Y-104223816D01*
X132753000Y-104056184D01*
X132785703Y-103891772D01*
X132849853Y-103736900D01*
X132942985Y-103597519D01*
X133061519Y-103478985D01*
X133200900Y-103385853D01*
X133355772Y-103321703D01*
X133520184Y-103289000D01*
X133687816Y-103289000D01*
X133852228Y-103321703D01*
G37*
G36*
X149092228Y-103321703D02*
G01*
X149247100Y-103385853D01*
X149386481Y-103478985D01*
X149505015Y-103597519D01*
X149598147Y-103736900D01*
X149662297Y-103891772D01*
X149695000Y-104056184D01*
X149695000Y-104223816D01*
X149662297Y-104388228D01*
X149598147Y-104543100D01*
X149505015Y-104682481D01*
X149386481Y-104801015D01*
X149247100Y-104894147D01*
X149092228Y-104958297D01*
X148927816Y-104991000D01*
X148760184Y-104991000D01*
X148595772Y-104958297D01*
X148440900Y-104894147D01*
X148301519Y-104801015D01*
X148182985Y-104682481D01*
X148089853Y-104543100D01*
X148025703Y-104388228D01*
X147993000Y-104223816D01*
X147993000Y-104056184D01*
X148025703Y-103891772D01*
X148089853Y-103736900D01*
X148182985Y-103597519D01*
X148301519Y-103478985D01*
X148440900Y-103385853D01*
X148595772Y-103321703D01*
X148760184Y-103289000D01*
X148927816Y-103289000D01*
X149092228Y-103321703D01*
G37*
G36*
X131312228Y-103321703D02*
G01*
X131467100Y-103385853D01*
X131606481Y-103478985D01*
X131725015Y-103597519D01*
X131818147Y-103736900D01*
X131882297Y-103891772D01*
X131915000Y-104056184D01*
X131915000Y-104223816D01*
X131882297Y-104388228D01*
X131818147Y-104543100D01*
X131725015Y-104682481D01*
X131606481Y-104801015D01*
X131467100Y-104894147D01*
X131312228Y-104958297D01*
X131147816Y-104991000D01*
X130980184Y-104991000D01*
X130815772Y-104958297D01*
X130660900Y-104894147D01*
X130521519Y-104801015D01*
X130402985Y-104682481D01*
X130309853Y-104543100D01*
X130245703Y-104388228D01*
X130213000Y-104223816D01*
X130213000Y-104056184D01*
X130245703Y-103891772D01*
X130309853Y-103736900D01*
X130402985Y-103597519D01*
X130521519Y-103478985D01*
X130660900Y-103385853D01*
X130815772Y-103321703D01*
X130980184Y-103289000D01*
X131147816Y-103289000D01*
X131312228Y-103321703D01*
G37*
G36*
X159252228Y-103321703D02*
G01*
X159407100Y-103385853D01*
X159546481Y-103478985D01*
X159665015Y-103597519D01*
X159758147Y-103736900D01*
X159822297Y-103891772D01*
X159855000Y-104056184D01*
X159855000Y-104223816D01*
X159822297Y-104388228D01*
X159758147Y-104543100D01*
X159665015Y-104682481D01*
X159546481Y-104801015D01*
X159407100Y-104894147D01*
X159252228Y-104958297D01*
X159087816Y-104991000D01*
X158920184Y-104991000D01*
X158755772Y-104958297D01*
X158600900Y-104894147D01*
X158461519Y-104801015D01*
X158342985Y-104682481D01*
X158249853Y-104543100D01*
X158185703Y-104388228D01*
X158153000Y-104223816D01*
X158153000Y-104056184D01*
X158185703Y-103891772D01*
X158249853Y-103736900D01*
X158342985Y-103597519D01*
X158461519Y-103478985D01*
X158600900Y-103385853D01*
X158755772Y-103321703D01*
X158920184Y-103289000D01*
X159087816Y-103289000D01*
X159252228Y-103321703D01*
G37*
G36*
X151632228Y-103321703D02*
G01*
X151787100Y-103385853D01*
X151926481Y-103478985D01*
X152045015Y-103597519D01*
X152138147Y-103736900D01*
X152202297Y-103891772D01*
X152235000Y-104056184D01*
X152235000Y-104223816D01*
X152202297Y-104388228D01*
X152138147Y-104543100D01*
X152045015Y-104682481D01*
X151926481Y-104801015D01*
X151787100Y-104894147D01*
X151632228Y-104958297D01*
X151467816Y-104991000D01*
X151300184Y-104991000D01*
X151135772Y-104958297D01*
X150980900Y-104894147D01*
X150841519Y-104801015D01*
X150722985Y-104682481D01*
X150629853Y-104543100D01*
X150565703Y-104388228D01*
X150533000Y-104223816D01*
X150533000Y-104056184D01*
X150565703Y-103891772D01*
X150629853Y-103736900D01*
X150722985Y-103597519D01*
X150841519Y-103478985D01*
X150980900Y-103385853D01*
X151135772Y-103321703D01*
X151300184Y-103289000D01*
X151467816Y-103289000D01*
X151632228Y-103321703D01*
G37*
G36*
X156712228Y-103321703D02*
G01*
X156867100Y-103385853D01*
X157006481Y-103478985D01*
X157125015Y-103597519D01*
X157218147Y-103736900D01*
X157282297Y-103891772D01*
X157315000Y-104056184D01*
X157315000Y-104223816D01*
X157282297Y-104388228D01*
X157218147Y-104543100D01*
X157125015Y-104682481D01*
X157006481Y-104801015D01*
X156867100Y-104894147D01*
X156712228Y-104958297D01*
X156547816Y-104991000D01*
X156380184Y-104991000D01*
X156215772Y-104958297D01*
X156060900Y-104894147D01*
X155921519Y-104801015D01*
X155802985Y-104682481D01*
X155709853Y-104543100D01*
X155645703Y-104388228D01*
X155613000Y-104223816D01*
X155613000Y-104056184D01*
X155645703Y-103891772D01*
X155709853Y-103736900D01*
X155802985Y-103597519D01*
X155921519Y-103478985D01*
X156060900Y-103385853D01*
X156215772Y-103321703D01*
X156380184Y-103289000D01*
X156547816Y-103289000D01*
X156712228Y-103321703D01*
G37*
G36*
X154172228Y-103321703D02*
G01*
X154327100Y-103385853D01*
X154466481Y-103478985D01*
X154585015Y-103597519D01*
X154678147Y-103736900D01*
X154742297Y-103891772D01*
X154775000Y-104056184D01*
X154775000Y-104223816D01*
X154742297Y-104388228D01*
X154678147Y-104543100D01*
X154585015Y-104682481D01*
X154466481Y-104801015D01*
X154327100Y-104894147D01*
X154172228Y-104958297D01*
X154007816Y-104991000D01*
X153840184Y-104991000D01*
X153675772Y-104958297D01*
X153520900Y-104894147D01*
X153381519Y-104801015D01*
X153262985Y-104682481D01*
X153169853Y-104543100D01*
X153105703Y-104388228D01*
X153073000Y-104223816D01*
X153073000Y-104056184D01*
X153105703Y-103891772D01*
X153169853Y-103736900D01*
X153262985Y-103597519D01*
X153381519Y-103478985D01*
X153520900Y-103385853D01*
X153675772Y-103321703D01*
X153840184Y-103289000D01*
X154007816Y-103289000D01*
X154172228Y-103321703D01*
G37*
G36*
X182690379Y-103458773D02*
G01*
X182728072Y-103470207D01*
X182762808Y-103488774D01*
X182793253Y-103513760D01*
X182818239Y-103544205D01*
X182836806Y-103578941D01*
X182848240Y-103616634D01*
X182852705Y-103661969D01*
X182852705Y-104498647D01*
X182848240Y-104543982D01*
X182836806Y-104581675D01*
X182818239Y-104616411D01*
X182793253Y-104646856D01*
X182762808Y-104671842D01*
X182728072Y-104690409D01*
X182690379Y-104701843D01*
X182645044Y-104706308D01*
X181558366Y-104706308D01*
X181513031Y-104701843D01*
X181475338Y-104690409D01*
X181440602Y-104671842D01*
X181410157Y-104646856D01*
X181385171Y-104616411D01*
X181366604Y-104581675D01*
X181355170Y-104543982D01*
X181350705Y-104498647D01*
X181350705Y-103661969D01*
X181355170Y-103616634D01*
X181366604Y-103578941D01*
X181385171Y-103544205D01*
X181410157Y-103513760D01*
X181440602Y-103488774D01*
X181475338Y-103470207D01*
X181513031Y-103458773D01*
X181558366Y-103454308D01*
X182645044Y-103454308D01*
X182690379Y-103458773D01*
G37*
G36*
X186594341Y-101528508D02*
G01*
X186785610Y-101607734D01*
X186785612Y-101607735D01*
X186906846Y-101688741D01*
X186957750Y-101722754D01*
X187104142Y-101869146D01*
X187219162Y-102041286D01*
X187298388Y-102232555D01*
X187338777Y-102435603D01*
X187338777Y-102642635D01*
X187298388Y-102845683D01*
X187225377Y-103021948D01*
X187219161Y-103036954D01*
X187104142Y-103209092D01*
X186957750Y-103355484D01*
X186785612Y-103470503D01*
X186785611Y-103470504D01*
X186785610Y-103470504D01*
X186594341Y-103549730D01*
X186391293Y-103590119D01*
X186184261Y-103590119D01*
X185981213Y-103549730D01*
X185789944Y-103470504D01*
X185789943Y-103470504D01*
X185789942Y-103470503D01*
X185617804Y-103355484D01*
X185471412Y-103209092D01*
X185356393Y-103036954D01*
X185350177Y-103021948D01*
X185277166Y-102845683D01*
X185236777Y-102642635D01*
X185236777Y-102435603D01*
X185277166Y-102232555D01*
X185356392Y-102041286D01*
X185471412Y-101869146D01*
X185617804Y-101722754D01*
X185668708Y-101688741D01*
X185789942Y-101607735D01*
X185789944Y-101607734D01*
X185981213Y-101528508D01*
X186184261Y-101488119D01*
X186391293Y-101488119D01*
X186594341Y-101528508D01*
G37*
G36*
X182690379Y-101408773D02*
G01*
X182728072Y-101420207D01*
X182762808Y-101438774D01*
X182793253Y-101463760D01*
X182818239Y-101494205D01*
X182836806Y-101528941D01*
X182848240Y-101566634D01*
X182852705Y-101611969D01*
X182852705Y-102448647D01*
X182848240Y-102493982D01*
X182836806Y-102531675D01*
X182818239Y-102566411D01*
X182793253Y-102596856D01*
X182762808Y-102621842D01*
X182728072Y-102640409D01*
X182690379Y-102651843D01*
X182645044Y-102656308D01*
X181558366Y-102656308D01*
X181513031Y-102651843D01*
X181475338Y-102640409D01*
X181440602Y-102621842D01*
X181410157Y-102596856D01*
X181385171Y-102566411D01*
X181366604Y-102531675D01*
X181355170Y-102493982D01*
X181350705Y-102448647D01*
X181350705Y-101611969D01*
X181355170Y-101566634D01*
X181366604Y-101528941D01*
X181385171Y-101494205D01*
X181410157Y-101463760D01*
X181440602Y-101438774D01*
X181475338Y-101420207D01*
X181513031Y-101408773D01*
X181558366Y-101404308D01*
X182645044Y-101404308D01*
X182690379Y-101408773D01*
G37*
G36*
X199249512Y-100703927D02*
G01*
X199398812Y-100733624D01*
X199562784Y-100801544D01*
X199710354Y-100900147D01*
X199835853Y-101025646D01*
X199934456Y-101173216D01*
X200002376Y-101337188D01*
X200037000Y-101511259D01*
X200037000Y-101688741D01*
X200002376Y-101862812D01*
X199934456Y-102026784D01*
X199835853Y-102174354D01*
X199710354Y-102299853D01*
X199562784Y-102398456D01*
X199398812Y-102466376D01*
X199249512Y-102496073D01*
X199224742Y-102501000D01*
X199047258Y-102501000D01*
X199022488Y-102496073D01*
X198873188Y-102466376D01*
X198709216Y-102398456D01*
X198561646Y-102299853D01*
X198436147Y-102174354D01*
X198337544Y-102026784D01*
X198269624Y-101862812D01*
X198235000Y-101688741D01*
X198235000Y-101511259D01*
X198269624Y-101337188D01*
X198337544Y-101173216D01*
X198436147Y-101025646D01*
X198561646Y-100900147D01*
X198709216Y-100801544D01*
X198873188Y-100733624D01*
X199022488Y-100703927D01*
X199047258Y-100699000D01*
X199224742Y-100699000D01*
X199249512Y-100703927D01*
G37*
G36*
X133074500Y-102415000D02*
G01*
X130582500Y-102415000D01*
X130582500Y-101263000D01*
X133074500Y-101263000D01*
X133074500Y-102415000D01*
G37*
G36*
X135665000Y-102415000D02*
G01*
X134363000Y-102415000D01*
X134363000Y-101263000D01*
X135665000Y-101263000D01*
X135665000Y-102415000D01*
G37*
G36*
X143463674Y-100098465D02*
G01*
X143501367Y-100109899D01*
X143536103Y-100128466D01*
X143566548Y-100153452D01*
X143591534Y-100183897D01*
X143610101Y-100218633D01*
X143621535Y-100256326D01*
X143626000Y-100301661D01*
X143626000Y-101138339D01*
X143621535Y-101183674D01*
X143610101Y-101221367D01*
X143591534Y-101256103D01*
X143566548Y-101286548D01*
X143536103Y-101311534D01*
X143501367Y-101330101D01*
X143463674Y-101341535D01*
X143418339Y-101346000D01*
X142331661Y-101346000D01*
X142286326Y-101341535D01*
X142248633Y-101330101D01*
X142213897Y-101311534D01*
X142183452Y-101286548D01*
X142158466Y-101256103D01*
X142139899Y-101221367D01*
X142128465Y-101183674D01*
X142124000Y-101138339D01*
X142124000Y-100301661D01*
X142128465Y-100256326D01*
X142139899Y-100218633D01*
X142158466Y-100183897D01*
X142183452Y-100153452D01*
X142213897Y-100128466D01*
X142248633Y-100109899D01*
X142286326Y-100098465D01*
X142331661Y-100094000D01*
X143418339Y-100094000D01*
X143463674Y-100098465D01*
G37*
G36*
X152353674Y-100098465D02*
G01*
X152391367Y-100109899D01*
X152426103Y-100128466D01*
X152456548Y-100153452D01*
X152481534Y-100183897D01*
X152500101Y-100218633D01*
X152511535Y-100256326D01*
X152516000Y-100301661D01*
X152516000Y-101138339D01*
X152511535Y-101183674D01*
X152500101Y-101221367D01*
X152481534Y-101256103D01*
X152456548Y-101286548D01*
X152426103Y-101311534D01*
X152391367Y-101330101D01*
X152353674Y-101341535D01*
X152308339Y-101346000D01*
X151221661Y-101346000D01*
X151176326Y-101341535D01*
X151138633Y-101330101D01*
X151103897Y-101311534D01*
X151073452Y-101286548D01*
X151048466Y-101256103D01*
X151029899Y-101221367D01*
X151018465Y-101183674D01*
X151014000Y-101138339D01*
X151014000Y-100301661D01*
X151018465Y-100256326D01*
X151029899Y-100218633D01*
X151048466Y-100183897D01*
X151073452Y-100153452D01*
X151103897Y-100128466D01*
X151138633Y-100109899D01*
X151176326Y-100098465D01*
X151221661Y-100094000D01*
X152308339Y-100094000D01*
X152353674Y-100098465D01*
G37*
G36*
X140288674Y-100098465D02*
G01*
X140326367Y-100109899D01*
X140361103Y-100128466D01*
X140391548Y-100153452D01*
X140416534Y-100183897D01*
X140435101Y-100218633D01*
X140446535Y-100256326D01*
X140451000Y-100301661D01*
X140451000Y-101138339D01*
X140446535Y-101183674D01*
X140435101Y-101221367D01*
X140416534Y-101256103D01*
X140391548Y-101286548D01*
X140361103Y-101311534D01*
X140326367Y-101330101D01*
X140288674Y-101341535D01*
X140243339Y-101346000D01*
X139156661Y-101346000D01*
X139111326Y-101341535D01*
X139073633Y-101330101D01*
X139038897Y-101311534D01*
X139008452Y-101286548D01*
X138983466Y-101256103D01*
X138964899Y-101221367D01*
X138953465Y-101183674D01*
X138949000Y-101138339D01*
X138949000Y-100301661D01*
X138953465Y-100256326D01*
X138964899Y-100218633D01*
X138983466Y-100183897D01*
X139008452Y-100153452D01*
X139038897Y-100128466D01*
X139073633Y-100109899D01*
X139111326Y-100098465D01*
X139156661Y-100094000D01*
X140243339Y-100094000D01*
X140288674Y-100098465D01*
G37*
G36*
X149178674Y-100098465D02*
G01*
X149216367Y-100109899D01*
X149251103Y-100128466D01*
X149281548Y-100153452D01*
X149306534Y-100183897D01*
X149325101Y-100218633D01*
X149336535Y-100256326D01*
X149341000Y-100301661D01*
X149341000Y-101138339D01*
X149336535Y-101183674D01*
X149325101Y-101221367D01*
X149306534Y-101256103D01*
X149281548Y-101286548D01*
X149251103Y-101311534D01*
X149216367Y-101330101D01*
X149178674Y-101341535D01*
X149133339Y-101346000D01*
X148046661Y-101346000D01*
X148001326Y-101341535D01*
X147963633Y-101330101D01*
X147928897Y-101311534D01*
X147898452Y-101286548D01*
X147873466Y-101256103D01*
X147854899Y-101221367D01*
X147843465Y-101183674D01*
X147839000Y-101138339D01*
X147839000Y-100301661D01*
X147843465Y-100256326D01*
X147854899Y-100218633D01*
X147873466Y-100183897D01*
X147898452Y-100153452D01*
X147928897Y-100128466D01*
X147963633Y-100109899D01*
X148001326Y-100098465D01*
X148046661Y-100094000D01*
X149133339Y-100094000D01*
X149178674Y-100098465D01*
G37*
G36*
X129575000Y-101215000D02*
G01*
X128473000Y-101215000D01*
X128473000Y-100613000D01*
X129575000Y-100613000D01*
X129575000Y-101215000D01*
G37*
G36*
X183412360Y-98346528D02*
G01*
X183603629Y-98425754D01*
X183603631Y-98425755D01*
X183775769Y-98540774D01*
X183922161Y-98687166D01*
X184037181Y-98859306D01*
X184116407Y-99050575D01*
X184156796Y-99253623D01*
X184156796Y-99460655D01*
X184116407Y-99663703D01*
X184037181Y-99854972D01*
X184037180Y-99854974D01*
X183922161Y-100027112D01*
X183775769Y-100173504D01*
X183603631Y-100288523D01*
X183603630Y-100288524D01*
X183603629Y-100288524D01*
X183412360Y-100367750D01*
X183209312Y-100408139D01*
X183002280Y-100408139D01*
X182799232Y-100367750D01*
X182607963Y-100288524D01*
X182607962Y-100288524D01*
X182607961Y-100288523D01*
X182435823Y-100173504D01*
X182289431Y-100027112D01*
X182174412Y-99854974D01*
X182174411Y-99854972D01*
X182095185Y-99663703D01*
X182054796Y-99460655D01*
X182054796Y-99253623D01*
X182095185Y-99050575D01*
X182174411Y-98859306D01*
X182289431Y-98687166D01*
X182435823Y-98540774D01*
X182607961Y-98425755D01*
X182607963Y-98425754D01*
X182799232Y-98346528D01*
X183002280Y-98306139D01*
X183209312Y-98306139D01*
X183412360Y-98346528D01*
G37*
G36*
X136585000Y-100170000D02*
G01*
X135933000Y-100170000D01*
X135933000Y-97158000D01*
X136585000Y-97158000D01*
X136585000Y-100170000D01*
G37*
G36*
X129575000Y-100115000D02*
G01*
X128473000Y-100115000D01*
X128473000Y-99513000D01*
X129575000Y-99513000D01*
X129575000Y-100115000D01*
G37*
G36*
X200037000Y-99961000D02*
G01*
X198235000Y-99961000D01*
X198235000Y-98159000D01*
X200037000Y-98159000D01*
X200037000Y-99961000D01*
G37*
G36*
X152353674Y-98048465D02*
G01*
X152391367Y-98059899D01*
X152426103Y-98078466D01*
X152456548Y-98103452D01*
X152481534Y-98133897D01*
X152500101Y-98168633D01*
X152511535Y-98206326D01*
X152516000Y-98251661D01*
X152516000Y-99088339D01*
X152511535Y-99133674D01*
X152500101Y-99171367D01*
X152481534Y-99206103D01*
X152456548Y-99236548D01*
X152426103Y-99261534D01*
X152391367Y-99280101D01*
X152353674Y-99291535D01*
X152308339Y-99296000D01*
X151221661Y-99296000D01*
X151176326Y-99291535D01*
X151138633Y-99280101D01*
X151103897Y-99261534D01*
X151073452Y-99236548D01*
X151048466Y-99206103D01*
X151029899Y-99171367D01*
X151018465Y-99133674D01*
X151014000Y-99088339D01*
X151014000Y-98251661D01*
X151018465Y-98206326D01*
X151029899Y-98168633D01*
X151048466Y-98133897D01*
X151073452Y-98103452D01*
X151103897Y-98078466D01*
X151138633Y-98059899D01*
X151176326Y-98048465D01*
X151221661Y-98044000D01*
X152308339Y-98044000D01*
X152353674Y-98048465D01*
G37*
G36*
X143463674Y-98048465D02*
G01*
X143501367Y-98059899D01*
X143536103Y-98078466D01*
X143566548Y-98103452D01*
X143591534Y-98133897D01*
X143610101Y-98168633D01*
X143621535Y-98206326D01*
X143626000Y-98251661D01*
X143626000Y-99088339D01*
X143621535Y-99133674D01*
X143610101Y-99171367D01*
X143591534Y-99206103D01*
X143566548Y-99236548D01*
X143536103Y-99261534D01*
X143501367Y-99280101D01*
X143463674Y-99291535D01*
X143418339Y-99296000D01*
X142331661Y-99296000D01*
X142286326Y-99291535D01*
X142248633Y-99280101D01*
X142213897Y-99261534D01*
X142183452Y-99236548D01*
X142158466Y-99206103D01*
X142139899Y-99171367D01*
X142128465Y-99133674D01*
X142124000Y-99088339D01*
X142124000Y-98251661D01*
X142128465Y-98206326D01*
X142139899Y-98168633D01*
X142158466Y-98133897D01*
X142183452Y-98103452D01*
X142213897Y-98078466D01*
X142248633Y-98059899D01*
X142286326Y-98048465D01*
X142331661Y-98044000D01*
X143418339Y-98044000D01*
X143463674Y-98048465D01*
G37*
G36*
X149178674Y-98048465D02*
G01*
X149216367Y-98059899D01*
X149251103Y-98078466D01*
X149281548Y-98103452D01*
X149306534Y-98133897D01*
X149325101Y-98168633D01*
X149336535Y-98206326D01*
X149341000Y-98251661D01*
X149341000Y-99088339D01*
X149336535Y-99133674D01*
X149325101Y-99171367D01*
X149306534Y-99206103D01*
X149281548Y-99236548D01*
X149251103Y-99261534D01*
X149216367Y-99280101D01*
X149178674Y-99291535D01*
X149133339Y-99296000D01*
X148046661Y-99296000D01*
X148001326Y-99291535D01*
X147963633Y-99280101D01*
X147928897Y-99261534D01*
X147898452Y-99236548D01*
X147873466Y-99206103D01*
X147854899Y-99171367D01*
X147843465Y-99133674D01*
X147839000Y-99088339D01*
X147839000Y-98251661D01*
X147843465Y-98206326D01*
X147854899Y-98168633D01*
X147873466Y-98133897D01*
X147898452Y-98103452D01*
X147928897Y-98078466D01*
X147963633Y-98059899D01*
X148001326Y-98048465D01*
X148046661Y-98044000D01*
X149133339Y-98044000D01*
X149178674Y-98048465D01*
G37*
G36*
X140288674Y-98048465D02*
G01*
X140326367Y-98059899D01*
X140361103Y-98078466D01*
X140391548Y-98103452D01*
X140416534Y-98133897D01*
X140435101Y-98168633D01*
X140446535Y-98206326D01*
X140451000Y-98251661D01*
X140451000Y-99088339D01*
X140446535Y-99133674D01*
X140435101Y-99171367D01*
X140416534Y-99206103D01*
X140391548Y-99236548D01*
X140361103Y-99261534D01*
X140326367Y-99280101D01*
X140288674Y-99291535D01*
X140243339Y-99296000D01*
X139156661Y-99296000D01*
X139111326Y-99291535D01*
X139073633Y-99280101D01*
X139038897Y-99261534D01*
X139008452Y-99236548D01*
X138983466Y-99206103D01*
X138964899Y-99171367D01*
X138953465Y-99133674D01*
X138949000Y-99088339D01*
X138949000Y-98251661D01*
X138953465Y-98206326D01*
X138964899Y-98168633D01*
X138983466Y-98133897D01*
X139008452Y-98103452D01*
X139038897Y-98078466D01*
X139073633Y-98059899D01*
X139111326Y-98048465D01*
X139156661Y-98044000D01*
X140243339Y-98044000D01*
X140288674Y-98048465D01*
G37*
G36*
X129575000Y-99015000D02*
G01*
X128473000Y-99015000D01*
X128473000Y-98413000D01*
X129575000Y-98413000D01*
X129575000Y-99015000D01*
G37*
G36*
X129575000Y-97915000D02*
G01*
X128473000Y-97915000D01*
X128473000Y-97313000D01*
X129575000Y-97313000D01*
X129575000Y-97915000D01*
G37*
G36*
X129575000Y-96815000D02*
G01*
X128473000Y-96815000D01*
X128473000Y-96213000D01*
X129575000Y-96213000D01*
X129575000Y-96815000D01*
G37*
G36*
X136585000Y-95980000D02*
G01*
X135933000Y-95980000D01*
X135933000Y-92968000D01*
X136585000Y-92968000D01*
X136585000Y-95980000D01*
G37*
G36*
X129575000Y-95715000D02*
G01*
X128473000Y-95715000D01*
X128473000Y-95113000D01*
X129575000Y-95113000D01*
X129575000Y-95715000D01*
G37*
G36*
X157433674Y-93748465D02*
G01*
X157471367Y-93759899D01*
X157506103Y-93778466D01*
X157536548Y-93803452D01*
X157561534Y-93833897D01*
X157580101Y-93868633D01*
X157591535Y-93906326D01*
X157596000Y-93951661D01*
X157596000Y-94788339D01*
X157591535Y-94833674D01*
X157580101Y-94871367D01*
X157561534Y-94906103D01*
X157536548Y-94936548D01*
X157506103Y-94961534D01*
X157471367Y-94980101D01*
X157433674Y-94991535D01*
X157388339Y-94996000D01*
X156301661Y-94996000D01*
X156256326Y-94991535D01*
X156218633Y-94980101D01*
X156183897Y-94961534D01*
X156153452Y-94936548D01*
X156128466Y-94906103D01*
X156109899Y-94871367D01*
X156098465Y-94833674D01*
X156094000Y-94788339D01*
X156094000Y-93951661D01*
X156098465Y-93906326D01*
X156109899Y-93868633D01*
X156128466Y-93833897D01*
X156153452Y-93803452D01*
X156183897Y-93778466D01*
X156218633Y-93759899D01*
X156256326Y-93748465D01*
X156301661Y-93744000D01*
X157388339Y-93744000D01*
X157433674Y-93748465D01*
G37*
G36*
X140288674Y-93748465D02*
G01*
X140326367Y-93759899D01*
X140361103Y-93778466D01*
X140391548Y-93803452D01*
X140416534Y-93833897D01*
X140435101Y-93868633D01*
X140446535Y-93906326D01*
X140451000Y-93951661D01*
X140451000Y-94788339D01*
X140446535Y-94833674D01*
X140435101Y-94871367D01*
X140416534Y-94906103D01*
X140391548Y-94936548D01*
X140361103Y-94961534D01*
X140326367Y-94980101D01*
X140288674Y-94991535D01*
X140243339Y-94996000D01*
X139156661Y-94996000D01*
X139111326Y-94991535D01*
X139073633Y-94980101D01*
X139038897Y-94961534D01*
X139008452Y-94936548D01*
X138983466Y-94906103D01*
X138964899Y-94871367D01*
X138953465Y-94833674D01*
X138949000Y-94788339D01*
X138949000Y-93951661D01*
X138953465Y-93906326D01*
X138964899Y-93868633D01*
X138983466Y-93833897D01*
X139008452Y-93803452D01*
X139038897Y-93778466D01*
X139073633Y-93759899D01*
X139111326Y-93748465D01*
X139156661Y-93744000D01*
X140243339Y-93744000D01*
X140288674Y-93748465D01*
G37*
G36*
X154258674Y-93748465D02*
G01*
X154296367Y-93759899D01*
X154331103Y-93778466D01*
X154361548Y-93803452D01*
X154386534Y-93833897D01*
X154405101Y-93868633D01*
X154416535Y-93906326D01*
X154421000Y-93951661D01*
X154421000Y-94788339D01*
X154416535Y-94833674D01*
X154405101Y-94871367D01*
X154386534Y-94906103D01*
X154361548Y-94936548D01*
X154331103Y-94961534D01*
X154296367Y-94980101D01*
X154258674Y-94991535D01*
X154213339Y-94996000D01*
X153126661Y-94996000D01*
X153081326Y-94991535D01*
X153043633Y-94980101D01*
X153008897Y-94961534D01*
X152978452Y-94936548D01*
X152953466Y-94906103D01*
X152934899Y-94871367D01*
X152923465Y-94833674D01*
X152919000Y-94788339D01*
X152919000Y-93951661D01*
X152923465Y-93906326D01*
X152934899Y-93868633D01*
X152953466Y-93833897D01*
X152978452Y-93803452D01*
X153008897Y-93778466D01*
X153043633Y-93759899D01*
X153081326Y-93748465D01*
X153126661Y-93744000D01*
X154213339Y-93744000D01*
X154258674Y-93748465D01*
G37*
G36*
X151083674Y-93748465D02*
G01*
X151121367Y-93759899D01*
X151156103Y-93778466D01*
X151186548Y-93803452D01*
X151211534Y-93833897D01*
X151230101Y-93868633D01*
X151241535Y-93906326D01*
X151246000Y-93951661D01*
X151246000Y-94788339D01*
X151241535Y-94833674D01*
X151230101Y-94871367D01*
X151211534Y-94906103D01*
X151186548Y-94936548D01*
X151156103Y-94961534D01*
X151121367Y-94980101D01*
X151083674Y-94991535D01*
X151038339Y-94996000D01*
X149951661Y-94996000D01*
X149906326Y-94991535D01*
X149868633Y-94980101D01*
X149833897Y-94961534D01*
X149803452Y-94936548D01*
X149778466Y-94906103D01*
X149759899Y-94871367D01*
X149748465Y-94833674D01*
X149744000Y-94788339D01*
X149744000Y-93951661D01*
X149748465Y-93906326D01*
X149759899Y-93868633D01*
X149778466Y-93833897D01*
X149803452Y-93803452D01*
X149833897Y-93778466D01*
X149868633Y-93759899D01*
X149906326Y-93748465D01*
X149951661Y-93744000D01*
X151038339Y-93744000D01*
X151083674Y-93748465D01*
G37*
G36*
X199249512Y-93083927D02*
G01*
X199398812Y-93113624D01*
X199562784Y-93181544D01*
X199710354Y-93280147D01*
X199835853Y-93405646D01*
X199934456Y-93553216D01*
X200002376Y-93717188D01*
X200037000Y-93891259D01*
X200037000Y-94068741D01*
X200002376Y-94242812D01*
X199934456Y-94406784D01*
X199835853Y-94554354D01*
X199710354Y-94679853D01*
X199562784Y-94778456D01*
X199398812Y-94846376D01*
X199254715Y-94875038D01*
X199224742Y-94881000D01*
X199047258Y-94881000D01*
X199017285Y-94875038D01*
X198873188Y-94846376D01*
X198709216Y-94778456D01*
X198561646Y-94679853D01*
X198436147Y-94554354D01*
X198337544Y-94406784D01*
X198269624Y-94242812D01*
X198235000Y-94068741D01*
X198235000Y-93891259D01*
X198269624Y-93717188D01*
X198337544Y-93553216D01*
X198436147Y-93405646D01*
X198561646Y-93280147D01*
X198709216Y-93181544D01*
X198873188Y-93113624D01*
X199022488Y-93083927D01*
X199047258Y-93079000D01*
X199224742Y-93079000D01*
X199249512Y-93083927D01*
G37*
G36*
X129575000Y-94615000D02*
G01*
X128473000Y-94615000D01*
X128473000Y-94013000D01*
X129575000Y-94013000D01*
X129575000Y-94615000D01*
G37*
G36*
X129575000Y-93515000D02*
G01*
X128473000Y-93515000D01*
X128473000Y-92913000D01*
X129575000Y-92913000D01*
X129575000Y-93515000D01*
G37*
G36*
X157433674Y-91698465D02*
G01*
X157471367Y-91709899D01*
X157506103Y-91728466D01*
X157536548Y-91753452D01*
X157561534Y-91783897D01*
X157580101Y-91818633D01*
X157591535Y-91856326D01*
X157596000Y-91901661D01*
X157596000Y-92738339D01*
X157591535Y-92783674D01*
X157580101Y-92821367D01*
X157561534Y-92856103D01*
X157536548Y-92886548D01*
X157506103Y-92911534D01*
X157471367Y-92930101D01*
X157433674Y-92941535D01*
X157388339Y-92946000D01*
X156301661Y-92946000D01*
X156256326Y-92941535D01*
X156218633Y-92930101D01*
X156183897Y-92911534D01*
X156153452Y-92886548D01*
X156128466Y-92856103D01*
X156109899Y-92821367D01*
X156098465Y-92783674D01*
X156094000Y-92738339D01*
X156094000Y-91901661D01*
X156098465Y-91856326D01*
X156109899Y-91818633D01*
X156128466Y-91783897D01*
X156153452Y-91753452D01*
X156183897Y-91728466D01*
X156218633Y-91709899D01*
X156256326Y-91698465D01*
X156301661Y-91694000D01*
X157388339Y-91694000D01*
X157433674Y-91698465D01*
G37*
G36*
X154258674Y-91698465D02*
G01*
X154296367Y-91709899D01*
X154331103Y-91728466D01*
X154361548Y-91753452D01*
X154386534Y-91783897D01*
X154405101Y-91818633D01*
X154416535Y-91856326D01*
X154421000Y-91901661D01*
X154421000Y-92738339D01*
X154416535Y-92783674D01*
X154405101Y-92821367D01*
X154386534Y-92856103D01*
X154361548Y-92886548D01*
X154331103Y-92911534D01*
X154296367Y-92930101D01*
X154258674Y-92941535D01*
X154213339Y-92946000D01*
X153126661Y-92946000D01*
X153081326Y-92941535D01*
X153043633Y-92930101D01*
X153008897Y-92911534D01*
X152978452Y-92886548D01*
X152953466Y-92856103D01*
X152934899Y-92821367D01*
X152923465Y-92783674D01*
X152919000Y-92738339D01*
X152919000Y-91901661D01*
X152923465Y-91856326D01*
X152934899Y-91818633D01*
X152953466Y-91783897D01*
X152978452Y-91753452D01*
X153008897Y-91728466D01*
X153043633Y-91709899D01*
X153081326Y-91698465D01*
X153126661Y-91694000D01*
X154213339Y-91694000D01*
X154258674Y-91698465D01*
G37*
G36*
X140288674Y-91698465D02*
G01*
X140326367Y-91709899D01*
X140361103Y-91728466D01*
X140391548Y-91753452D01*
X140416534Y-91783897D01*
X140435101Y-91818633D01*
X140446535Y-91856326D01*
X140451000Y-91901661D01*
X140451000Y-92738339D01*
X140446535Y-92783674D01*
X140435101Y-92821367D01*
X140416534Y-92856103D01*
X140391548Y-92886548D01*
X140361103Y-92911534D01*
X140326367Y-92930101D01*
X140288674Y-92941535D01*
X140243339Y-92946000D01*
X139156661Y-92946000D01*
X139111326Y-92941535D01*
X139073633Y-92930101D01*
X139038897Y-92911534D01*
X139008452Y-92886548D01*
X138983466Y-92856103D01*
X138964899Y-92821367D01*
X138953465Y-92783674D01*
X138949000Y-92738339D01*
X138949000Y-91901661D01*
X138953465Y-91856326D01*
X138964899Y-91818633D01*
X138983466Y-91783897D01*
X139008452Y-91753452D01*
X139038897Y-91728466D01*
X139073633Y-91709899D01*
X139111326Y-91698465D01*
X139156661Y-91694000D01*
X140243339Y-91694000D01*
X140288674Y-91698465D01*
G37*
G36*
X151083674Y-91698465D02*
G01*
X151121367Y-91709899D01*
X151156103Y-91728466D01*
X151186548Y-91753452D01*
X151211534Y-91783897D01*
X151230101Y-91818633D01*
X151241535Y-91856326D01*
X151246000Y-91901661D01*
X151246000Y-92738339D01*
X151241535Y-92783674D01*
X151230101Y-92821367D01*
X151211534Y-92856103D01*
X151186548Y-92886548D01*
X151156103Y-92911534D01*
X151121367Y-92930101D01*
X151083674Y-92941535D01*
X151038339Y-92946000D01*
X149951661Y-92946000D01*
X149906326Y-92941535D01*
X149868633Y-92930101D01*
X149833897Y-92911534D01*
X149803452Y-92886548D01*
X149778466Y-92856103D01*
X149759899Y-92821367D01*
X149748465Y-92783674D01*
X149744000Y-92738339D01*
X149744000Y-91901661D01*
X149748465Y-91856326D01*
X149759899Y-91818633D01*
X149778466Y-91783897D01*
X149803452Y-91753452D01*
X149833897Y-91728466D01*
X149868633Y-91709899D01*
X149906326Y-91698465D01*
X149951661Y-91694000D01*
X151038339Y-91694000D01*
X151083674Y-91698465D01*
G37*
G36*
X199249512Y-90543927D02*
G01*
X199398812Y-90573624D01*
X199562784Y-90641544D01*
X199710354Y-90740147D01*
X199835853Y-90865646D01*
X199934456Y-91013216D01*
X200002376Y-91177188D01*
X200037000Y-91351259D01*
X200037000Y-91528741D01*
X200002376Y-91702812D01*
X199934456Y-91866784D01*
X199835853Y-92014354D01*
X199710354Y-92139853D01*
X199562784Y-92238456D01*
X199398812Y-92306376D01*
X199249512Y-92336073D01*
X199224742Y-92341000D01*
X199047258Y-92341000D01*
X199022488Y-92336073D01*
X198873188Y-92306376D01*
X198709216Y-92238456D01*
X198561646Y-92139853D01*
X198436147Y-92014354D01*
X198337544Y-91866784D01*
X198269624Y-91702812D01*
X198235000Y-91528741D01*
X198235000Y-91351259D01*
X198269624Y-91177188D01*
X198337544Y-91013216D01*
X198436147Y-90865646D01*
X198561646Y-90740147D01*
X198709216Y-90641544D01*
X198873188Y-90573624D01*
X199022488Y-90543927D01*
X199047258Y-90539000D01*
X199224742Y-90539000D01*
X199249512Y-90543927D01*
G37*
G36*
X136235000Y-91765000D02*
G01*
X134933000Y-91765000D01*
X134933000Y-90613000D01*
X136235000Y-90613000D01*
X136235000Y-91765000D01*
G37*
G36*
X133565000Y-91765000D02*
G01*
X131263000Y-91765000D01*
X131263000Y-90613000D01*
X133565000Y-90613000D01*
X133565000Y-91765000D01*
G37*
G36*
X199249512Y-88003927D02*
G01*
X199398812Y-88033624D01*
X199562784Y-88101544D01*
X199710354Y-88200147D01*
X199835853Y-88325646D01*
X199934456Y-88473216D01*
X200002376Y-88637188D01*
X200037000Y-88811259D01*
X200037000Y-88988741D01*
X200002376Y-89162812D01*
X199934456Y-89326784D01*
X199835853Y-89474354D01*
X199710354Y-89599853D01*
X199562784Y-89698456D01*
X199398812Y-89766376D01*
X199249512Y-89796073D01*
X199224742Y-89801000D01*
X199047258Y-89801000D01*
X199022488Y-89796073D01*
X198873188Y-89766376D01*
X198709216Y-89698456D01*
X198561646Y-89599853D01*
X198436147Y-89474354D01*
X198337544Y-89326784D01*
X198269624Y-89162812D01*
X198235000Y-88988741D01*
X198235000Y-88811259D01*
X198269624Y-88637188D01*
X198337544Y-88473216D01*
X198436147Y-88325646D01*
X198561646Y-88200147D01*
X198709216Y-88101544D01*
X198873188Y-88033624D01*
X199022488Y-88003927D01*
X199047258Y-87999000D01*
X199224742Y-87999000D01*
X199249512Y-88003927D01*
G37*
G36*
X146552228Y-88081703D02*
G01*
X146707100Y-88145853D01*
X146846481Y-88238985D01*
X146965015Y-88357519D01*
X147058147Y-88496900D01*
X147122297Y-88651772D01*
X147155000Y-88816184D01*
X147155000Y-88983816D01*
X147122297Y-89148228D01*
X147058147Y-89303100D01*
X146965015Y-89442481D01*
X146846481Y-89561015D01*
X146707100Y-89654147D01*
X146552228Y-89718297D01*
X146387816Y-89751000D01*
X146220184Y-89751000D01*
X146055772Y-89718297D01*
X145900900Y-89654147D01*
X145761519Y-89561015D01*
X145642985Y-89442481D01*
X145549853Y-89303100D01*
X145485703Y-89148228D01*
X145453000Y-88983816D01*
X145453000Y-88816184D01*
X145485703Y-88651772D01*
X145549853Y-88496900D01*
X145642985Y-88357519D01*
X145761519Y-88238985D01*
X145900900Y-88145853D01*
X146055772Y-88081703D01*
X146220184Y-88049000D01*
X146387816Y-88049000D01*
X146552228Y-88081703D01*
G37*
G36*
X167475000Y-89751000D02*
G01*
X165773000Y-89751000D01*
X165773000Y-88049000D01*
X167475000Y-88049000D01*
X167475000Y-89751000D01*
G37*
G36*
X156712228Y-88081703D02*
G01*
X156867100Y-88145853D01*
X157006481Y-88238985D01*
X157125015Y-88357519D01*
X157218147Y-88496900D01*
X157282297Y-88651772D01*
X157315000Y-88816184D01*
X157315000Y-88983816D01*
X157282297Y-89148228D01*
X157218147Y-89303100D01*
X157125015Y-89442481D01*
X157006481Y-89561015D01*
X156867100Y-89654147D01*
X156712228Y-89718297D01*
X156547816Y-89751000D01*
X156380184Y-89751000D01*
X156215772Y-89718297D01*
X156060900Y-89654147D01*
X155921519Y-89561015D01*
X155802985Y-89442481D01*
X155709853Y-89303100D01*
X155645703Y-89148228D01*
X155613000Y-88983816D01*
X155613000Y-88816184D01*
X155645703Y-88651772D01*
X155709853Y-88496900D01*
X155802985Y-88357519D01*
X155921519Y-88238985D01*
X156060900Y-88145853D01*
X156215772Y-88081703D01*
X156380184Y-88049000D01*
X156547816Y-88049000D01*
X156712228Y-88081703D01*
G37*
G36*
X161792228Y-88081703D02*
G01*
X161947100Y-88145853D01*
X162086481Y-88238985D01*
X162205015Y-88357519D01*
X162298147Y-88496900D01*
X162362297Y-88651772D01*
X162395000Y-88816184D01*
X162395000Y-88983816D01*
X162362297Y-89148228D01*
X162298147Y-89303100D01*
X162205015Y-89442481D01*
X162086481Y-89561015D01*
X161947100Y-89654147D01*
X161792228Y-89718297D01*
X161627816Y-89751000D01*
X161460184Y-89751000D01*
X161295772Y-89718297D01*
X161140900Y-89654147D01*
X161001519Y-89561015D01*
X160882985Y-89442481D01*
X160789853Y-89303100D01*
X160725703Y-89148228D01*
X160693000Y-88983816D01*
X160693000Y-88816184D01*
X160725703Y-88651772D01*
X160789853Y-88496900D01*
X160882985Y-88357519D01*
X161001519Y-88238985D01*
X161140900Y-88145853D01*
X161295772Y-88081703D01*
X161460184Y-88049000D01*
X161627816Y-88049000D01*
X161792228Y-88081703D01*
G37*
G36*
X164332228Y-88081703D02*
G01*
X164487100Y-88145853D01*
X164626481Y-88238985D01*
X164745015Y-88357519D01*
X164838147Y-88496900D01*
X164902297Y-88651772D01*
X164935000Y-88816184D01*
X164935000Y-88983816D01*
X164902297Y-89148228D01*
X164838147Y-89303100D01*
X164745015Y-89442481D01*
X164626481Y-89561015D01*
X164487100Y-89654147D01*
X164332228Y-89718297D01*
X164167816Y-89751000D01*
X164000184Y-89751000D01*
X163835772Y-89718297D01*
X163680900Y-89654147D01*
X163541519Y-89561015D01*
X163422985Y-89442481D01*
X163329853Y-89303100D01*
X163265703Y-89148228D01*
X163233000Y-88983816D01*
X163233000Y-88816184D01*
X163265703Y-88651772D01*
X163329853Y-88496900D01*
X163422985Y-88357519D01*
X163541519Y-88238985D01*
X163680900Y-88145853D01*
X163835772Y-88081703D01*
X164000184Y-88049000D01*
X164167816Y-88049000D01*
X164332228Y-88081703D01*
G37*
G36*
X159252228Y-88081703D02*
G01*
X159407100Y-88145853D01*
X159546481Y-88238985D01*
X159665015Y-88357519D01*
X159758147Y-88496900D01*
X159822297Y-88651772D01*
X159855000Y-88816184D01*
X159855000Y-88983816D01*
X159822297Y-89148228D01*
X159758147Y-89303100D01*
X159665015Y-89442481D01*
X159546481Y-89561015D01*
X159407100Y-89654147D01*
X159252228Y-89718297D01*
X159087816Y-89751000D01*
X158920184Y-89751000D01*
X158755772Y-89718297D01*
X158600900Y-89654147D01*
X158461519Y-89561015D01*
X158342985Y-89442481D01*
X158249853Y-89303100D01*
X158185703Y-89148228D01*
X158153000Y-88983816D01*
X158153000Y-88816184D01*
X158185703Y-88651772D01*
X158249853Y-88496900D01*
X158342985Y-88357519D01*
X158461519Y-88238985D01*
X158600900Y-88145853D01*
X158755772Y-88081703D01*
X158920184Y-88049000D01*
X159087816Y-88049000D01*
X159252228Y-88081703D01*
G37*
G36*
X154172228Y-88081703D02*
G01*
X154327100Y-88145853D01*
X154466481Y-88238985D01*
X154585015Y-88357519D01*
X154678147Y-88496900D01*
X154742297Y-88651772D01*
X154775000Y-88816184D01*
X154775000Y-88983816D01*
X154742297Y-89148228D01*
X154678147Y-89303100D01*
X154585015Y-89442481D01*
X154466481Y-89561015D01*
X154327100Y-89654147D01*
X154172228Y-89718297D01*
X154007816Y-89751000D01*
X153840184Y-89751000D01*
X153675772Y-89718297D01*
X153520900Y-89654147D01*
X153381519Y-89561015D01*
X153262985Y-89442481D01*
X153169853Y-89303100D01*
X153105703Y-89148228D01*
X153073000Y-88983816D01*
X153073000Y-88816184D01*
X153105703Y-88651772D01*
X153169853Y-88496900D01*
X153262985Y-88357519D01*
X153381519Y-88238985D01*
X153520900Y-88145853D01*
X153675772Y-88081703D01*
X153840184Y-88049000D01*
X154007816Y-88049000D01*
X154172228Y-88081703D01*
G37*
G36*
X151632228Y-88081703D02*
G01*
X151787100Y-88145853D01*
X151926481Y-88238985D01*
X152045015Y-88357519D01*
X152138147Y-88496900D01*
X152202297Y-88651772D01*
X152235000Y-88816184D01*
X152235000Y-88983816D01*
X152202297Y-89148228D01*
X152138147Y-89303100D01*
X152045015Y-89442481D01*
X151926481Y-89561015D01*
X151787100Y-89654147D01*
X151632228Y-89718297D01*
X151467816Y-89751000D01*
X151300184Y-89751000D01*
X151135772Y-89718297D01*
X150980900Y-89654147D01*
X150841519Y-89561015D01*
X150722985Y-89442481D01*
X150629853Y-89303100D01*
X150565703Y-89148228D01*
X150533000Y-88983816D01*
X150533000Y-88816184D01*
X150565703Y-88651772D01*
X150629853Y-88496900D01*
X150722985Y-88357519D01*
X150841519Y-88238985D01*
X150980900Y-88145853D01*
X151135772Y-88081703D01*
X151300184Y-88049000D01*
X151467816Y-88049000D01*
X151632228Y-88081703D01*
G37*
G36*
X149092228Y-88081703D02*
G01*
X149247100Y-88145853D01*
X149386481Y-88238985D01*
X149505015Y-88357519D01*
X149598147Y-88496900D01*
X149662297Y-88651772D01*
X149695000Y-88816184D01*
X149695000Y-88983816D01*
X149662297Y-89148228D01*
X149598147Y-89303100D01*
X149505015Y-89442481D01*
X149386481Y-89561015D01*
X149247100Y-89654147D01*
X149092228Y-89718297D01*
X148927816Y-89751000D01*
X148760184Y-89751000D01*
X148595772Y-89718297D01*
X148440900Y-89654147D01*
X148301519Y-89561015D01*
X148182985Y-89442481D01*
X148089853Y-89303100D01*
X148025703Y-89148228D01*
X147993000Y-88983816D01*
X147993000Y-88816184D01*
X148025703Y-88651772D01*
X148089853Y-88496900D01*
X148182985Y-88357519D01*
X148301519Y-88238985D01*
X148440900Y-88145853D01*
X148595772Y-88081703D01*
X148760184Y-88049000D01*
X148927816Y-88049000D01*
X149092228Y-88081703D01*
G37*
G36*
X131312228Y-88081703D02*
G01*
X131467100Y-88145853D01*
X131606481Y-88238985D01*
X131725015Y-88357519D01*
X131818147Y-88496900D01*
X131882297Y-88651772D01*
X131915000Y-88816184D01*
X131915000Y-88983816D01*
X131882297Y-89148228D01*
X131818147Y-89303100D01*
X131725015Y-89442481D01*
X131606481Y-89561015D01*
X131467100Y-89654147D01*
X131312228Y-89718297D01*
X131147816Y-89751000D01*
X130980184Y-89751000D01*
X130815772Y-89718297D01*
X130660900Y-89654147D01*
X130521519Y-89561015D01*
X130402985Y-89442481D01*
X130309853Y-89303100D01*
X130245703Y-89148228D01*
X130213000Y-88983816D01*
X130213000Y-88816184D01*
X130245703Y-88651772D01*
X130309853Y-88496900D01*
X130402985Y-88357519D01*
X130521519Y-88238985D01*
X130660900Y-88145853D01*
X130815772Y-88081703D01*
X130980184Y-88049000D01*
X131147816Y-88049000D01*
X131312228Y-88081703D01*
G37*
G36*
X136392228Y-88081703D02*
G01*
X136547100Y-88145853D01*
X136686481Y-88238985D01*
X136805015Y-88357519D01*
X136898147Y-88496900D01*
X136962297Y-88651772D01*
X136995000Y-88816184D01*
X136995000Y-88983816D01*
X136962297Y-89148228D01*
X136898147Y-89303100D01*
X136805015Y-89442481D01*
X136686481Y-89561015D01*
X136547100Y-89654147D01*
X136392228Y-89718297D01*
X136227816Y-89751000D01*
X136060184Y-89751000D01*
X135895772Y-89718297D01*
X135740900Y-89654147D01*
X135601519Y-89561015D01*
X135482985Y-89442481D01*
X135389853Y-89303100D01*
X135325703Y-89148228D01*
X135293000Y-88983816D01*
X135293000Y-88816184D01*
X135325703Y-88651772D01*
X135389853Y-88496900D01*
X135482985Y-88357519D01*
X135601519Y-88238985D01*
X135740900Y-88145853D01*
X135895772Y-88081703D01*
X136060184Y-88049000D01*
X136227816Y-88049000D01*
X136392228Y-88081703D01*
G37*
G36*
X144012228Y-88081703D02*
G01*
X144167100Y-88145853D01*
X144306481Y-88238985D01*
X144425015Y-88357519D01*
X144518147Y-88496900D01*
X144582297Y-88651772D01*
X144615000Y-88816184D01*
X144615000Y-88983816D01*
X144582297Y-89148228D01*
X144518147Y-89303100D01*
X144425015Y-89442481D01*
X144306481Y-89561015D01*
X144167100Y-89654147D01*
X144012228Y-89718297D01*
X143847816Y-89751000D01*
X143680184Y-89751000D01*
X143515772Y-89718297D01*
X143360900Y-89654147D01*
X143221519Y-89561015D01*
X143102985Y-89442481D01*
X143009853Y-89303100D01*
X142945703Y-89148228D01*
X142913000Y-88983816D01*
X142913000Y-88816184D01*
X142945703Y-88651772D01*
X143009853Y-88496900D01*
X143102985Y-88357519D01*
X143221519Y-88238985D01*
X143360900Y-88145853D01*
X143515772Y-88081703D01*
X143680184Y-88049000D01*
X143847816Y-88049000D01*
X144012228Y-88081703D01*
G37*
G36*
X141472228Y-88081703D02*
G01*
X141627100Y-88145853D01*
X141766481Y-88238985D01*
X141885015Y-88357519D01*
X141978147Y-88496900D01*
X142042297Y-88651772D01*
X142075000Y-88816184D01*
X142075000Y-88983816D01*
X142042297Y-89148228D01*
X141978147Y-89303100D01*
X141885015Y-89442481D01*
X141766481Y-89561015D01*
X141627100Y-89654147D01*
X141472228Y-89718297D01*
X141307816Y-89751000D01*
X141140184Y-89751000D01*
X140975772Y-89718297D01*
X140820900Y-89654147D01*
X140681519Y-89561015D01*
X140562985Y-89442481D01*
X140469853Y-89303100D01*
X140405703Y-89148228D01*
X140373000Y-88983816D01*
X140373000Y-88816184D01*
X140405703Y-88651772D01*
X140469853Y-88496900D01*
X140562985Y-88357519D01*
X140681519Y-88238985D01*
X140820900Y-88145853D01*
X140975772Y-88081703D01*
X141140184Y-88049000D01*
X141307816Y-88049000D01*
X141472228Y-88081703D01*
G37*
G36*
X138932228Y-88081703D02*
G01*
X139087100Y-88145853D01*
X139226481Y-88238985D01*
X139345015Y-88357519D01*
X139438147Y-88496900D01*
X139502297Y-88651772D01*
X139535000Y-88816184D01*
X139535000Y-88983816D01*
X139502297Y-89148228D01*
X139438147Y-89303100D01*
X139345015Y-89442481D01*
X139226481Y-89561015D01*
X139087100Y-89654147D01*
X138932228Y-89718297D01*
X138767816Y-89751000D01*
X138600184Y-89751000D01*
X138435772Y-89718297D01*
X138280900Y-89654147D01*
X138141519Y-89561015D01*
X138022985Y-89442481D01*
X137929853Y-89303100D01*
X137865703Y-89148228D01*
X137833000Y-88983816D01*
X137833000Y-88816184D01*
X137865703Y-88651772D01*
X137929853Y-88496900D01*
X138022985Y-88357519D01*
X138141519Y-88238985D01*
X138280900Y-88145853D01*
X138435772Y-88081703D01*
X138600184Y-88049000D01*
X138767816Y-88049000D01*
X138932228Y-88081703D01*
G37*
G36*
X133852228Y-88081703D02*
G01*
X134007100Y-88145853D01*
X134146481Y-88238985D01*
X134265015Y-88357519D01*
X134358147Y-88496900D01*
X134422297Y-88651772D01*
X134455000Y-88816184D01*
X134455000Y-88983816D01*
X134422297Y-89148228D01*
X134358147Y-89303100D01*
X134265015Y-89442481D01*
X134146481Y-89561015D01*
X134007100Y-89654147D01*
X133852228Y-89718297D01*
X133687816Y-89751000D01*
X133520184Y-89751000D01*
X133355772Y-89718297D01*
X133200900Y-89654147D01*
X133061519Y-89561015D01*
X132942985Y-89442481D01*
X132849853Y-89303100D01*
X132785703Y-89148228D01*
X132753000Y-88983816D01*
X132753000Y-88816184D01*
X132785703Y-88651772D01*
X132849853Y-88496900D01*
X132942985Y-88357519D01*
X133061519Y-88238985D01*
X133200900Y-88145853D01*
X133355772Y-88081703D01*
X133520184Y-88049000D01*
X133687816Y-88049000D01*
X133852228Y-88081703D01*
G37*
G36*
X200037000Y-87261000D02*
G01*
X198235000Y-87261000D01*
X198235000Y-85459000D01*
X200037000Y-85459000D01*
X200037000Y-87261000D01*
G37*
G36*
X130823072Y-81170918D02*
G01*
X131068939Y-81272759D01*
X131180328Y-81347187D01*
X131290211Y-81420609D01*
X131478391Y-81608789D01*
X131490248Y-81626534D01*
X131626241Y-81830061D01*
X131728082Y-82075928D01*
X131780000Y-82336938D01*
X131780000Y-82603062D01*
X131728082Y-82864072D01*
X131626241Y-83109939D01*
X131478390Y-83331212D01*
X131290212Y-83519390D01*
X131068939Y-83667241D01*
X131068938Y-83667242D01*
X131068937Y-83667242D01*
X130823072Y-83769082D01*
X130562063Y-83821000D01*
X130295937Y-83821000D01*
X130034928Y-83769082D01*
X129789063Y-83667242D01*
X129789062Y-83667242D01*
X129789061Y-83667241D01*
X129567788Y-83519390D01*
X129379610Y-83331212D01*
X129231759Y-83109939D01*
X129129918Y-82864072D01*
X129078000Y-82603062D01*
X129078000Y-82336938D01*
X129129918Y-82075928D01*
X129231759Y-81830061D01*
X129367752Y-81626534D01*
X129379609Y-81608789D01*
X129567789Y-81420609D01*
X129677672Y-81347187D01*
X129789061Y-81272759D01*
X130034928Y-81170918D01*
X130295937Y-81119000D01*
X130562063Y-81119000D01*
X130823072Y-81170918D01*
G37*
G36*
X139018674Y-80413465D02*
G01*
X139056367Y-80424899D01*
X139091103Y-80443466D01*
X139121548Y-80468452D01*
X139146534Y-80498897D01*
X139165101Y-80533633D01*
X139176535Y-80571326D01*
X139181000Y-80616661D01*
X139181000Y-81453339D01*
X139176535Y-81498674D01*
X139165101Y-81536367D01*
X139146534Y-81571103D01*
X139121548Y-81601548D01*
X139091103Y-81626534D01*
X139056367Y-81645101D01*
X139018674Y-81656535D01*
X138973339Y-81661000D01*
X137886661Y-81661000D01*
X137841326Y-81656535D01*
X137803633Y-81645101D01*
X137768897Y-81626534D01*
X137738452Y-81601548D01*
X137713466Y-81571103D01*
X137694899Y-81536367D01*
X137683465Y-81498674D01*
X137679000Y-81453339D01*
X137679000Y-80616661D01*
X137683465Y-80571326D01*
X137694899Y-80533633D01*
X137713466Y-80498897D01*
X137738452Y-80468452D01*
X137768897Y-80443466D01*
X137803633Y-80424899D01*
X137841326Y-80413465D01*
X137886661Y-80409000D01*
X138973339Y-80409000D01*
X139018674Y-80413465D01*
G37*
G36*
X200037000Y-80911000D02*
G01*
X198235000Y-80911000D01*
X198235000Y-79109000D01*
X200037000Y-79109000D01*
X200037000Y-80911000D01*
G37*
G36*
X139018674Y-78363465D02*
G01*
X139056367Y-78374899D01*
X139091103Y-78393466D01*
X139121548Y-78418452D01*
X139146534Y-78448897D01*
X139165101Y-78483633D01*
X139176535Y-78521326D01*
X139181000Y-78566661D01*
X139181000Y-79403339D01*
X139176535Y-79448674D01*
X139165101Y-79486367D01*
X139146534Y-79521103D01*
X139121548Y-79551548D01*
X139091103Y-79576534D01*
X139056367Y-79595101D01*
X139018674Y-79606535D01*
X138973339Y-79611000D01*
X137886661Y-79611000D01*
X137841326Y-79606535D01*
X137803633Y-79595101D01*
X137768897Y-79576534D01*
X137738452Y-79551548D01*
X137713466Y-79521103D01*
X137694899Y-79486367D01*
X137683465Y-79448674D01*
X137679000Y-79403339D01*
X137679000Y-78566661D01*
X137683465Y-78521326D01*
X137694899Y-78483633D01*
X137713466Y-78448897D01*
X137738452Y-78418452D01*
X137768897Y-78393466D01*
X137803633Y-78374899D01*
X137841326Y-78363465D01*
X137886661Y-78359000D01*
X138973339Y-78359000D01*
X139018674Y-78363465D01*
G37*
G36*
X131780000Y-78821000D02*
G01*
X129078000Y-78821000D01*
X129078000Y-76119000D01*
X131780000Y-76119000D01*
X131780000Y-78821000D01*
G37*
G36*
X199249512Y-76573927D02*
G01*
X199398812Y-76603624D01*
X199562784Y-76671544D01*
X199710354Y-76770147D01*
X199835853Y-76895646D01*
X199934456Y-77043216D01*
X200002376Y-77207188D01*
X200037000Y-77381259D01*
X200037000Y-77558741D01*
X200002376Y-77732812D01*
X199934456Y-77896784D01*
X199835853Y-78044354D01*
X199710354Y-78169853D01*
X199562784Y-78268456D01*
X199398812Y-78336376D01*
X199258777Y-78364230D01*
X199224742Y-78371000D01*
X199047258Y-78371000D01*
X199013223Y-78364230D01*
X198873188Y-78336376D01*
X198709216Y-78268456D01*
X198561646Y-78169853D01*
X198436147Y-78044354D01*
X198337544Y-77896784D01*
X198269624Y-77732812D01*
X198235000Y-77558741D01*
X198235000Y-77381259D01*
X198269624Y-77207188D01*
X198337544Y-77043216D01*
X198436147Y-76895646D01*
X198561646Y-76770147D01*
X198709216Y-76671544D01*
X198873188Y-76603624D01*
X199022488Y-76573927D01*
X199047258Y-76569000D01*
X199224742Y-76569000D01*
X199249512Y-76573927D01*
G37*
G36*
X181563674Y-76603465D02*
G01*
X181601367Y-76614899D01*
X181636103Y-76633466D01*
X181666548Y-76658452D01*
X181691534Y-76688897D01*
X181710101Y-76723633D01*
X181721535Y-76761326D01*
X181726000Y-76806661D01*
X181726000Y-77643339D01*
X181721535Y-77688674D01*
X181710101Y-77726367D01*
X181691534Y-77761103D01*
X181666548Y-77791548D01*
X181636103Y-77816534D01*
X181601367Y-77835101D01*
X181563674Y-77846535D01*
X181518339Y-77851000D01*
X180431661Y-77851000D01*
X180386326Y-77846535D01*
X180348633Y-77835101D01*
X180313897Y-77816534D01*
X180283452Y-77791548D01*
X180258466Y-77761103D01*
X180239899Y-77726367D01*
X180228465Y-77688674D01*
X180224000Y-77643339D01*
X180224000Y-76806661D01*
X180228465Y-76761326D01*
X180239899Y-76723633D01*
X180258466Y-76688897D01*
X180283452Y-76658452D01*
X180313897Y-76633466D01*
X180348633Y-76614899D01*
X180386326Y-76603465D01*
X180431661Y-76599000D01*
X181518339Y-76599000D01*
X181563674Y-76603465D01*
G37*
G36*
X187543674Y-75453465D02*
G01*
X187581367Y-75464899D01*
X187616103Y-75483466D01*
X187646548Y-75508452D01*
X187671534Y-75538897D01*
X187690101Y-75573633D01*
X187701535Y-75611326D01*
X187706000Y-75656661D01*
X187706000Y-76743339D01*
X187701535Y-76788674D01*
X187690101Y-76826367D01*
X187671534Y-76861103D01*
X187646548Y-76891548D01*
X187616103Y-76916534D01*
X187581367Y-76935101D01*
X187543674Y-76946535D01*
X187498339Y-76951000D01*
X186661661Y-76951000D01*
X186616326Y-76946535D01*
X186578633Y-76935101D01*
X186543897Y-76916534D01*
X186513452Y-76891548D01*
X186488466Y-76861103D01*
X186469899Y-76826367D01*
X186458465Y-76788674D01*
X186454000Y-76743339D01*
X186454000Y-75656661D01*
X186458465Y-75611326D01*
X186469899Y-75573633D01*
X186488466Y-75538897D01*
X186513452Y-75508452D01*
X186543897Y-75483466D01*
X186578633Y-75464899D01*
X186616326Y-75453465D01*
X186661661Y-75449000D01*
X187498339Y-75449000D01*
X187543674Y-75453465D01*
G37*
G36*
X185493674Y-75453465D02*
G01*
X185531367Y-75464899D01*
X185566103Y-75483466D01*
X185596548Y-75508452D01*
X185621534Y-75538897D01*
X185640101Y-75573633D01*
X185651535Y-75611326D01*
X185656000Y-75656661D01*
X185656000Y-76743339D01*
X185651535Y-76788674D01*
X185640101Y-76826367D01*
X185621534Y-76861103D01*
X185596548Y-76891548D01*
X185566103Y-76916534D01*
X185531367Y-76935101D01*
X185493674Y-76946535D01*
X185448339Y-76951000D01*
X184611661Y-76951000D01*
X184566326Y-76946535D01*
X184528633Y-76935101D01*
X184493897Y-76916534D01*
X184463452Y-76891548D01*
X184438466Y-76861103D01*
X184419899Y-76826367D01*
X184408465Y-76788674D01*
X184404000Y-76743339D01*
X184404000Y-75656661D01*
X184408465Y-75611326D01*
X184419899Y-75573633D01*
X184438466Y-75538897D01*
X184463452Y-75508452D01*
X184493897Y-75483466D01*
X184528633Y-75464899D01*
X184566326Y-75453465D01*
X184611661Y-75449000D01*
X185448339Y-75449000D01*
X185493674Y-75453465D01*
G37*
G36*
X199249512Y-74033927D02*
G01*
X199398812Y-74063624D01*
X199562784Y-74131544D01*
X199710354Y-74230147D01*
X199835853Y-74355646D01*
X199934456Y-74503216D01*
X200002376Y-74667188D01*
X200037000Y-74841259D01*
X200037000Y-75018741D01*
X200002376Y-75192812D01*
X199934456Y-75356784D01*
X199835853Y-75504354D01*
X199710354Y-75629853D01*
X199562784Y-75728456D01*
X199398812Y-75796376D01*
X199249512Y-75826073D01*
X199224742Y-75831000D01*
X199047258Y-75831000D01*
X199022488Y-75826073D01*
X198873188Y-75796376D01*
X198709216Y-75728456D01*
X198561646Y-75629853D01*
X198436147Y-75504354D01*
X198337544Y-75356784D01*
X198269624Y-75192812D01*
X198235000Y-75018741D01*
X198235000Y-74841259D01*
X198269624Y-74667188D01*
X198337544Y-74503216D01*
X198436147Y-74355646D01*
X198561646Y-74230147D01*
X198709216Y-74131544D01*
X198873188Y-74063624D01*
X199022488Y-74033927D01*
X199047258Y-74029000D01*
X199224742Y-74029000D01*
X199249512Y-74033927D01*
G37*
G36*
X181563674Y-74553465D02*
G01*
X181601367Y-74564899D01*
X181636103Y-74583466D01*
X181666548Y-74608452D01*
X181691534Y-74638897D01*
X181710101Y-74673633D01*
X181721535Y-74711326D01*
X181726000Y-74756661D01*
X181726000Y-75593339D01*
X181721535Y-75638674D01*
X181710101Y-75676367D01*
X181691534Y-75711103D01*
X181666548Y-75741548D01*
X181636103Y-75766534D01*
X181601367Y-75785101D01*
X181563674Y-75796535D01*
X181518339Y-75801000D01*
X180431661Y-75801000D01*
X180386326Y-75796535D01*
X180348633Y-75785101D01*
X180313897Y-75766534D01*
X180283452Y-75741548D01*
X180258466Y-75711103D01*
X180239899Y-75676367D01*
X180228465Y-75638674D01*
X180224000Y-75593339D01*
X180224000Y-74756661D01*
X180228465Y-74711326D01*
X180239899Y-74673633D01*
X180258466Y-74638897D01*
X180283452Y-74608452D01*
X180313897Y-74583466D01*
X180348633Y-74564899D01*
X180386326Y-74553465D01*
X180431661Y-74549000D01*
X181518339Y-74549000D01*
X181563674Y-74553465D01*
G37*
G36*
X130823072Y-71170918D02*
G01*
X130962878Y-71228827D01*
X131068939Y-71272759D01*
X131099739Y-71293339D01*
X131290211Y-71420609D01*
X131478391Y-71608789D01*
X131541330Y-71702983D01*
X131600330Y-71791282D01*
X131626242Y-71830063D01*
X131728082Y-72075928D01*
X131780000Y-72336937D01*
X131780000Y-72603063D01*
X131728082Y-72864072D01*
X131686545Y-72964353D01*
X131626241Y-73109939D01*
X131478390Y-73331212D01*
X131290212Y-73519390D01*
X131068939Y-73667241D01*
X131068938Y-73667242D01*
X131068937Y-73667242D01*
X130823072Y-73769082D01*
X130562063Y-73821000D01*
X130295937Y-73821000D01*
X130034928Y-73769082D01*
X129789063Y-73667242D01*
X129789062Y-73667242D01*
X129789061Y-73667241D01*
X129567788Y-73519390D01*
X129379610Y-73331212D01*
X129231759Y-73109939D01*
X129171456Y-72964353D01*
X129129918Y-72864072D01*
X129078000Y-72603063D01*
X129078000Y-72336937D01*
X129129918Y-72075928D01*
X129231758Y-71830063D01*
X129257671Y-71791282D01*
X129316670Y-71702983D01*
X129379609Y-71608789D01*
X129567789Y-71420609D01*
X129758261Y-71293339D01*
X129789061Y-71272759D01*
X129895123Y-71228827D01*
X130034928Y-71170918D01*
X130295937Y-71119000D01*
X130562063Y-71119000D01*
X130823072Y-71170918D01*
G37*
G36*
X199249512Y-71493927D02*
G01*
X199398812Y-71523624D01*
X199562784Y-71591544D01*
X199710354Y-71690147D01*
X199835853Y-71815646D01*
X199934456Y-71963216D01*
X200002376Y-72127188D01*
X200037000Y-72301259D01*
X200037000Y-72478741D01*
X200002376Y-72652812D01*
X199934456Y-72816784D01*
X199835853Y-72964354D01*
X199710354Y-73089853D01*
X199562784Y-73188456D01*
X199398812Y-73256376D01*
X199249512Y-73286073D01*
X199224742Y-73291000D01*
X199047258Y-73291000D01*
X199022488Y-73286073D01*
X198873188Y-73256376D01*
X198709216Y-73188456D01*
X198561646Y-73089853D01*
X198436147Y-72964354D01*
X198337544Y-72816784D01*
X198269624Y-72652812D01*
X198235000Y-72478741D01*
X198235000Y-72301259D01*
X198269624Y-72127188D01*
X198337544Y-71963216D01*
X198436147Y-71815646D01*
X198561646Y-71690147D01*
X198709216Y-71591544D01*
X198873188Y-71523624D01*
X199022488Y-71493927D01*
X199047258Y-71489000D01*
X199224742Y-71489000D01*
X199249512Y-71493927D01*
G37*
G36*
X181563674Y-71523465D02*
G01*
X181601367Y-71534899D01*
X181636103Y-71553466D01*
X181666548Y-71578452D01*
X181691534Y-71608897D01*
X181710101Y-71643633D01*
X181721535Y-71681326D01*
X181726000Y-71726661D01*
X181726000Y-72563339D01*
X181721535Y-72608674D01*
X181710101Y-72646367D01*
X181691534Y-72681103D01*
X181666548Y-72711548D01*
X181636103Y-72736534D01*
X181601367Y-72755101D01*
X181563674Y-72766535D01*
X181518339Y-72771000D01*
X180431661Y-72771000D01*
X180386326Y-72766535D01*
X180348633Y-72755101D01*
X180313897Y-72736534D01*
X180283452Y-72711548D01*
X180258466Y-72681103D01*
X180239899Y-72646367D01*
X180228465Y-72608674D01*
X180224000Y-72563339D01*
X180224000Y-71726661D01*
X180228465Y-71681326D01*
X180239899Y-71643633D01*
X180258466Y-71608897D01*
X180283452Y-71578452D01*
X180313897Y-71553466D01*
X180348633Y-71534899D01*
X180386326Y-71523465D01*
X180431661Y-71519000D01*
X181518339Y-71519000D01*
X181563674Y-71523465D01*
G37*
G36*
X187543674Y-70373465D02*
G01*
X187581367Y-70384899D01*
X187616103Y-70403466D01*
X187646548Y-70428452D01*
X187671534Y-70458897D01*
X187690101Y-70493633D01*
X187701535Y-70531326D01*
X187706000Y-70576661D01*
X187706000Y-71663339D01*
X187701535Y-71708674D01*
X187690101Y-71746367D01*
X187671534Y-71781103D01*
X187646548Y-71811548D01*
X187616103Y-71836534D01*
X187581367Y-71855101D01*
X187543674Y-71866535D01*
X187498339Y-71871000D01*
X186661661Y-71871000D01*
X186616326Y-71866535D01*
X186578633Y-71855101D01*
X186543897Y-71836534D01*
X186513452Y-71811548D01*
X186488466Y-71781103D01*
X186469899Y-71746367D01*
X186458465Y-71708674D01*
X186454000Y-71663339D01*
X186454000Y-70576661D01*
X186458465Y-70531326D01*
X186469899Y-70493633D01*
X186488466Y-70458897D01*
X186513452Y-70428452D01*
X186543897Y-70403466D01*
X186578633Y-70384899D01*
X186616326Y-70373465D01*
X186661661Y-70369000D01*
X187498339Y-70369000D01*
X187543674Y-70373465D01*
G37*
G36*
X185493674Y-70373465D02*
G01*
X185531367Y-70384899D01*
X185566103Y-70403466D01*
X185596548Y-70428452D01*
X185621534Y-70458897D01*
X185640101Y-70493633D01*
X185651535Y-70531326D01*
X185656000Y-70576661D01*
X185656000Y-71663339D01*
X185651535Y-71708674D01*
X185640101Y-71746367D01*
X185621534Y-71781103D01*
X185596548Y-71811548D01*
X185566103Y-71836534D01*
X185531367Y-71855101D01*
X185493674Y-71866535D01*
X185448339Y-71871000D01*
X184611661Y-71871000D01*
X184566326Y-71866535D01*
X184528633Y-71855101D01*
X184493897Y-71836534D01*
X184463452Y-71811548D01*
X184438466Y-71781103D01*
X184419899Y-71746367D01*
X184408465Y-71708674D01*
X184404000Y-71663339D01*
X184404000Y-70576661D01*
X184408465Y-70531326D01*
X184419899Y-70493633D01*
X184438466Y-70458897D01*
X184463452Y-70428452D01*
X184493897Y-70403466D01*
X184528633Y-70384899D01*
X184566326Y-70373465D01*
X184611661Y-70369000D01*
X185448339Y-70369000D01*
X185493674Y-70373465D01*
G37*
G36*
X178018674Y-70373465D02*
G01*
X178056367Y-70384899D01*
X178091103Y-70403466D01*
X178121548Y-70428452D01*
X178146534Y-70458897D01*
X178165101Y-70493633D01*
X178176535Y-70531326D01*
X178181000Y-70576661D01*
X178181000Y-71663339D01*
X178176535Y-71708674D01*
X178165101Y-71746367D01*
X178146534Y-71781103D01*
X178121548Y-71811548D01*
X178091103Y-71836534D01*
X178056367Y-71855101D01*
X178018674Y-71866535D01*
X177973339Y-71871000D01*
X177136661Y-71871000D01*
X177091326Y-71866535D01*
X177053633Y-71855101D01*
X177018897Y-71836534D01*
X176988452Y-71811548D01*
X176963466Y-71781103D01*
X176944899Y-71746367D01*
X176933465Y-71708674D01*
X176929000Y-71663339D01*
X176929000Y-70576661D01*
X176933465Y-70531326D01*
X176944899Y-70493633D01*
X176963466Y-70458897D01*
X176988452Y-70428452D01*
X177018897Y-70403466D01*
X177053633Y-70384899D01*
X177091326Y-70373465D01*
X177136661Y-70369000D01*
X177973339Y-70369000D01*
X178018674Y-70373465D01*
G37*
G36*
X175968674Y-70373465D02*
G01*
X176006367Y-70384899D01*
X176041103Y-70403466D01*
X176071548Y-70428452D01*
X176096534Y-70458897D01*
X176115101Y-70493633D01*
X176126535Y-70531326D01*
X176131000Y-70576661D01*
X176131000Y-71663339D01*
X176126535Y-71708674D01*
X176115101Y-71746367D01*
X176096534Y-71781103D01*
X176071548Y-71811548D01*
X176041103Y-71836534D01*
X176006367Y-71855101D01*
X175968674Y-71866535D01*
X175923339Y-71871000D01*
X175086661Y-71871000D01*
X175041326Y-71866535D01*
X175003633Y-71855101D01*
X174968897Y-71836534D01*
X174938452Y-71811548D01*
X174913466Y-71781103D01*
X174894899Y-71746367D01*
X174883465Y-71708674D01*
X174879000Y-71663339D01*
X174879000Y-70576661D01*
X174883465Y-70531326D01*
X174894899Y-70493633D01*
X174913466Y-70458897D01*
X174938452Y-70428452D01*
X174968897Y-70403466D01*
X175003633Y-70384899D01*
X175041326Y-70373465D01*
X175086661Y-70369000D01*
X175923339Y-70369000D01*
X175968674Y-70373465D01*
G37*
G36*
X139018674Y-70253465D02*
G01*
X139056367Y-70264899D01*
X139091103Y-70283466D01*
X139121548Y-70308452D01*
X139146534Y-70338897D01*
X139165101Y-70373633D01*
X139176535Y-70411326D01*
X139181000Y-70456661D01*
X139181000Y-71293339D01*
X139176535Y-71338674D01*
X139165101Y-71376367D01*
X139146534Y-71411103D01*
X139121548Y-71441548D01*
X139091103Y-71466534D01*
X139056367Y-71485101D01*
X139018674Y-71496535D01*
X138973339Y-71501000D01*
X137886661Y-71501000D01*
X137841326Y-71496535D01*
X137803633Y-71485101D01*
X137768897Y-71466534D01*
X137738452Y-71441548D01*
X137713466Y-71411103D01*
X137694899Y-71376367D01*
X137683465Y-71338674D01*
X137679000Y-71293339D01*
X137679000Y-70456661D01*
X137683465Y-70411326D01*
X137694899Y-70373633D01*
X137713466Y-70338897D01*
X137738452Y-70308452D01*
X137768897Y-70283466D01*
X137803633Y-70264899D01*
X137841326Y-70253465D01*
X137886661Y-70249000D01*
X138973339Y-70249000D01*
X139018674Y-70253465D01*
G37*
G36*
X199249512Y-68953927D02*
G01*
X199398812Y-68983624D01*
X199562784Y-69051544D01*
X199710354Y-69150147D01*
X199835853Y-69275646D01*
X199934456Y-69423216D01*
X200002376Y-69587188D01*
X200037000Y-69761259D01*
X200037000Y-69938741D01*
X200002376Y-70112812D01*
X199934456Y-70276784D01*
X199835853Y-70424354D01*
X199710354Y-70549853D01*
X199562784Y-70648456D01*
X199398812Y-70716376D01*
X199249512Y-70746073D01*
X199224742Y-70751000D01*
X199047258Y-70751000D01*
X199022488Y-70746073D01*
X198873188Y-70716376D01*
X198709216Y-70648456D01*
X198561646Y-70549853D01*
X198436147Y-70424354D01*
X198337544Y-70276784D01*
X198269624Y-70112812D01*
X198235000Y-69938741D01*
X198235000Y-69761259D01*
X198269624Y-69587188D01*
X198337544Y-69423216D01*
X198436147Y-69275646D01*
X198561646Y-69150147D01*
X198709216Y-69051544D01*
X198873188Y-68983624D01*
X199022488Y-68953927D01*
X199047258Y-68949000D01*
X199224742Y-68949000D01*
X199249512Y-68953927D01*
G37*
G36*
X181563674Y-69473465D02*
G01*
X181601367Y-69484899D01*
X181636103Y-69503466D01*
X181666548Y-69528452D01*
X181691534Y-69558897D01*
X181710101Y-69593633D01*
X181721535Y-69631326D01*
X181726000Y-69676661D01*
X181726000Y-70513339D01*
X181721535Y-70558674D01*
X181710101Y-70596367D01*
X181691534Y-70631103D01*
X181666548Y-70661548D01*
X181636103Y-70686534D01*
X181601367Y-70705101D01*
X181563674Y-70716535D01*
X181518339Y-70721000D01*
X180431661Y-70721000D01*
X180386326Y-70716535D01*
X180348633Y-70705101D01*
X180313897Y-70686534D01*
X180283452Y-70661548D01*
X180258466Y-70631103D01*
X180239899Y-70596367D01*
X180228465Y-70558674D01*
X180224000Y-70513339D01*
X180224000Y-69676661D01*
X180228465Y-69631326D01*
X180239899Y-69593633D01*
X180258466Y-69558897D01*
X180283452Y-69528452D01*
X180313897Y-69503466D01*
X180348633Y-69484899D01*
X180386326Y-69473465D01*
X180431661Y-69469000D01*
X181518339Y-69469000D01*
X181563674Y-69473465D01*
G37*
G36*
X139018674Y-68203465D02*
G01*
X139056367Y-68214899D01*
X139091103Y-68233466D01*
X139121548Y-68258452D01*
X139146534Y-68288897D01*
X139165101Y-68323633D01*
X139176535Y-68361326D01*
X139181000Y-68406661D01*
X139181000Y-69243339D01*
X139176535Y-69288674D01*
X139165101Y-69326367D01*
X139146534Y-69361103D01*
X139121548Y-69391548D01*
X139091103Y-69416534D01*
X139056367Y-69435101D01*
X139018674Y-69446535D01*
X138973339Y-69451000D01*
X137886661Y-69451000D01*
X137841326Y-69446535D01*
X137803633Y-69435101D01*
X137768897Y-69416534D01*
X137738452Y-69391548D01*
X137713466Y-69361103D01*
X137694899Y-69326367D01*
X137683465Y-69288674D01*
X137679000Y-69243339D01*
X137679000Y-68406661D01*
X137683465Y-68361326D01*
X137694899Y-68323633D01*
X137713466Y-68288897D01*
X137738452Y-68258452D01*
X137768897Y-68233466D01*
X137803633Y-68214899D01*
X137841326Y-68203465D01*
X137886661Y-68199000D01*
X138973339Y-68199000D01*
X139018674Y-68203465D01*
G37*
G36*
X131780000Y-68821000D02*
G01*
X129078000Y-68821000D01*
X129078000Y-66119000D01*
X131780000Y-66119000D01*
X131780000Y-68821000D01*
G37*
G36*
X199249512Y-66413927D02*
G01*
X199398812Y-66443624D01*
X199562784Y-66511544D01*
X199710354Y-66610147D01*
X199835853Y-66735646D01*
X199934456Y-66883216D01*
X200002376Y-67047188D01*
X200037000Y-67221259D01*
X200037000Y-67398741D01*
X200002376Y-67572812D01*
X199934456Y-67736784D01*
X199835853Y-67884354D01*
X199710354Y-68009853D01*
X199562784Y-68108456D01*
X199398812Y-68176376D01*
X199258777Y-68204230D01*
X199224742Y-68211000D01*
X199047258Y-68211000D01*
X199013223Y-68204230D01*
X198873188Y-68176376D01*
X198709216Y-68108456D01*
X198561646Y-68009853D01*
X198436147Y-67884354D01*
X198337544Y-67736784D01*
X198269624Y-67572812D01*
X198235000Y-67398741D01*
X198235000Y-67221259D01*
X198269624Y-67047188D01*
X198337544Y-66883216D01*
X198436147Y-66735646D01*
X198561646Y-66610147D01*
X198709216Y-66511544D01*
X198873188Y-66443624D01*
X199022488Y-66413927D01*
X199047258Y-66409000D01*
X199224742Y-66409000D01*
X199249512Y-66413927D01*
G37*
G36*
X185493674Y-66055465D02*
G01*
X185531367Y-66066899D01*
X185566103Y-66085466D01*
X185596548Y-66110452D01*
X185621534Y-66140897D01*
X185640101Y-66175633D01*
X185651535Y-66213326D01*
X185656000Y-66258661D01*
X185656000Y-67345339D01*
X185651535Y-67390674D01*
X185640101Y-67428367D01*
X185621534Y-67463103D01*
X185596548Y-67493548D01*
X185566103Y-67518534D01*
X185531367Y-67537101D01*
X185493674Y-67548535D01*
X185448339Y-67553000D01*
X184611661Y-67553000D01*
X184566326Y-67548535D01*
X184528633Y-67537101D01*
X184493897Y-67518534D01*
X184463452Y-67493548D01*
X184438466Y-67463103D01*
X184419899Y-67428367D01*
X184408465Y-67390674D01*
X184404000Y-67345339D01*
X184404000Y-66258661D01*
X184408465Y-66213326D01*
X184419899Y-66175633D01*
X184438466Y-66140897D01*
X184463452Y-66110452D01*
X184493897Y-66085466D01*
X184528633Y-66066899D01*
X184566326Y-66055465D01*
X184611661Y-66051000D01*
X185448339Y-66051000D01*
X185493674Y-66055465D01*
G37*
G36*
X187543674Y-66055465D02*
G01*
X187581367Y-66066899D01*
X187616103Y-66085466D01*
X187646548Y-66110452D01*
X187671534Y-66140897D01*
X187690101Y-66175633D01*
X187701535Y-66213326D01*
X187706000Y-66258661D01*
X187706000Y-67345339D01*
X187701535Y-67390674D01*
X187690101Y-67428367D01*
X187671534Y-67463103D01*
X187646548Y-67493548D01*
X187616103Y-67518534D01*
X187581367Y-67537101D01*
X187543674Y-67548535D01*
X187498339Y-67553000D01*
X186661661Y-67553000D01*
X186616326Y-67548535D01*
X186578633Y-67537101D01*
X186543897Y-67518534D01*
X186513452Y-67493548D01*
X186488466Y-67463103D01*
X186469899Y-67428367D01*
X186458465Y-67390674D01*
X186454000Y-67345339D01*
X186454000Y-66258661D01*
X186458465Y-66213326D01*
X186469899Y-66175633D01*
X186488466Y-66140897D01*
X186513452Y-66110452D01*
X186543897Y-66085466D01*
X186578633Y-66066899D01*
X186616326Y-66055465D01*
X186661661Y-66051000D01*
X187498339Y-66051000D01*
X187543674Y-66055465D01*
G37*
G36*
X158322674Y-62896465D02*
G01*
X158360367Y-62907899D01*
X158395103Y-62926466D01*
X158425548Y-62951452D01*
X158450534Y-62981897D01*
X158469101Y-63016633D01*
X158480535Y-63054326D01*
X158485000Y-63099661D01*
X158485000Y-63936339D01*
X158480535Y-63981674D01*
X158469101Y-64019367D01*
X158450534Y-64054103D01*
X158425548Y-64084548D01*
X158395103Y-64109534D01*
X158360367Y-64128101D01*
X158322674Y-64139535D01*
X158277339Y-64144000D01*
X157190661Y-64144000D01*
X157145326Y-64139535D01*
X157107633Y-64128101D01*
X157072897Y-64109534D01*
X157042452Y-64084548D01*
X157017466Y-64054103D01*
X156998899Y-64019367D01*
X156987465Y-63981674D01*
X156983000Y-63936339D01*
X156983000Y-63099661D01*
X156987465Y-63054326D01*
X156998899Y-63016633D01*
X157017466Y-62981897D01*
X157042452Y-62951452D01*
X157072897Y-62926466D01*
X157107633Y-62907899D01*
X157145326Y-62896465D01*
X157190661Y-62892000D01*
X158277339Y-62892000D01*
X158322674Y-62896465D01*
G37*
G36*
X145622674Y-62896465D02*
G01*
X145660367Y-62907899D01*
X145695103Y-62926466D01*
X145725548Y-62951452D01*
X145750534Y-62981897D01*
X145769101Y-63016633D01*
X145780535Y-63054326D01*
X145785000Y-63099661D01*
X145785000Y-63936339D01*
X145780535Y-63981674D01*
X145769101Y-64019367D01*
X145750534Y-64054103D01*
X145725548Y-64084548D01*
X145695103Y-64109534D01*
X145660367Y-64128101D01*
X145622674Y-64139535D01*
X145577339Y-64144000D01*
X144490661Y-64144000D01*
X144445326Y-64139535D01*
X144407633Y-64128101D01*
X144372897Y-64109534D01*
X144342452Y-64084548D01*
X144317466Y-64054103D01*
X144298899Y-64019367D01*
X144287465Y-63981674D01*
X144283000Y-63936339D01*
X144283000Y-63099661D01*
X144287465Y-63054326D01*
X144298899Y-63016633D01*
X144317466Y-62981897D01*
X144342452Y-62951452D01*
X144372897Y-62926466D01*
X144407633Y-62907899D01*
X144445326Y-62896465D01*
X144490661Y-62892000D01*
X145577339Y-62892000D01*
X145622674Y-62896465D01*
G37*
G36*
X183722674Y-62896465D02*
G01*
X183760367Y-62907899D01*
X183795103Y-62926466D01*
X183825548Y-62951452D01*
X183850534Y-62981897D01*
X183869101Y-63016633D01*
X183880535Y-63054326D01*
X183885000Y-63099661D01*
X183885000Y-63936339D01*
X183880535Y-63981674D01*
X183869101Y-64019367D01*
X183850534Y-64054103D01*
X183825548Y-64084548D01*
X183795103Y-64109534D01*
X183760367Y-64128101D01*
X183722674Y-64139535D01*
X183677339Y-64144000D01*
X182590661Y-64144000D01*
X182545326Y-64139535D01*
X182507633Y-64128101D01*
X182472897Y-64109534D01*
X182442452Y-64084548D01*
X182417466Y-64054103D01*
X182398899Y-64019367D01*
X182387465Y-63981674D01*
X182383000Y-63936339D01*
X182383000Y-63099661D01*
X182387465Y-63054326D01*
X182398899Y-63016633D01*
X182417466Y-62981897D01*
X182442452Y-62951452D01*
X182472897Y-62926466D01*
X182507633Y-62907899D01*
X182545326Y-62896465D01*
X182590661Y-62892000D01*
X183677339Y-62892000D01*
X183722674Y-62896465D01*
G37*
G36*
X171022674Y-62887465D02*
G01*
X171060367Y-62898899D01*
X171095103Y-62917466D01*
X171125548Y-62942452D01*
X171150534Y-62972897D01*
X171169101Y-63007633D01*
X171180535Y-63045326D01*
X171185000Y-63090661D01*
X171185000Y-63927339D01*
X171180535Y-63972674D01*
X171169101Y-64010367D01*
X171150534Y-64045103D01*
X171125548Y-64075548D01*
X171095103Y-64100534D01*
X171060367Y-64119101D01*
X171022674Y-64130535D01*
X170977339Y-64135000D01*
X169890661Y-64135000D01*
X169845326Y-64130535D01*
X169807633Y-64119101D01*
X169772897Y-64100534D01*
X169742452Y-64075548D01*
X169717466Y-64045103D01*
X169698899Y-64010367D01*
X169687465Y-63972674D01*
X169683000Y-63927339D01*
X169683000Y-63090661D01*
X169687465Y-63045326D01*
X169698899Y-63007633D01*
X169717466Y-62972897D01*
X169742452Y-62942452D01*
X169772897Y-62917466D01*
X169807633Y-62898899D01*
X169845326Y-62887465D01*
X169890661Y-62883000D01*
X170977339Y-62883000D01*
X171022674Y-62887465D01*
G37*
G36*
X145622674Y-60846465D02*
G01*
X145660367Y-60857899D01*
X145695103Y-60876466D01*
X145725548Y-60901452D01*
X145750534Y-60931897D01*
X145769101Y-60966633D01*
X145780535Y-61004326D01*
X145785000Y-61049661D01*
X145785000Y-61886339D01*
X145780535Y-61931674D01*
X145769101Y-61969367D01*
X145750534Y-62004103D01*
X145725548Y-62034548D01*
X145695103Y-62059534D01*
X145660367Y-62078101D01*
X145622674Y-62089535D01*
X145577339Y-62094000D01*
X144490661Y-62094000D01*
X144445326Y-62089535D01*
X144407633Y-62078101D01*
X144372897Y-62059534D01*
X144342452Y-62034548D01*
X144317466Y-62004103D01*
X144298899Y-61969367D01*
X144287465Y-61931674D01*
X144283000Y-61886339D01*
X144283000Y-61049661D01*
X144287465Y-61004326D01*
X144298899Y-60966633D01*
X144317466Y-60931897D01*
X144342452Y-60901452D01*
X144372897Y-60876466D01*
X144407633Y-60857899D01*
X144445326Y-60846465D01*
X144490661Y-60842000D01*
X145577339Y-60842000D01*
X145622674Y-60846465D01*
G37*
G36*
X158322674Y-60846465D02*
G01*
X158360367Y-60857899D01*
X158395103Y-60876466D01*
X158425548Y-60901452D01*
X158450534Y-60931897D01*
X158469101Y-60966633D01*
X158480535Y-61004326D01*
X158485000Y-61049661D01*
X158485000Y-61886339D01*
X158480535Y-61931674D01*
X158469101Y-61969367D01*
X158450534Y-62004103D01*
X158425548Y-62034548D01*
X158395103Y-62059534D01*
X158360367Y-62078101D01*
X158322674Y-62089535D01*
X158277339Y-62094000D01*
X157190661Y-62094000D01*
X157145326Y-62089535D01*
X157107633Y-62078101D01*
X157072897Y-62059534D01*
X157042452Y-62034548D01*
X157017466Y-62004103D01*
X156998899Y-61969367D01*
X156987465Y-61931674D01*
X156983000Y-61886339D01*
X156983000Y-61049661D01*
X156987465Y-61004326D01*
X156998899Y-60966633D01*
X157017466Y-60931897D01*
X157042452Y-60901452D01*
X157072897Y-60876466D01*
X157107633Y-60857899D01*
X157145326Y-60846465D01*
X157190661Y-60842000D01*
X158277339Y-60842000D01*
X158322674Y-60846465D01*
G37*
G36*
X183722674Y-60846465D02*
G01*
X183760367Y-60857899D01*
X183795103Y-60876466D01*
X183825548Y-60901452D01*
X183850534Y-60931897D01*
X183869101Y-60966633D01*
X183880535Y-61004326D01*
X183885000Y-61049661D01*
X183885000Y-61886339D01*
X183880535Y-61931674D01*
X183869101Y-61969367D01*
X183850534Y-62004103D01*
X183825548Y-62034548D01*
X183795103Y-62059534D01*
X183760367Y-62078101D01*
X183722674Y-62089535D01*
X183677339Y-62094000D01*
X182590661Y-62094000D01*
X182545326Y-62089535D01*
X182507633Y-62078101D01*
X182472897Y-62059534D01*
X182442452Y-62034548D01*
X182417466Y-62004103D01*
X182398899Y-61969367D01*
X182387465Y-61931674D01*
X182383000Y-61886339D01*
X182383000Y-61049661D01*
X182387465Y-61004326D01*
X182398899Y-60966633D01*
X182417466Y-60931897D01*
X182442452Y-60901452D01*
X182472897Y-60876466D01*
X182507633Y-60857899D01*
X182545326Y-60846465D01*
X182590661Y-60842000D01*
X183677339Y-60842000D01*
X183722674Y-60846465D01*
G37*
G36*
X171022674Y-60837465D02*
G01*
X171060367Y-60848899D01*
X171095103Y-60867466D01*
X171125548Y-60892452D01*
X171150534Y-60922897D01*
X171169101Y-60957633D01*
X171180535Y-60995326D01*
X171185000Y-61040661D01*
X171185000Y-61877339D01*
X171180535Y-61922674D01*
X171169101Y-61960367D01*
X171150534Y-61995103D01*
X171125548Y-62025548D01*
X171095103Y-62050534D01*
X171060367Y-62069101D01*
X171022674Y-62080535D01*
X170977339Y-62085000D01*
X169890661Y-62085000D01*
X169845326Y-62080535D01*
X169807633Y-62069101D01*
X169772897Y-62050534D01*
X169742452Y-62025548D01*
X169717466Y-61995103D01*
X169698899Y-61960367D01*
X169687465Y-61922674D01*
X169683000Y-61877339D01*
X169683000Y-61040661D01*
X169687465Y-60995326D01*
X169698899Y-60957633D01*
X169717466Y-60922897D01*
X169742452Y-60892452D01*
X169772897Y-60867466D01*
X169807633Y-60848899D01*
X169845326Y-60837465D01*
X169890661Y-60833000D01*
X170977339Y-60833000D01*
X171022674Y-60837465D01*
G37*
G36*
X196214239Y-55231467D02*
G01*
X196528282Y-55293934D01*
X197119926Y-55539001D01*
X197520073Y-55806371D01*
X197638419Y-55885447D01*
X197652392Y-55894784D01*
X198105216Y-56347608D01*
X198460999Y-56880074D01*
X198706066Y-57471718D01*
X198706066Y-57471719D01*
X198831000Y-58099803D01*
X198831000Y-58740197D01*
X198768533Y-59054239D01*
X198706066Y-59368282D01*
X198460999Y-59959926D01*
X198213265Y-60330685D01*
X198105217Y-60492391D01*
X197652391Y-60945217D01*
X197577397Y-60995326D01*
X197119926Y-61300999D01*
X196528282Y-61546066D01*
X196214239Y-61608533D01*
X195900197Y-61671000D01*
X195259803Y-61671000D01*
X194945761Y-61608533D01*
X194631718Y-61546066D01*
X194040074Y-61300999D01*
X193582603Y-60995326D01*
X193507609Y-60945217D01*
X193054783Y-60492391D01*
X192946735Y-60330685D01*
X192699001Y-59959926D01*
X192453934Y-59368282D01*
X192391467Y-59054239D01*
X192329000Y-58740197D01*
X192329000Y-58099803D01*
X192453934Y-57471719D01*
X192453934Y-57471718D01*
X192699001Y-56880074D01*
X193054784Y-56347608D01*
X193507608Y-55894784D01*
X193521582Y-55885447D01*
X193639927Y-55806371D01*
X194040074Y-55539001D01*
X194631718Y-55293934D01*
X194945761Y-55231467D01*
X195259803Y-55169000D01*
X195900197Y-55169000D01*
X196214239Y-55231467D01*
G37*
G36*
X132714239Y-55231467D02*
G01*
X133028282Y-55293934D01*
X133619926Y-55539001D01*
X134020073Y-55806371D01*
X134138419Y-55885447D01*
X134152392Y-55894784D01*
X134605216Y-56347608D01*
X134960999Y-56880074D01*
X135206066Y-57471718D01*
X135206066Y-57471719D01*
X135331000Y-58099803D01*
X135331000Y-58740197D01*
X135268533Y-59054239D01*
X135206066Y-59368282D01*
X134960999Y-59959926D01*
X134713265Y-60330685D01*
X134605217Y-60492391D01*
X134152391Y-60945217D01*
X134077397Y-60995326D01*
X133619926Y-61300999D01*
X133028282Y-61546066D01*
X132714239Y-61608533D01*
X132400197Y-61671000D01*
X131759803Y-61671000D01*
X131445761Y-61608533D01*
X131131718Y-61546066D01*
X130540074Y-61300999D01*
X130082603Y-60995326D01*
X130007609Y-60945217D01*
X129554783Y-60492391D01*
X129446735Y-60330685D01*
X129199001Y-59959926D01*
X128953934Y-59368282D01*
X128891467Y-59054239D01*
X128829000Y-58740197D01*
X128829000Y-58099803D01*
X128953934Y-57471719D01*
X128953934Y-57471718D01*
X129199001Y-56880074D01*
X129554784Y-56347608D01*
X130007608Y-55894784D01*
X130021582Y-55885447D01*
X130139927Y-55806371D01*
X130540074Y-55539001D01*
X131131718Y-55293934D01*
X131445761Y-55231467D01*
X131759803Y-55169000D01*
X132400197Y-55169000D01*
X132714239Y-55231467D01*
G37*
G36*
X145469487Y-55644996D02*
G01*
X145680749Y-55732504D01*
X145706255Y-55743069D01*
X145919339Y-55885447D01*
X146100553Y-56066661D01*
X146237719Y-56271944D01*
X146242932Y-56279747D01*
X146341004Y-56516513D01*
X146391000Y-56767861D01*
X146391000Y-57024139D01*
X146341004Y-57275487D01*
X146259722Y-57471718D01*
X146242931Y-57512255D01*
X146100553Y-57725339D01*
X145919339Y-57906553D01*
X145706255Y-58048931D01*
X145706254Y-58048932D01*
X145706253Y-58048932D01*
X145469487Y-58147004D01*
X145218139Y-58197000D01*
X144961861Y-58197000D01*
X144710513Y-58147004D01*
X144473747Y-58048932D01*
X144473746Y-58048932D01*
X144473745Y-58048931D01*
X144260661Y-57906553D01*
X144079447Y-57725339D01*
X143937069Y-57512255D01*
X143920278Y-57471718D01*
X143838996Y-57275487D01*
X143789000Y-57024139D01*
X143789000Y-56767861D01*
X143838996Y-56516513D01*
X143937068Y-56279747D01*
X143942282Y-56271944D01*
X144079447Y-56066661D01*
X144260661Y-55885447D01*
X144473745Y-55743069D01*
X144499251Y-55732504D01*
X144710513Y-55644996D01*
X144961861Y-55595000D01*
X145218139Y-55595000D01*
X145469487Y-55644996D01*
G37*
G36*
X149891000Y-58197000D02*
G01*
X147289000Y-58197000D01*
X147289000Y-55595000D01*
X149891000Y-55595000D01*
X149891000Y-58197000D01*
G37*
G36*
X141969487Y-55644996D02*
G01*
X142180749Y-55732504D01*
X142206255Y-55743069D01*
X142419339Y-55885447D01*
X142600553Y-56066661D01*
X142737719Y-56271944D01*
X142742932Y-56279747D01*
X142841004Y-56516513D01*
X142891000Y-56767861D01*
X142891000Y-57024139D01*
X142841004Y-57275487D01*
X142759722Y-57471718D01*
X142742931Y-57512255D01*
X142600553Y-57725339D01*
X142419339Y-57906553D01*
X142206255Y-58048931D01*
X142206254Y-58048932D01*
X142206253Y-58048932D01*
X141969487Y-58147004D01*
X141718139Y-58197000D01*
X141461861Y-58197000D01*
X141210513Y-58147004D01*
X140973747Y-58048932D01*
X140973746Y-58048932D01*
X140973745Y-58048931D01*
X140760661Y-57906553D01*
X140579447Y-57725339D01*
X140437069Y-57512255D01*
X140420278Y-57471718D01*
X140338996Y-57275487D01*
X140289000Y-57024139D01*
X140289000Y-56767861D01*
X140338996Y-56516513D01*
X140437068Y-56279747D01*
X140442282Y-56271944D01*
X140579447Y-56066661D01*
X140760661Y-55885447D01*
X140973745Y-55743069D01*
X140999251Y-55732504D01*
X141210513Y-55644996D01*
X141461861Y-55595000D01*
X141718139Y-55595000D01*
X141969487Y-55644996D01*
G37*
G36*
X183569487Y-55644996D02*
G01*
X183780749Y-55732504D01*
X183806255Y-55743069D01*
X184019339Y-55885447D01*
X184200553Y-56066661D01*
X184337719Y-56271944D01*
X184342932Y-56279747D01*
X184441004Y-56516513D01*
X184491000Y-56767861D01*
X184491000Y-57024139D01*
X184441004Y-57275487D01*
X184359722Y-57471718D01*
X184342931Y-57512255D01*
X184200553Y-57725339D01*
X184019339Y-57906553D01*
X183806255Y-58048931D01*
X183806254Y-58048932D01*
X183806253Y-58048932D01*
X183569487Y-58147004D01*
X183318139Y-58197000D01*
X183061861Y-58197000D01*
X182810513Y-58147004D01*
X182573747Y-58048932D01*
X182573746Y-58048932D01*
X182573745Y-58048931D01*
X182360661Y-57906553D01*
X182179447Y-57725339D01*
X182037069Y-57512255D01*
X182020278Y-57471718D01*
X181938996Y-57275487D01*
X181889000Y-57024139D01*
X181889000Y-56767861D01*
X181938996Y-56516513D01*
X182037068Y-56279747D01*
X182042282Y-56271944D01*
X182179447Y-56066661D01*
X182360661Y-55885447D01*
X182573745Y-55743069D01*
X182599251Y-55732504D01*
X182810513Y-55644996D01*
X183061861Y-55595000D01*
X183318139Y-55595000D01*
X183569487Y-55644996D01*
G37*
G36*
X187991000Y-58197000D02*
G01*
X185389000Y-58197000D01*
X185389000Y-55595000D01*
X187991000Y-55595000D01*
X187991000Y-58197000D01*
G37*
G36*
X180069487Y-55644996D02*
G01*
X180280749Y-55732504D01*
X180306255Y-55743069D01*
X180519339Y-55885447D01*
X180700553Y-56066661D01*
X180837719Y-56271944D01*
X180842932Y-56279747D01*
X180941004Y-56516513D01*
X180991000Y-56767861D01*
X180991000Y-57024139D01*
X180941004Y-57275487D01*
X180859722Y-57471718D01*
X180842931Y-57512255D01*
X180700553Y-57725339D01*
X180519339Y-57906553D01*
X180306255Y-58048931D01*
X180306254Y-58048932D01*
X180306253Y-58048932D01*
X180069487Y-58147004D01*
X179818139Y-58197000D01*
X179561861Y-58197000D01*
X179310513Y-58147004D01*
X179073747Y-58048932D01*
X179073746Y-58048932D01*
X179073745Y-58048931D01*
X178860661Y-57906553D01*
X178679447Y-57725339D01*
X178537069Y-57512255D01*
X178520278Y-57471718D01*
X178438996Y-57275487D01*
X178389000Y-57024139D01*
X178389000Y-56767861D01*
X178438996Y-56516513D01*
X178537068Y-56279747D01*
X178542282Y-56271944D01*
X178679447Y-56066661D01*
X178860661Y-55885447D01*
X179073745Y-55743069D01*
X179099251Y-55732504D01*
X179310513Y-55644996D01*
X179561861Y-55595000D01*
X179818139Y-55595000D01*
X180069487Y-55644996D01*
G37*
G36*
X154669487Y-55644996D02*
G01*
X154880749Y-55732504D01*
X154906255Y-55743069D01*
X155119339Y-55885447D01*
X155300553Y-56066661D01*
X155437719Y-56271944D01*
X155442932Y-56279747D01*
X155541004Y-56516513D01*
X155591000Y-56767861D01*
X155591000Y-57024139D01*
X155541004Y-57275487D01*
X155459722Y-57471718D01*
X155442931Y-57512255D01*
X155300553Y-57725339D01*
X155119339Y-57906553D01*
X154906255Y-58048931D01*
X154906254Y-58048932D01*
X154906253Y-58048932D01*
X154669487Y-58147004D01*
X154418139Y-58197000D01*
X154161861Y-58197000D01*
X153910513Y-58147004D01*
X153673747Y-58048932D01*
X153673746Y-58048932D01*
X153673745Y-58048931D01*
X153460661Y-57906553D01*
X153279447Y-57725339D01*
X153137069Y-57512255D01*
X153120278Y-57471718D01*
X153038996Y-57275487D01*
X152989000Y-57024139D01*
X152989000Y-56767861D01*
X153038996Y-56516513D01*
X153137068Y-56279747D01*
X153142282Y-56271944D01*
X153279447Y-56066661D01*
X153460661Y-55885447D01*
X153673745Y-55743069D01*
X153699251Y-55732504D01*
X153910513Y-55644996D01*
X154161861Y-55595000D01*
X154418139Y-55595000D01*
X154669487Y-55644996D01*
G37*
G36*
X162591000Y-58197000D02*
G01*
X159989000Y-58197000D01*
X159989000Y-55595000D01*
X162591000Y-55595000D01*
X162591000Y-58197000D01*
G37*
G36*
X158169487Y-55644996D02*
G01*
X158380749Y-55732504D01*
X158406255Y-55743069D01*
X158619339Y-55885447D01*
X158800553Y-56066661D01*
X158937719Y-56271944D01*
X158942932Y-56279747D01*
X159041004Y-56516513D01*
X159091000Y-56767861D01*
X159091000Y-57024139D01*
X159041004Y-57275487D01*
X158959722Y-57471718D01*
X158942931Y-57512255D01*
X158800553Y-57725339D01*
X158619339Y-57906553D01*
X158406255Y-58048931D01*
X158406254Y-58048932D01*
X158406253Y-58048932D01*
X158169487Y-58147004D01*
X157918139Y-58197000D01*
X157661861Y-58197000D01*
X157410513Y-58147004D01*
X157173747Y-58048932D01*
X157173746Y-58048932D01*
X157173745Y-58048931D01*
X156960661Y-57906553D01*
X156779447Y-57725339D01*
X156637069Y-57512255D01*
X156620278Y-57471718D01*
X156538996Y-57275487D01*
X156489000Y-57024139D01*
X156489000Y-56767861D01*
X156538996Y-56516513D01*
X156637068Y-56279747D01*
X156642282Y-56271944D01*
X156779447Y-56066661D01*
X156960661Y-55885447D01*
X157173745Y-55743069D01*
X157199251Y-55732504D01*
X157410513Y-55644996D01*
X157661861Y-55595000D01*
X157918139Y-55595000D01*
X158169487Y-55644996D01*
G37*
G36*
X167369487Y-55644996D02*
G01*
X167580749Y-55732504D01*
X167606255Y-55743069D01*
X167819339Y-55885447D01*
X168000553Y-56066661D01*
X168137719Y-56271944D01*
X168142932Y-56279747D01*
X168241004Y-56516513D01*
X168291000Y-56767861D01*
X168291000Y-57024139D01*
X168241004Y-57275487D01*
X168159722Y-57471718D01*
X168142931Y-57512255D01*
X168000553Y-57725339D01*
X167819339Y-57906553D01*
X167606255Y-58048931D01*
X167606254Y-58048932D01*
X167606253Y-58048932D01*
X167369487Y-58147004D01*
X167118139Y-58197000D01*
X166861861Y-58197000D01*
X166610513Y-58147004D01*
X166373747Y-58048932D01*
X166373746Y-58048932D01*
X166373745Y-58048931D01*
X166160661Y-57906553D01*
X165979447Y-57725339D01*
X165837069Y-57512255D01*
X165820278Y-57471718D01*
X165738996Y-57275487D01*
X165689000Y-57024139D01*
X165689000Y-56767861D01*
X165738996Y-56516513D01*
X165837068Y-56279747D01*
X165842282Y-56271944D01*
X165979447Y-56066661D01*
X166160661Y-55885447D01*
X166373745Y-55743069D01*
X166399251Y-55732504D01*
X166610513Y-55644996D01*
X166861861Y-55595000D01*
X167118139Y-55595000D01*
X167369487Y-55644996D01*
G37*
G36*
X175291000Y-58197000D02*
G01*
X172689000Y-58197000D01*
X172689000Y-55595000D01*
X175291000Y-55595000D01*
X175291000Y-58197000D01*
G37*
G36*
X170869487Y-55644996D02*
G01*
X171080749Y-55732504D01*
X171106255Y-55743069D01*
X171319339Y-55885447D01*
X171500553Y-56066661D01*
X171637719Y-56271944D01*
X171642932Y-56279747D01*
X171741004Y-56516513D01*
X171791000Y-56767861D01*
X171791000Y-57024139D01*
X171741004Y-57275487D01*
X171659722Y-57471718D01*
X171642931Y-57512255D01*
X171500553Y-57725339D01*
X171319339Y-57906553D01*
X171106255Y-58048931D01*
X171106254Y-58048932D01*
X171106253Y-58048932D01*
X170869487Y-58147004D01*
X170618139Y-58197000D01*
X170361861Y-58197000D01*
X170110513Y-58147004D01*
X169873747Y-58048932D01*
X169873746Y-58048932D01*
X169873745Y-58048931D01*
X169660661Y-57906553D01*
X169479447Y-57725339D01*
X169337069Y-57512255D01*
X169320278Y-57471718D01*
X169238996Y-57275487D01*
X169189000Y-57024139D01*
X169189000Y-56767861D01*
X169238996Y-56516513D01*
X169337068Y-56279747D01*
X169342282Y-56271944D01*
X169479447Y-56066661D01*
X169660661Y-55885447D01*
X169873745Y-55743069D01*
X169899251Y-55732504D01*
X170110513Y-55644996D01*
X170361861Y-55595000D01*
X170618139Y-55595000D01*
X170869487Y-55644996D01*
G37*
M02*
