G04 #@! TF.GenerationSoftware,KiCad,Pcbnew,(5.1.5)-2*
G04 #@! TF.CreationDate,2020-01-08T19:40:40-08:00*
G04 #@! TF.ProjectId,bifrost,62696672-6f73-4742-9e6b-696361645f70,A*
G04 #@! TF.SameCoordinates,Original*
G04 #@! TF.FileFunction,Soldermask,Top*
G04 #@! TF.FilePolarity,Negative*
%FSLAX46Y46*%
G04 Gerber Fmt 4.6, Leading zero omitted, Abs format (unit mm)*
G04 Created by KiCad (PCBNEW (5.1.5)-2) date 2020-01-08 19:40:40*
%MOMM*%
%LPD*%
G04 APERTURE LIST*
%ADD10C,0.100000*%
G04 APERTURE END LIST*
D10*
G36*
X154037512Y-122039927D02*
G01*
X154186812Y-122069624D01*
X154350784Y-122137544D01*
X154498354Y-122236147D01*
X154623853Y-122361646D01*
X154722456Y-122509216D01*
X154790376Y-122673188D01*
X154825000Y-122847259D01*
X154825000Y-123024741D01*
X154790376Y-123198812D01*
X154722456Y-123362784D01*
X154623853Y-123510354D01*
X154498354Y-123635853D01*
X154350784Y-123734456D01*
X154186812Y-123802376D01*
X154037512Y-123832073D01*
X154012742Y-123837000D01*
X153835258Y-123837000D01*
X153810488Y-123832073D01*
X153661188Y-123802376D01*
X153497216Y-123734456D01*
X153349646Y-123635853D01*
X153224147Y-123510354D01*
X153125544Y-123362784D01*
X153057624Y-123198812D01*
X153023000Y-123024741D01*
X153023000Y-122847259D01*
X153057624Y-122673188D01*
X153125544Y-122509216D01*
X153224147Y-122361646D01*
X153349646Y-122236147D01*
X153497216Y-122137544D01*
X153661188Y-122069624D01*
X153810488Y-122039927D01*
X153835258Y-122035000D01*
X154012742Y-122035000D01*
X154037512Y-122039927D01*
G37*
G36*
X166737512Y-122039927D02*
G01*
X166886812Y-122069624D01*
X167050784Y-122137544D01*
X167198354Y-122236147D01*
X167323853Y-122361646D01*
X167422456Y-122509216D01*
X167490376Y-122673188D01*
X167525000Y-122847259D01*
X167525000Y-123024741D01*
X167490376Y-123198812D01*
X167422456Y-123362784D01*
X167323853Y-123510354D01*
X167198354Y-123635853D01*
X167050784Y-123734456D01*
X166886812Y-123802376D01*
X166737512Y-123832073D01*
X166712742Y-123837000D01*
X166535258Y-123837000D01*
X166510488Y-123832073D01*
X166361188Y-123802376D01*
X166197216Y-123734456D01*
X166049646Y-123635853D01*
X165924147Y-123510354D01*
X165825544Y-123362784D01*
X165757624Y-123198812D01*
X165723000Y-123024741D01*
X165723000Y-122847259D01*
X165757624Y-122673188D01*
X165825544Y-122509216D01*
X165924147Y-122361646D01*
X166049646Y-122236147D01*
X166197216Y-122137544D01*
X166361188Y-122069624D01*
X166510488Y-122039927D01*
X166535258Y-122035000D01*
X166712742Y-122035000D01*
X166737512Y-122039927D01*
G37*
G36*
X164197512Y-122039927D02*
G01*
X164346812Y-122069624D01*
X164510784Y-122137544D01*
X164658354Y-122236147D01*
X164783853Y-122361646D01*
X164882456Y-122509216D01*
X164950376Y-122673188D01*
X164985000Y-122847259D01*
X164985000Y-123024741D01*
X164950376Y-123198812D01*
X164882456Y-123362784D01*
X164783853Y-123510354D01*
X164658354Y-123635853D01*
X164510784Y-123734456D01*
X164346812Y-123802376D01*
X164197512Y-123832073D01*
X164172742Y-123837000D01*
X163995258Y-123837000D01*
X163970488Y-123832073D01*
X163821188Y-123802376D01*
X163657216Y-123734456D01*
X163509646Y-123635853D01*
X163384147Y-123510354D01*
X163285544Y-123362784D01*
X163217624Y-123198812D01*
X163183000Y-123024741D01*
X163183000Y-122847259D01*
X163217624Y-122673188D01*
X163285544Y-122509216D01*
X163384147Y-122361646D01*
X163509646Y-122236147D01*
X163657216Y-122137544D01*
X163821188Y-122069624D01*
X163970488Y-122039927D01*
X163995258Y-122035000D01*
X164172742Y-122035000D01*
X164197512Y-122039927D01*
G37*
G36*
X169277512Y-122039927D02*
G01*
X169426812Y-122069624D01*
X169590784Y-122137544D01*
X169738354Y-122236147D01*
X169863853Y-122361646D01*
X169962456Y-122509216D01*
X170030376Y-122673188D01*
X170065000Y-122847259D01*
X170065000Y-123024741D01*
X170030376Y-123198812D01*
X169962456Y-123362784D01*
X169863853Y-123510354D01*
X169738354Y-123635853D01*
X169590784Y-123734456D01*
X169426812Y-123802376D01*
X169277512Y-123832073D01*
X169252742Y-123837000D01*
X169075258Y-123837000D01*
X169050488Y-123832073D01*
X168901188Y-123802376D01*
X168737216Y-123734456D01*
X168589646Y-123635853D01*
X168464147Y-123510354D01*
X168365544Y-123362784D01*
X168297624Y-123198812D01*
X168263000Y-123024741D01*
X168263000Y-122847259D01*
X168297624Y-122673188D01*
X168365544Y-122509216D01*
X168464147Y-122361646D01*
X168589646Y-122236147D01*
X168737216Y-122137544D01*
X168901188Y-122069624D01*
X169050488Y-122039927D01*
X169075258Y-122035000D01*
X169252742Y-122035000D01*
X169277512Y-122039927D01*
G37*
G36*
X159117512Y-122039927D02*
G01*
X159266812Y-122069624D01*
X159430784Y-122137544D01*
X159578354Y-122236147D01*
X159703853Y-122361646D01*
X159802456Y-122509216D01*
X159870376Y-122673188D01*
X159905000Y-122847259D01*
X159905000Y-123024741D01*
X159870376Y-123198812D01*
X159802456Y-123362784D01*
X159703853Y-123510354D01*
X159578354Y-123635853D01*
X159430784Y-123734456D01*
X159266812Y-123802376D01*
X159117512Y-123832073D01*
X159092742Y-123837000D01*
X158915258Y-123837000D01*
X158890488Y-123832073D01*
X158741188Y-123802376D01*
X158577216Y-123734456D01*
X158429646Y-123635853D01*
X158304147Y-123510354D01*
X158205544Y-123362784D01*
X158137624Y-123198812D01*
X158103000Y-123024741D01*
X158103000Y-122847259D01*
X158137624Y-122673188D01*
X158205544Y-122509216D01*
X158304147Y-122361646D01*
X158429646Y-122236147D01*
X158577216Y-122137544D01*
X158741188Y-122069624D01*
X158890488Y-122039927D01*
X158915258Y-122035000D01*
X159092742Y-122035000D01*
X159117512Y-122039927D01*
G37*
G36*
X156577512Y-122039927D02*
G01*
X156726812Y-122069624D01*
X156890784Y-122137544D01*
X157038354Y-122236147D01*
X157163853Y-122361646D01*
X157262456Y-122509216D01*
X157330376Y-122673188D01*
X157365000Y-122847259D01*
X157365000Y-123024741D01*
X157330376Y-123198812D01*
X157262456Y-123362784D01*
X157163853Y-123510354D01*
X157038354Y-123635853D01*
X156890784Y-123734456D01*
X156726812Y-123802376D01*
X156577512Y-123832073D01*
X156552742Y-123837000D01*
X156375258Y-123837000D01*
X156350488Y-123832073D01*
X156201188Y-123802376D01*
X156037216Y-123734456D01*
X155889646Y-123635853D01*
X155764147Y-123510354D01*
X155665544Y-123362784D01*
X155597624Y-123198812D01*
X155563000Y-123024741D01*
X155563000Y-122847259D01*
X155597624Y-122673188D01*
X155665544Y-122509216D01*
X155764147Y-122361646D01*
X155889646Y-122236147D01*
X156037216Y-122137544D01*
X156201188Y-122069624D01*
X156350488Y-122039927D01*
X156375258Y-122035000D01*
X156552742Y-122035000D01*
X156577512Y-122039927D01*
G37*
G36*
X161657512Y-122039927D02*
G01*
X161806812Y-122069624D01*
X161970784Y-122137544D01*
X162118354Y-122236147D01*
X162243853Y-122361646D01*
X162342456Y-122509216D01*
X162410376Y-122673188D01*
X162445000Y-122847259D01*
X162445000Y-123024741D01*
X162410376Y-123198812D01*
X162342456Y-123362784D01*
X162243853Y-123510354D01*
X162118354Y-123635853D01*
X161970784Y-123734456D01*
X161806812Y-123802376D01*
X161657512Y-123832073D01*
X161632742Y-123837000D01*
X161455258Y-123837000D01*
X161430488Y-123832073D01*
X161281188Y-123802376D01*
X161117216Y-123734456D01*
X160969646Y-123635853D01*
X160844147Y-123510354D01*
X160745544Y-123362784D01*
X160677624Y-123198812D01*
X160643000Y-123024741D01*
X160643000Y-122847259D01*
X160677624Y-122673188D01*
X160745544Y-122509216D01*
X160844147Y-122361646D01*
X160969646Y-122236147D01*
X161117216Y-122137544D01*
X161281188Y-122069624D01*
X161430488Y-122039927D01*
X161455258Y-122035000D01*
X161632742Y-122035000D01*
X161657512Y-122039927D01*
G37*
G36*
X149931000Y-123115000D02*
G01*
X147029000Y-123115000D01*
X147029000Y-120813000D01*
X149931000Y-120813000D01*
X149931000Y-123115000D01*
G37*
G36*
X132714239Y-116191467D02*
G01*
X133028282Y-116253934D01*
X133619926Y-116499001D01*
X133890025Y-116679476D01*
X134152391Y-116854783D01*
X134605217Y-117307609D01*
X134613632Y-117320203D01*
X134960999Y-117840074D01*
X135205501Y-118430354D01*
X135206066Y-118431719D01*
X135331000Y-119059803D01*
X135331000Y-119700197D01*
X135284150Y-119935725D01*
X135206066Y-120328282D01*
X134960999Y-120919926D01*
X134605216Y-121452392D01*
X134152392Y-121905216D01*
X133619926Y-122260999D01*
X133028282Y-122506066D01*
X132714239Y-122568533D01*
X132400197Y-122631000D01*
X131759803Y-122631000D01*
X131445761Y-122568533D01*
X131131718Y-122506066D01*
X130540074Y-122260999D01*
X130007608Y-121905216D01*
X129554784Y-121452392D01*
X129199001Y-120919926D01*
X128953934Y-120328282D01*
X128875850Y-119935725D01*
X128829000Y-119700197D01*
X128829000Y-119059803D01*
X128953934Y-118431719D01*
X128954499Y-118430354D01*
X129199001Y-117840074D01*
X129546368Y-117320203D01*
X129554783Y-117307609D01*
X130007609Y-116854783D01*
X130269975Y-116679476D01*
X130540074Y-116499001D01*
X131131718Y-116253934D01*
X131445761Y-116191467D01*
X131759803Y-116129000D01*
X132400197Y-116129000D01*
X132714239Y-116191467D01*
G37*
G36*
X196214239Y-116191467D02*
G01*
X196528282Y-116253934D01*
X197119926Y-116499001D01*
X197390025Y-116679476D01*
X197652391Y-116854783D01*
X198105217Y-117307609D01*
X198113632Y-117320203D01*
X198460999Y-117840074D01*
X198705501Y-118430354D01*
X198706066Y-118431719D01*
X198831000Y-119059803D01*
X198831000Y-119700197D01*
X198784150Y-119935725D01*
X198706066Y-120328282D01*
X198460999Y-120919926D01*
X198105216Y-121452392D01*
X197652392Y-121905216D01*
X197119926Y-122260999D01*
X196528282Y-122506066D01*
X196214239Y-122568533D01*
X195900197Y-122631000D01*
X195259803Y-122631000D01*
X194945761Y-122568533D01*
X194631718Y-122506066D01*
X194040074Y-122260999D01*
X193507608Y-121905216D01*
X193054784Y-121452392D01*
X192699001Y-120919926D01*
X192453934Y-120328282D01*
X192375850Y-119935725D01*
X192329000Y-119700197D01*
X192329000Y-119059803D01*
X192453934Y-118431719D01*
X192454499Y-118430354D01*
X192699001Y-117840074D01*
X193046368Y-117320203D01*
X193054783Y-117307609D01*
X193507609Y-116854783D01*
X193769975Y-116679476D01*
X194040074Y-116499001D01*
X194631718Y-116253934D01*
X194945761Y-116191467D01*
X195259803Y-116129000D01*
X195900197Y-116129000D01*
X196214239Y-116191467D01*
G37*
G36*
X144893512Y-119967927D02*
G01*
X145042812Y-119997624D01*
X145206784Y-120065544D01*
X145354354Y-120164147D01*
X145479853Y-120289646D01*
X145578456Y-120437216D01*
X145646376Y-120601188D01*
X145681000Y-120775259D01*
X145681000Y-120952741D01*
X145646376Y-121126812D01*
X145578456Y-121290784D01*
X145479853Y-121438354D01*
X145354354Y-121563853D01*
X145206784Y-121662456D01*
X145042812Y-121730376D01*
X144893512Y-121760073D01*
X144868742Y-121765000D01*
X144691258Y-121765000D01*
X144666488Y-121760073D01*
X144517188Y-121730376D01*
X144353216Y-121662456D01*
X144205646Y-121563853D01*
X144080147Y-121438354D01*
X143981544Y-121290784D01*
X143913624Y-121126812D01*
X143879000Y-120952741D01*
X143879000Y-120775259D01*
X143913624Y-120601188D01*
X143981544Y-120437216D01*
X144080147Y-120289646D01*
X144205646Y-120164147D01*
X144353216Y-120065544D01*
X144517188Y-119997624D01*
X144666488Y-119967927D01*
X144691258Y-119963000D01*
X144868742Y-119963000D01*
X144893512Y-119967927D01*
G37*
G36*
X181998147Y-119595087D02*
G01*
X182172958Y-119667496D01*
X182189418Y-119674314D01*
X182361556Y-119789333D01*
X182507948Y-119935725D01*
X182549308Y-119997624D01*
X182622968Y-120107865D01*
X182702194Y-120299134D01*
X182742583Y-120502182D01*
X182742583Y-120709214D01*
X182702194Y-120912262D01*
X182626149Y-121095852D01*
X182622967Y-121103533D01*
X182507948Y-121275671D01*
X182361556Y-121422063D01*
X182189418Y-121537082D01*
X182189417Y-121537083D01*
X182189416Y-121537083D01*
X181998147Y-121616309D01*
X181795099Y-121656698D01*
X181588067Y-121656698D01*
X181385019Y-121616309D01*
X181193750Y-121537083D01*
X181193749Y-121537083D01*
X181193748Y-121537082D01*
X181021610Y-121422063D01*
X180875218Y-121275671D01*
X180760199Y-121103533D01*
X180757017Y-121095852D01*
X180680972Y-120912262D01*
X180640583Y-120709214D01*
X180640583Y-120502182D01*
X180680972Y-120299134D01*
X180760198Y-120107865D01*
X180833859Y-119997624D01*
X180875218Y-119935725D01*
X181021610Y-119789333D01*
X181193748Y-119674314D01*
X181210208Y-119667496D01*
X181385019Y-119595087D01*
X181588067Y-119554698D01*
X181795099Y-119554698D01*
X181998147Y-119595087D01*
G37*
G36*
X169277512Y-119499927D02*
G01*
X169426812Y-119529624D01*
X169590784Y-119597544D01*
X169738354Y-119696147D01*
X169863853Y-119821646D01*
X169962456Y-119969216D01*
X170030376Y-120133188D01*
X170060073Y-120282488D01*
X170065000Y-120307258D01*
X170065000Y-120484742D01*
X170060073Y-120509512D01*
X170030376Y-120658812D01*
X169962456Y-120822784D01*
X169863853Y-120970354D01*
X169738354Y-121095853D01*
X169590784Y-121194456D01*
X169426812Y-121262376D01*
X169277512Y-121292073D01*
X169252742Y-121297000D01*
X169075258Y-121297000D01*
X169050488Y-121292073D01*
X168901188Y-121262376D01*
X168737216Y-121194456D01*
X168589646Y-121095853D01*
X168464147Y-120970354D01*
X168365544Y-120822784D01*
X168297624Y-120658812D01*
X168267927Y-120509512D01*
X168263000Y-120484742D01*
X168263000Y-120307258D01*
X168267927Y-120282488D01*
X168297624Y-120133188D01*
X168365544Y-119969216D01*
X168464147Y-119821646D01*
X168589646Y-119696147D01*
X168737216Y-119597544D01*
X168901188Y-119529624D01*
X169050488Y-119499927D01*
X169075258Y-119495000D01*
X169252742Y-119495000D01*
X169277512Y-119499927D01*
G37*
G36*
X164197512Y-119499927D02*
G01*
X164346812Y-119529624D01*
X164510784Y-119597544D01*
X164658354Y-119696147D01*
X164783853Y-119821646D01*
X164882456Y-119969216D01*
X164950376Y-120133188D01*
X164980073Y-120282488D01*
X164985000Y-120307258D01*
X164985000Y-120484742D01*
X164980073Y-120509512D01*
X164950376Y-120658812D01*
X164882456Y-120822784D01*
X164783853Y-120970354D01*
X164658354Y-121095853D01*
X164510784Y-121194456D01*
X164346812Y-121262376D01*
X164197512Y-121292073D01*
X164172742Y-121297000D01*
X163995258Y-121297000D01*
X163970488Y-121292073D01*
X163821188Y-121262376D01*
X163657216Y-121194456D01*
X163509646Y-121095853D01*
X163384147Y-120970354D01*
X163285544Y-120822784D01*
X163217624Y-120658812D01*
X163187927Y-120509512D01*
X163183000Y-120484742D01*
X163183000Y-120307258D01*
X163187927Y-120282488D01*
X163217624Y-120133188D01*
X163285544Y-119969216D01*
X163384147Y-119821646D01*
X163509646Y-119696147D01*
X163657216Y-119597544D01*
X163821188Y-119529624D01*
X163970488Y-119499927D01*
X163995258Y-119495000D01*
X164172742Y-119495000D01*
X164197512Y-119499927D01*
G37*
G36*
X156577512Y-119499927D02*
G01*
X156726812Y-119529624D01*
X156890784Y-119597544D01*
X157038354Y-119696147D01*
X157163853Y-119821646D01*
X157262456Y-119969216D01*
X157330376Y-120133188D01*
X157360073Y-120282488D01*
X157365000Y-120307258D01*
X157365000Y-120484742D01*
X157360073Y-120509512D01*
X157330376Y-120658812D01*
X157262456Y-120822784D01*
X157163853Y-120970354D01*
X157038354Y-121095853D01*
X156890784Y-121194456D01*
X156726812Y-121262376D01*
X156577512Y-121292073D01*
X156552742Y-121297000D01*
X156375258Y-121297000D01*
X156350488Y-121292073D01*
X156201188Y-121262376D01*
X156037216Y-121194456D01*
X155889646Y-121095853D01*
X155764147Y-120970354D01*
X155665544Y-120822784D01*
X155597624Y-120658812D01*
X155567927Y-120509512D01*
X155563000Y-120484742D01*
X155563000Y-120307258D01*
X155567927Y-120282488D01*
X155597624Y-120133188D01*
X155665544Y-119969216D01*
X155764147Y-119821646D01*
X155889646Y-119696147D01*
X156037216Y-119597544D01*
X156201188Y-119529624D01*
X156350488Y-119499927D01*
X156375258Y-119495000D01*
X156552742Y-119495000D01*
X156577512Y-119499927D01*
G37*
G36*
X154037512Y-119499927D02*
G01*
X154186812Y-119529624D01*
X154350784Y-119597544D01*
X154498354Y-119696147D01*
X154623853Y-119821646D01*
X154722456Y-119969216D01*
X154790376Y-120133188D01*
X154820073Y-120282488D01*
X154825000Y-120307258D01*
X154825000Y-120484742D01*
X154820073Y-120509512D01*
X154790376Y-120658812D01*
X154722456Y-120822784D01*
X154623853Y-120970354D01*
X154498354Y-121095853D01*
X154350784Y-121194456D01*
X154186812Y-121262376D01*
X154037512Y-121292073D01*
X154012742Y-121297000D01*
X153835258Y-121297000D01*
X153810488Y-121292073D01*
X153661188Y-121262376D01*
X153497216Y-121194456D01*
X153349646Y-121095853D01*
X153224147Y-120970354D01*
X153125544Y-120822784D01*
X153057624Y-120658812D01*
X153027927Y-120509512D01*
X153023000Y-120484742D01*
X153023000Y-120307258D01*
X153027927Y-120282488D01*
X153057624Y-120133188D01*
X153125544Y-119969216D01*
X153224147Y-119821646D01*
X153349646Y-119696147D01*
X153497216Y-119597544D01*
X153661188Y-119529624D01*
X153810488Y-119499927D01*
X153835258Y-119495000D01*
X154012742Y-119495000D01*
X154037512Y-119499927D01*
G37*
G36*
X166737512Y-119499927D02*
G01*
X166886812Y-119529624D01*
X167050784Y-119597544D01*
X167198354Y-119696147D01*
X167323853Y-119821646D01*
X167422456Y-119969216D01*
X167490376Y-120133188D01*
X167520073Y-120282488D01*
X167525000Y-120307258D01*
X167525000Y-120484742D01*
X167520073Y-120509512D01*
X167490376Y-120658812D01*
X167422456Y-120822784D01*
X167323853Y-120970354D01*
X167198354Y-121095853D01*
X167050784Y-121194456D01*
X166886812Y-121262376D01*
X166737512Y-121292073D01*
X166712742Y-121297000D01*
X166535258Y-121297000D01*
X166510488Y-121292073D01*
X166361188Y-121262376D01*
X166197216Y-121194456D01*
X166049646Y-121095853D01*
X165924147Y-120970354D01*
X165825544Y-120822784D01*
X165757624Y-120658812D01*
X165727927Y-120509512D01*
X165723000Y-120484742D01*
X165723000Y-120307258D01*
X165727927Y-120282488D01*
X165757624Y-120133188D01*
X165825544Y-119969216D01*
X165924147Y-119821646D01*
X166049646Y-119696147D01*
X166197216Y-119597544D01*
X166361188Y-119529624D01*
X166510488Y-119499927D01*
X166535258Y-119495000D01*
X166712742Y-119495000D01*
X166737512Y-119499927D01*
G37*
G36*
X161657512Y-119499927D02*
G01*
X161806812Y-119529624D01*
X161970784Y-119597544D01*
X162118354Y-119696147D01*
X162243853Y-119821646D01*
X162342456Y-119969216D01*
X162410376Y-120133188D01*
X162440073Y-120282488D01*
X162445000Y-120307258D01*
X162445000Y-120484742D01*
X162440073Y-120509512D01*
X162410376Y-120658812D01*
X162342456Y-120822784D01*
X162243853Y-120970354D01*
X162118354Y-121095853D01*
X161970784Y-121194456D01*
X161806812Y-121262376D01*
X161657512Y-121292073D01*
X161632742Y-121297000D01*
X161455258Y-121297000D01*
X161430488Y-121292073D01*
X161281188Y-121262376D01*
X161117216Y-121194456D01*
X160969646Y-121095853D01*
X160844147Y-120970354D01*
X160745544Y-120822784D01*
X160677624Y-120658812D01*
X160647927Y-120509512D01*
X160643000Y-120484742D01*
X160643000Y-120307258D01*
X160647927Y-120282488D01*
X160677624Y-120133188D01*
X160745544Y-119969216D01*
X160844147Y-119821646D01*
X160969646Y-119696147D01*
X161117216Y-119597544D01*
X161281188Y-119529624D01*
X161430488Y-119499927D01*
X161455258Y-119495000D01*
X161632742Y-119495000D01*
X161657512Y-119499927D01*
G37*
G36*
X159117512Y-119499927D02*
G01*
X159266812Y-119529624D01*
X159430784Y-119597544D01*
X159578354Y-119696147D01*
X159703853Y-119821646D01*
X159802456Y-119969216D01*
X159870376Y-120133188D01*
X159900073Y-120282488D01*
X159905000Y-120307258D01*
X159905000Y-120484742D01*
X159900073Y-120509512D01*
X159870376Y-120658812D01*
X159802456Y-120822784D01*
X159703853Y-120970354D01*
X159578354Y-121095853D01*
X159430784Y-121194456D01*
X159266812Y-121262376D01*
X159117512Y-121292073D01*
X159092742Y-121297000D01*
X158915258Y-121297000D01*
X158890488Y-121292073D01*
X158741188Y-121262376D01*
X158577216Y-121194456D01*
X158429646Y-121095853D01*
X158304147Y-120970354D01*
X158205544Y-120822784D01*
X158137624Y-120658812D01*
X158107927Y-120509512D01*
X158103000Y-120484742D01*
X158103000Y-120307258D01*
X158107927Y-120282488D01*
X158137624Y-120133188D01*
X158205544Y-119969216D01*
X158304147Y-119821646D01*
X158429646Y-119696147D01*
X158577216Y-119597544D01*
X158741188Y-119529624D01*
X158890488Y-119499927D01*
X158915258Y-119495000D01*
X159092742Y-119495000D01*
X159117512Y-119499927D01*
G37*
G36*
X142531000Y-121115000D02*
G01*
X139629000Y-121115000D01*
X139629000Y-118813000D01*
X142531000Y-118813000D01*
X142531000Y-121115000D01*
G37*
G36*
X154037512Y-116959927D02*
G01*
X154186812Y-116989624D01*
X154350784Y-117057544D01*
X154498354Y-117156147D01*
X154623853Y-117281646D01*
X154722456Y-117429216D01*
X154790376Y-117593188D01*
X154825000Y-117767259D01*
X154825000Y-117944741D01*
X154790376Y-118118812D01*
X154722456Y-118282784D01*
X154623853Y-118430354D01*
X154498354Y-118555853D01*
X154350784Y-118654456D01*
X154186812Y-118722376D01*
X154037512Y-118752073D01*
X154012742Y-118757000D01*
X153835258Y-118757000D01*
X153810488Y-118752073D01*
X153661188Y-118722376D01*
X153497216Y-118654456D01*
X153349646Y-118555853D01*
X153224147Y-118430354D01*
X153125544Y-118282784D01*
X153057624Y-118118812D01*
X153023000Y-117944741D01*
X153023000Y-117767259D01*
X153057624Y-117593188D01*
X153125544Y-117429216D01*
X153224147Y-117281646D01*
X153349646Y-117156147D01*
X153497216Y-117057544D01*
X153661188Y-116989624D01*
X153810488Y-116959927D01*
X153835258Y-116955000D01*
X154012742Y-116955000D01*
X154037512Y-116959927D01*
G37*
G36*
X166737512Y-116959927D02*
G01*
X166886812Y-116989624D01*
X167050784Y-117057544D01*
X167198354Y-117156147D01*
X167323853Y-117281646D01*
X167422456Y-117429216D01*
X167490376Y-117593188D01*
X167525000Y-117767259D01*
X167525000Y-117944741D01*
X167490376Y-118118812D01*
X167422456Y-118282784D01*
X167323853Y-118430354D01*
X167198354Y-118555853D01*
X167050784Y-118654456D01*
X166886812Y-118722376D01*
X166737512Y-118752073D01*
X166712742Y-118757000D01*
X166535258Y-118757000D01*
X166510488Y-118752073D01*
X166361188Y-118722376D01*
X166197216Y-118654456D01*
X166049646Y-118555853D01*
X165924147Y-118430354D01*
X165825544Y-118282784D01*
X165757624Y-118118812D01*
X165723000Y-117944741D01*
X165723000Y-117767259D01*
X165757624Y-117593188D01*
X165825544Y-117429216D01*
X165924147Y-117281646D01*
X166049646Y-117156147D01*
X166197216Y-117057544D01*
X166361188Y-116989624D01*
X166510488Y-116959927D01*
X166535258Y-116955000D01*
X166712742Y-116955000D01*
X166737512Y-116959927D01*
G37*
G36*
X164197512Y-116959927D02*
G01*
X164346812Y-116989624D01*
X164510784Y-117057544D01*
X164658354Y-117156147D01*
X164783853Y-117281646D01*
X164882456Y-117429216D01*
X164950376Y-117593188D01*
X164985000Y-117767259D01*
X164985000Y-117944741D01*
X164950376Y-118118812D01*
X164882456Y-118282784D01*
X164783853Y-118430354D01*
X164658354Y-118555853D01*
X164510784Y-118654456D01*
X164346812Y-118722376D01*
X164197512Y-118752073D01*
X164172742Y-118757000D01*
X163995258Y-118757000D01*
X163970488Y-118752073D01*
X163821188Y-118722376D01*
X163657216Y-118654456D01*
X163509646Y-118555853D01*
X163384147Y-118430354D01*
X163285544Y-118282784D01*
X163217624Y-118118812D01*
X163183000Y-117944741D01*
X163183000Y-117767259D01*
X163217624Y-117593188D01*
X163285544Y-117429216D01*
X163384147Y-117281646D01*
X163509646Y-117156147D01*
X163657216Y-117057544D01*
X163821188Y-116989624D01*
X163970488Y-116959927D01*
X163995258Y-116955000D01*
X164172742Y-116955000D01*
X164197512Y-116959927D01*
G37*
G36*
X161657512Y-116959927D02*
G01*
X161806812Y-116989624D01*
X161970784Y-117057544D01*
X162118354Y-117156147D01*
X162243853Y-117281646D01*
X162342456Y-117429216D01*
X162410376Y-117593188D01*
X162445000Y-117767259D01*
X162445000Y-117944741D01*
X162410376Y-118118812D01*
X162342456Y-118282784D01*
X162243853Y-118430354D01*
X162118354Y-118555853D01*
X161970784Y-118654456D01*
X161806812Y-118722376D01*
X161657512Y-118752073D01*
X161632742Y-118757000D01*
X161455258Y-118757000D01*
X161430488Y-118752073D01*
X161281188Y-118722376D01*
X161117216Y-118654456D01*
X160969646Y-118555853D01*
X160844147Y-118430354D01*
X160745544Y-118282784D01*
X160677624Y-118118812D01*
X160643000Y-117944741D01*
X160643000Y-117767259D01*
X160677624Y-117593188D01*
X160745544Y-117429216D01*
X160844147Y-117281646D01*
X160969646Y-117156147D01*
X161117216Y-117057544D01*
X161281188Y-116989624D01*
X161430488Y-116959927D01*
X161455258Y-116955000D01*
X161632742Y-116955000D01*
X161657512Y-116959927D01*
G37*
G36*
X159117512Y-116959927D02*
G01*
X159266812Y-116989624D01*
X159430784Y-117057544D01*
X159578354Y-117156147D01*
X159703853Y-117281646D01*
X159802456Y-117429216D01*
X159870376Y-117593188D01*
X159905000Y-117767259D01*
X159905000Y-117944741D01*
X159870376Y-118118812D01*
X159802456Y-118282784D01*
X159703853Y-118430354D01*
X159578354Y-118555853D01*
X159430784Y-118654456D01*
X159266812Y-118722376D01*
X159117512Y-118752073D01*
X159092742Y-118757000D01*
X158915258Y-118757000D01*
X158890488Y-118752073D01*
X158741188Y-118722376D01*
X158577216Y-118654456D01*
X158429646Y-118555853D01*
X158304147Y-118430354D01*
X158205544Y-118282784D01*
X158137624Y-118118812D01*
X158103000Y-117944741D01*
X158103000Y-117767259D01*
X158137624Y-117593188D01*
X158205544Y-117429216D01*
X158304147Y-117281646D01*
X158429646Y-117156147D01*
X158577216Y-117057544D01*
X158741188Y-116989624D01*
X158890488Y-116959927D01*
X158915258Y-116955000D01*
X159092742Y-116955000D01*
X159117512Y-116959927D01*
G37*
G36*
X156577512Y-116959927D02*
G01*
X156726812Y-116989624D01*
X156890784Y-117057544D01*
X157038354Y-117156147D01*
X157163853Y-117281646D01*
X157262456Y-117429216D01*
X157330376Y-117593188D01*
X157365000Y-117767259D01*
X157365000Y-117944741D01*
X157330376Y-118118812D01*
X157262456Y-118282784D01*
X157163853Y-118430354D01*
X157038354Y-118555853D01*
X156890784Y-118654456D01*
X156726812Y-118722376D01*
X156577512Y-118752073D01*
X156552742Y-118757000D01*
X156375258Y-118757000D01*
X156350488Y-118752073D01*
X156201188Y-118722376D01*
X156037216Y-118654456D01*
X155889646Y-118555853D01*
X155764147Y-118430354D01*
X155665544Y-118282784D01*
X155597624Y-118118812D01*
X155563000Y-117944741D01*
X155563000Y-117767259D01*
X155597624Y-117593188D01*
X155665544Y-117429216D01*
X155764147Y-117281646D01*
X155889646Y-117156147D01*
X156037216Y-117057544D01*
X156201188Y-116989624D01*
X156350488Y-116959927D01*
X156375258Y-116955000D01*
X156552742Y-116955000D01*
X156577512Y-116959927D01*
G37*
G36*
X169277512Y-116959927D02*
G01*
X169426812Y-116989624D01*
X169590784Y-117057544D01*
X169738354Y-117156147D01*
X169863853Y-117281646D01*
X169962456Y-117429216D01*
X170030376Y-117593188D01*
X170065000Y-117767259D01*
X170065000Y-117944741D01*
X170030376Y-118118812D01*
X169962456Y-118282784D01*
X169863853Y-118430354D01*
X169738354Y-118555853D01*
X169590784Y-118654456D01*
X169426812Y-118722376D01*
X169277512Y-118752073D01*
X169252742Y-118757000D01*
X169075258Y-118757000D01*
X169050488Y-118752073D01*
X168901188Y-118722376D01*
X168737216Y-118654456D01*
X168589646Y-118555853D01*
X168464147Y-118430354D01*
X168365544Y-118282784D01*
X168297624Y-118118812D01*
X168263000Y-117944741D01*
X168263000Y-117767259D01*
X168297624Y-117593188D01*
X168365544Y-117429216D01*
X168464147Y-117281646D01*
X168589646Y-117156147D01*
X168737216Y-117057544D01*
X168901188Y-116989624D01*
X169050488Y-116959927D01*
X169075258Y-116955000D01*
X169252742Y-116955000D01*
X169277512Y-116959927D01*
G37*
G36*
X178816166Y-116413106D02*
G01*
X179007435Y-116492332D01*
X179007437Y-116492333D01*
X179062313Y-116529000D01*
X179179575Y-116607352D01*
X179325967Y-116753744D01*
X179440987Y-116925884D01*
X179520213Y-117117153D01*
X179560602Y-117320201D01*
X179560602Y-117527233D01*
X179520213Y-117730281D01*
X179451333Y-117896573D01*
X179440986Y-117921552D01*
X179325967Y-118093690D01*
X179179575Y-118240082D01*
X179007437Y-118355101D01*
X179007436Y-118355102D01*
X179007435Y-118355102D01*
X178816166Y-118434328D01*
X178613118Y-118474717D01*
X178406086Y-118474717D01*
X178203038Y-118434328D01*
X178011769Y-118355102D01*
X178011768Y-118355102D01*
X178011767Y-118355101D01*
X177839629Y-118240082D01*
X177693237Y-118093690D01*
X177578218Y-117921552D01*
X177567871Y-117896573D01*
X177498991Y-117730281D01*
X177458602Y-117527233D01*
X177458602Y-117320201D01*
X177498991Y-117117153D01*
X177578217Y-116925884D01*
X177693237Y-116753744D01*
X177839629Y-116607352D01*
X177956891Y-116529000D01*
X178011767Y-116492333D01*
X178011769Y-116492332D01*
X178203038Y-116413106D01*
X178406086Y-116372717D01*
X178613118Y-116372717D01*
X178816166Y-116413106D01*
G37*
G36*
X186594341Y-114998892D02*
G01*
X186785610Y-115078118D01*
X186785612Y-115078119D01*
X186957750Y-115193138D01*
X187104142Y-115339530D01*
X187219162Y-115511670D01*
X187298388Y-115702939D01*
X187338777Y-115905987D01*
X187338777Y-116113019D01*
X187298388Y-116316067D01*
X187225377Y-116492332D01*
X187219161Y-116507338D01*
X187104142Y-116679476D01*
X186957750Y-116825868D01*
X186785612Y-116940887D01*
X186785611Y-116940888D01*
X186785610Y-116940888D01*
X186594341Y-117020114D01*
X186391293Y-117060503D01*
X186184261Y-117060503D01*
X185981213Y-117020114D01*
X185789944Y-116940888D01*
X185789943Y-116940888D01*
X185789942Y-116940887D01*
X185617804Y-116825868D01*
X185471412Y-116679476D01*
X185356393Y-116507338D01*
X185350177Y-116492332D01*
X185277166Y-116316067D01*
X185236777Y-116113019D01*
X185236777Y-115905987D01*
X185277166Y-115702939D01*
X185356392Y-115511670D01*
X185471412Y-115339530D01*
X185617804Y-115193138D01*
X185789942Y-115078119D01*
X185789944Y-115078118D01*
X185981213Y-114998892D01*
X186184261Y-114958503D01*
X186391293Y-114958503D01*
X186594341Y-114998892D01*
G37*
G36*
X188733339Y-112859895D02*
G01*
X188905091Y-112931037D01*
X188924610Y-112939122D01*
X188960346Y-112963000D01*
X189096748Y-113054141D01*
X189243140Y-113200533D01*
X189358160Y-113372673D01*
X189437386Y-113563942D01*
X189477775Y-113766990D01*
X189477775Y-113974022D01*
X189437386Y-114177070D01*
X189390285Y-114290782D01*
X189358159Y-114368341D01*
X189243140Y-114540479D01*
X189096748Y-114686871D01*
X188924610Y-114801890D01*
X188924609Y-114801891D01*
X188924608Y-114801891D01*
X188733339Y-114881117D01*
X188530291Y-114921506D01*
X188323259Y-114921506D01*
X188120211Y-114881117D01*
X187928942Y-114801891D01*
X187928941Y-114801891D01*
X187928940Y-114801890D01*
X187756802Y-114686871D01*
X187610410Y-114540479D01*
X187495391Y-114368341D01*
X187463265Y-114290782D01*
X187416164Y-114177070D01*
X187375775Y-113974022D01*
X187375775Y-113766990D01*
X187416164Y-113563942D01*
X187495390Y-113372673D01*
X187610410Y-113200533D01*
X187756802Y-113054141D01*
X187893204Y-112963000D01*
X187928940Y-112939122D01*
X187948459Y-112931037D01*
X188120211Y-112859895D01*
X188323259Y-112819506D01*
X188530291Y-112819506D01*
X188733339Y-112859895D01*
G37*
G36*
X175262955Y-112859895D02*
G01*
X175434707Y-112931037D01*
X175454226Y-112939122D01*
X175489962Y-112963000D01*
X175626364Y-113054141D01*
X175772756Y-113200533D01*
X175887776Y-113372673D01*
X175967002Y-113563942D01*
X176007391Y-113766990D01*
X176007391Y-113974022D01*
X175967002Y-114177070D01*
X175919901Y-114290782D01*
X175887775Y-114368341D01*
X175772756Y-114540479D01*
X175626364Y-114686871D01*
X175454226Y-114801890D01*
X175454225Y-114801891D01*
X175454224Y-114801891D01*
X175262955Y-114881117D01*
X175059907Y-114921506D01*
X174852875Y-114921506D01*
X174649827Y-114881117D01*
X174458558Y-114801891D01*
X174458557Y-114801891D01*
X174458556Y-114801890D01*
X174286418Y-114686871D01*
X174140026Y-114540479D01*
X174025007Y-114368341D01*
X173992881Y-114290782D01*
X173945780Y-114177070D01*
X173905391Y-113974022D01*
X173905391Y-113766990D01*
X173945780Y-113563942D01*
X174025006Y-113372673D01*
X174140026Y-113200533D01*
X174286418Y-113054141D01*
X174422820Y-112963000D01*
X174458556Y-112939122D01*
X174478075Y-112931037D01*
X174649827Y-112859895D01*
X174852875Y-112819506D01*
X175059907Y-112819506D01*
X175262955Y-112859895D01*
G37*
G36*
X144893512Y-112967927D02*
G01*
X145042812Y-112997624D01*
X145206784Y-113065544D01*
X145354354Y-113164147D01*
X145479853Y-113289646D01*
X145578456Y-113437216D01*
X145646376Y-113601188D01*
X145676073Y-113750488D01*
X145677748Y-113758907D01*
X145681000Y-113775259D01*
X145681000Y-113952741D01*
X145646376Y-114126812D01*
X145578456Y-114290784D01*
X145479853Y-114438354D01*
X145354354Y-114563853D01*
X145206784Y-114662456D01*
X145042812Y-114730376D01*
X144893512Y-114760073D01*
X144868742Y-114765000D01*
X144691258Y-114765000D01*
X144666488Y-114760073D01*
X144517188Y-114730376D01*
X144353216Y-114662456D01*
X144205646Y-114563853D01*
X144080147Y-114438354D01*
X143981544Y-114290784D01*
X143913624Y-114126812D01*
X143879000Y-113952741D01*
X143879000Y-113775259D01*
X143882253Y-113758907D01*
X143883927Y-113750488D01*
X143913624Y-113601188D01*
X143981544Y-113437216D01*
X144080147Y-113289646D01*
X144205646Y-113164147D01*
X144353216Y-113065544D01*
X144517188Y-112997624D01*
X144666488Y-112967927D01*
X144691258Y-112963000D01*
X144868742Y-112963000D01*
X144893512Y-112967927D01*
G37*
G36*
X149931000Y-114015000D02*
G01*
X147029000Y-114015000D01*
X147029000Y-111113000D01*
X149931000Y-111113000D01*
X149931000Y-114015000D01*
G37*
G36*
X183412360Y-111816912D02*
G01*
X183603629Y-111896138D01*
X183603631Y-111896139D01*
X183775769Y-112011158D01*
X183922161Y-112157550D01*
X183941695Y-112186784D01*
X184037181Y-112329690D01*
X184116407Y-112520959D01*
X184156796Y-112724007D01*
X184156796Y-112931039D01*
X184116407Y-113134087D01*
X184051972Y-113289647D01*
X184037180Y-113325358D01*
X183922161Y-113497496D01*
X183775769Y-113643888D01*
X183603631Y-113758907D01*
X183603630Y-113758908D01*
X183603629Y-113758908D01*
X183412360Y-113838134D01*
X183209312Y-113878523D01*
X183002280Y-113878523D01*
X182799232Y-113838134D01*
X182607963Y-113758908D01*
X182607962Y-113758908D01*
X182607961Y-113758907D01*
X182435823Y-113643888D01*
X182289431Y-113497496D01*
X182174412Y-113325358D01*
X182159620Y-113289647D01*
X182095185Y-113134087D01*
X182054796Y-112931039D01*
X182054796Y-112724007D01*
X182095185Y-112520959D01*
X182174411Y-112329690D01*
X182269898Y-112186784D01*
X182289431Y-112157550D01*
X182435823Y-112011158D01*
X182607961Y-111896139D01*
X182607963Y-111896138D01*
X182799232Y-111816912D01*
X183002280Y-111776523D01*
X183209312Y-111776523D01*
X183412360Y-111816912D01*
G37*
G36*
X161430562Y-111345181D02*
G01*
X161465481Y-111355774D01*
X161497663Y-111372976D01*
X161525873Y-111396127D01*
X161549024Y-111424337D01*
X161566226Y-111456519D01*
X161576819Y-111491438D01*
X161581000Y-111533895D01*
X161581000Y-112675105D01*
X161576819Y-112717562D01*
X161566226Y-112752481D01*
X161549024Y-112784663D01*
X161525873Y-112812873D01*
X161497663Y-112836024D01*
X161465481Y-112853226D01*
X161430562Y-112863819D01*
X161388105Y-112868000D01*
X159921895Y-112868000D01*
X159879438Y-112863819D01*
X159844519Y-112853226D01*
X159812337Y-112836024D01*
X159784127Y-112812873D01*
X159760976Y-112784663D01*
X159743774Y-112752481D01*
X159733181Y-112717562D01*
X159729000Y-112675105D01*
X159729000Y-111533895D01*
X159733181Y-111491438D01*
X159743774Y-111456519D01*
X159760976Y-111424337D01*
X159784127Y-111396127D01*
X159812337Y-111372976D01*
X159844519Y-111355774D01*
X159879438Y-111345181D01*
X159921895Y-111341000D01*
X161388105Y-111341000D01*
X161430562Y-111345181D01*
G37*
G36*
X157620562Y-111345181D02*
G01*
X157655481Y-111355774D01*
X157687663Y-111372976D01*
X157715873Y-111396127D01*
X157739024Y-111424337D01*
X157756226Y-111456519D01*
X157766819Y-111491438D01*
X157771000Y-111533895D01*
X157771000Y-112675105D01*
X157766819Y-112717562D01*
X157756226Y-112752481D01*
X157739024Y-112784663D01*
X157715873Y-112812873D01*
X157687663Y-112836024D01*
X157655481Y-112853226D01*
X157620562Y-112863819D01*
X157578105Y-112868000D01*
X156111895Y-112868000D01*
X156069438Y-112863819D01*
X156034519Y-112853226D01*
X156002337Y-112836024D01*
X155974127Y-112812873D01*
X155950976Y-112784663D01*
X155933774Y-112752481D01*
X155923181Y-112717562D01*
X155919000Y-112675105D01*
X155919000Y-111533895D01*
X155923181Y-111491438D01*
X155933774Y-111456519D01*
X155950976Y-111424337D01*
X155974127Y-111396127D01*
X156002337Y-111372976D01*
X156034519Y-111355774D01*
X156069438Y-111345181D01*
X156111895Y-111341000D01*
X157578105Y-111341000D01*
X157620562Y-111345181D01*
G37*
G36*
X165240562Y-111345181D02*
G01*
X165275481Y-111355774D01*
X165307663Y-111372976D01*
X165335873Y-111396127D01*
X165359024Y-111424337D01*
X165376226Y-111456519D01*
X165386819Y-111491438D01*
X165391000Y-111533895D01*
X165391000Y-112675105D01*
X165386819Y-112717562D01*
X165376226Y-112752481D01*
X165359024Y-112784663D01*
X165335873Y-112812873D01*
X165307663Y-112836024D01*
X165275481Y-112853226D01*
X165240562Y-112863819D01*
X165198105Y-112868000D01*
X163731895Y-112868000D01*
X163689438Y-112863819D01*
X163654519Y-112853226D01*
X163622337Y-112836024D01*
X163594127Y-112812873D01*
X163570976Y-112784663D01*
X163553774Y-112752481D01*
X163543181Y-112717562D01*
X163539000Y-112675105D01*
X163539000Y-111533895D01*
X163543181Y-111491438D01*
X163553774Y-111456519D01*
X163570976Y-111424337D01*
X163594127Y-111396127D01*
X163622337Y-111372976D01*
X163654519Y-111355774D01*
X163689438Y-111345181D01*
X163731895Y-111341000D01*
X165198105Y-111341000D01*
X165240562Y-111345181D01*
G37*
G36*
X131177512Y-110863927D02*
G01*
X131326812Y-110893624D01*
X131490784Y-110961544D01*
X131638354Y-111060147D01*
X131763853Y-111185646D01*
X131862456Y-111333216D01*
X131930376Y-111497188D01*
X131965000Y-111671259D01*
X131965000Y-111848741D01*
X131930376Y-112022812D01*
X131862456Y-112186784D01*
X131763853Y-112334354D01*
X131638354Y-112459853D01*
X131490784Y-112558456D01*
X131326812Y-112626376D01*
X131177512Y-112656073D01*
X131152742Y-112661000D01*
X130975258Y-112661000D01*
X130950488Y-112656073D01*
X130801188Y-112626376D01*
X130637216Y-112558456D01*
X130489646Y-112459853D01*
X130364147Y-112334354D01*
X130265544Y-112186784D01*
X130197624Y-112022812D01*
X130163000Y-111848741D01*
X130163000Y-111671259D01*
X130197624Y-111497188D01*
X130265544Y-111333216D01*
X130364147Y-111185646D01*
X130489646Y-111060147D01*
X130637216Y-110961544D01*
X130801188Y-110893624D01*
X130950488Y-110863927D01*
X130975258Y-110859000D01*
X131152742Y-110859000D01*
X131177512Y-110863927D01*
G37*
G36*
X133717512Y-110863927D02*
G01*
X133866812Y-110893624D01*
X134030784Y-110961544D01*
X134178354Y-111060147D01*
X134303853Y-111185646D01*
X134402456Y-111333216D01*
X134470376Y-111497188D01*
X134505000Y-111671259D01*
X134505000Y-111848741D01*
X134470376Y-112022812D01*
X134402456Y-112186784D01*
X134303853Y-112334354D01*
X134178354Y-112459853D01*
X134030784Y-112558456D01*
X133866812Y-112626376D01*
X133717512Y-112656073D01*
X133692742Y-112661000D01*
X133515258Y-112661000D01*
X133490488Y-112656073D01*
X133341188Y-112626376D01*
X133177216Y-112558456D01*
X133029646Y-112459853D01*
X132904147Y-112334354D01*
X132805544Y-112186784D01*
X132737624Y-112022812D01*
X132703000Y-111848741D01*
X132703000Y-111671259D01*
X132737624Y-111497188D01*
X132805544Y-111333216D01*
X132904147Y-111185646D01*
X133029646Y-111060147D01*
X133177216Y-110961544D01*
X133341188Y-110893624D01*
X133490488Y-110863927D01*
X133515258Y-110859000D01*
X133692742Y-110859000D01*
X133717512Y-110863927D01*
G37*
G36*
X129425000Y-112661000D02*
G01*
X127623000Y-112661000D01*
X127623000Y-110859000D01*
X129425000Y-110859000D01*
X129425000Y-112661000D01*
G37*
G36*
X172080974Y-109677914D02*
G01*
X172237048Y-109742562D01*
X172272245Y-109757141D01*
X172427717Y-109861024D01*
X172444383Y-109872160D01*
X172590775Y-110018552D01*
X172705795Y-110190692D01*
X172785021Y-110381961D01*
X172825410Y-110585009D01*
X172825410Y-110792041D01*
X172785021Y-110995089D01*
X172705795Y-111186358D01*
X172705794Y-111186360D01*
X172590775Y-111358498D01*
X172444383Y-111504890D01*
X172272245Y-111619909D01*
X172272244Y-111619910D01*
X172272243Y-111619910D01*
X172080974Y-111699136D01*
X171877926Y-111739525D01*
X171670894Y-111739525D01*
X171467846Y-111699136D01*
X171276577Y-111619910D01*
X171276576Y-111619910D01*
X171276575Y-111619909D01*
X171104437Y-111504890D01*
X170958045Y-111358498D01*
X170843026Y-111186360D01*
X170843025Y-111186358D01*
X170763799Y-110995089D01*
X170723410Y-110792041D01*
X170723410Y-110585009D01*
X170763799Y-110381961D01*
X170843025Y-110190692D01*
X170958045Y-110018552D01*
X171104437Y-109872160D01*
X171121103Y-109861024D01*
X171276575Y-109757141D01*
X171311772Y-109742562D01*
X171467846Y-109677914D01*
X171670894Y-109637525D01*
X171877926Y-109637525D01*
X172080974Y-109677914D01*
G37*
G36*
X185551358Y-109677914D02*
G01*
X185707432Y-109742562D01*
X185742629Y-109757141D01*
X185898101Y-109861024D01*
X185914767Y-109872160D01*
X186061159Y-110018552D01*
X186176179Y-110190692D01*
X186255405Y-110381961D01*
X186295794Y-110585009D01*
X186295794Y-110792041D01*
X186255405Y-110995089D01*
X186176179Y-111186358D01*
X186176178Y-111186360D01*
X186061159Y-111358498D01*
X185914767Y-111504890D01*
X185742629Y-111619909D01*
X185742628Y-111619910D01*
X185742627Y-111619910D01*
X185551358Y-111699136D01*
X185348310Y-111739525D01*
X185141278Y-111739525D01*
X184938230Y-111699136D01*
X184746961Y-111619910D01*
X184746960Y-111619910D01*
X184746959Y-111619909D01*
X184574821Y-111504890D01*
X184428429Y-111358498D01*
X184313410Y-111186360D01*
X184313409Y-111186358D01*
X184234183Y-110995089D01*
X184193794Y-110792041D01*
X184193794Y-110585009D01*
X184234183Y-110381961D01*
X184313409Y-110190692D01*
X184428429Y-110018552D01*
X184574821Y-109872160D01*
X184591487Y-109861024D01*
X184746959Y-109757141D01*
X184782156Y-109742562D01*
X184938230Y-109677914D01*
X185141278Y-109637525D01*
X185348310Y-109637525D01*
X185551358Y-109677914D01*
G37*
G36*
X179859149Y-108263700D02*
G01*
X180050418Y-108342926D01*
X180050420Y-108342927D01*
X180202382Y-108444465D01*
X180222558Y-108457946D01*
X180368950Y-108604338D01*
X180483970Y-108776478D01*
X180563196Y-108967747D01*
X180603585Y-109170795D01*
X180603585Y-109377827D01*
X180563196Y-109580875D01*
X180496223Y-109742562D01*
X180483969Y-109772146D01*
X180368950Y-109944284D01*
X180222558Y-110090676D01*
X180050420Y-110205695D01*
X180050419Y-110205696D01*
X180050418Y-110205696D01*
X179859149Y-110284922D01*
X179656101Y-110325311D01*
X179449069Y-110325311D01*
X179246021Y-110284922D01*
X179054752Y-110205696D01*
X179054751Y-110205696D01*
X179054750Y-110205695D01*
X178882612Y-110090676D01*
X178736220Y-109944284D01*
X178621201Y-109772146D01*
X178608947Y-109742562D01*
X178541974Y-109580875D01*
X178501585Y-109377827D01*
X178501585Y-109170795D01*
X178541974Y-108967747D01*
X178621200Y-108776478D01*
X178736220Y-108604338D01*
X178882612Y-108457946D01*
X178902788Y-108444465D01*
X179054750Y-108342927D01*
X179054752Y-108342926D01*
X179246021Y-108263700D01*
X179449069Y-108223311D01*
X179656101Y-108223311D01*
X179859149Y-108263700D01*
G37*
G36*
X193329533Y-108263700D02*
G01*
X193520802Y-108342926D01*
X193520804Y-108342927D01*
X193672766Y-108444465D01*
X193692942Y-108457946D01*
X193839334Y-108604338D01*
X193954354Y-108776478D01*
X194033580Y-108967747D01*
X194073969Y-109170795D01*
X194073969Y-109377827D01*
X194033580Y-109580875D01*
X193966607Y-109742562D01*
X193954353Y-109772146D01*
X193839334Y-109944284D01*
X193692942Y-110090676D01*
X193520804Y-110205695D01*
X193520803Y-110205696D01*
X193520802Y-110205696D01*
X193329533Y-110284922D01*
X193126485Y-110325311D01*
X192919453Y-110325311D01*
X192716405Y-110284922D01*
X192525136Y-110205696D01*
X192525135Y-110205696D01*
X192525134Y-110205695D01*
X192352996Y-110090676D01*
X192206604Y-109944284D01*
X192091585Y-109772146D01*
X192079331Y-109742562D01*
X192012358Y-109580875D01*
X191971969Y-109377827D01*
X191971969Y-109170795D01*
X192012358Y-108967747D01*
X192091584Y-108776478D01*
X192206604Y-108604338D01*
X192352996Y-108457946D01*
X192373172Y-108444465D01*
X192525134Y-108342927D01*
X192525136Y-108342926D01*
X192716405Y-108263700D01*
X192919453Y-108223311D01*
X193126485Y-108223311D01*
X193329533Y-108263700D01*
G37*
G36*
X165240562Y-108370181D02*
G01*
X165275481Y-108380774D01*
X165307663Y-108397976D01*
X165335873Y-108421127D01*
X165359024Y-108449337D01*
X165376226Y-108481519D01*
X165386819Y-108516438D01*
X165391000Y-108558895D01*
X165391000Y-109700105D01*
X165386819Y-109742562D01*
X165376226Y-109777481D01*
X165359024Y-109809663D01*
X165335873Y-109837873D01*
X165307663Y-109861024D01*
X165275481Y-109878226D01*
X165240562Y-109888819D01*
X165198105Y-109893000D01*
X163731895Y-109893000D01*
X163689438Y-109888819D01*
X163654519Y-109878226D01*
X163622337Y-109861024D01*
X163594127Y-109837873D01*
X163570976Y-109809663D01*
X163553774Y-109777481D01*
X163543181Y-109742562D01*
X163539000Y-109700105D01*
X163539000Y-108558895D01*
X163543181Y-108516438D01*
X163553774Y-108481519D01*
X163570976Y-108449337D01*
X163594127Y-108421127D01*
X163622337Y-108397976D01*
X163654519Y-108380774D01*
X163689438Y-108370181D01*
X163731895Y-108366000D01*
X165198105Y-108366000D01*
X165240562Y-108370181D01*
G37*
G36*
X161430562Y-108370181D02*
G01*
X161465481Y-108380774D01*
X161497663Y-108397976D01*
X161525873Y-108421127D01*
X161549024Y-108449337D01*
X161566226Y-108481519D01*
X161576819Y-108516438D01*
X161581000Y-108558895D01*
X161581000Y-109700105D01*
X161576819Y-109742562D01*
X161566226Y-109777481D01*
X161549024Y-109809663D01*
X161525873Y-109837873D01*
X161497663Y-109861024D01*
X161465481Y-109878226D01*
X161430562Y-109888819D01*
X161388105Y-109893000D01*
X159921895Y-109893000D01*
X159879438Y-109888819D01*
X159844519Y-109878226D01*
X159812337Y-109861024D01*
X159784127Y-109837873D01*
X159760976Y-109809663D01*
X159743774Y-109777481D01*
X159733181Y-109742562D01*
X159729000Y-109700105D01*
X159729000Y-108558895D01*
X159733181Y-108516438D01*
X159743774Y-108481519D01*
X159760976Y-108449337D01*
X159784127Y-108421127D01*
X159812337Y-108397976D01*
X159844519Y-108380774D01*
X159879438Y-108370181D01*
X159921895Y-108366000D01*
X161388105Y-108366000D01*
X161430562Y-108370181D01*
G37*
G36*
X157620562Y-108370181D02*
G01*
X157655481Y-108380774D01*
X157687663Y-108397976D01*
X157715873Y-108421127D01*
X157739024Y-108449337D01*
X157756226Y-108481519D01*
X157766819Y-108516438D01*
X157771000Y-108558895D01*
X157771000Y-109700105D01*
X157766819Y-109742562D01*
X157756226Y-109777481D01*
X157739024Y-109809663D01*
X157715873Y-109837873D01*
X157687663Y-109861024D01*
X157655481Y-109878226D01*
X157620562Y-109888819D01*
X157578105Y-109893000D01*
X156111895Y-109893000D01*
X156069438Y-109888819D01*
X156034519Y-109878226D01*
X156002337Y-109861024D01*
X155974127Y-109837873D01*
X155950976Y-109809663D01*
X155933774Y-109777481D01*
X155923181Y-109742562D01*
X155919000Y-109700105D01*
X155919000Y-108558895D01*
X155923181Y-108516438D01*
X155933774Y-108481519D01*
X155950976Y-108449337D01*
X155974127Y-108421127D01*
X156002337Y-108397976D01*
X156034519Y-108380774D01*
X156069438Y-108370181D01*
X156111895Y-108366000D01*
X157578105Y-108366000D01*
X157620562Y-108370181D01*
G37*
G36*
X181998147Y-106124703D02*
G01*
X182169899Y-106195845D01*
X182189418Y-106203930D01*
X182361556Y-106318949D01*
X182507948Y-106465341D01*
X182622968Y-106637481D01*
X182702194Y-106828750D01*
X182742583Y-107031798D01*
X182742583Y-107238830D01*
X182702194Y-107441878D01*
X182644568Y-107581000D01*
X182622967Y-107633149D01*
X182507948Y-107805287D01*
X182361556Y-107951679D01*
X182189418Y-108066698D01*
X182189417Y-108066699D01*
X182189416Y-108066699D01*
X181998147Y-108145925D01*
X181795099Y-108186314D01*
X181588067Y-108186314D01*
X181385019Y-108145925D01*
X181193750Y-108066699D01*
X181193749Y-108066699D01*
X181193748Y-108066698D01*
X181021610Y-107951679D01*
X180875218Y-107805287D01*
X180760199Y-107633149D01*
X180738598Y-107581000D01*
X180680972Y-107441878D01*
X180640583Y-107238830D01*
X180640583Y-107031798D01*
X180680972Y-106828750D01*
X180760198Y-106637481D01*
X180875218Y-106465341D01*
X181021610Y-106318949D01*
X181193748Y-106203930D01*
X181213267Y-106195845D01*
X181385019Y-106124703D01*
X181588067Y-106084314D01*
X181795099Y-106084314D01*
X181998147Y-106124703D01*
G37*
G36*
X199249512Y-105783927D02*
G01*
X199398812Y-105813624D01*
X199562784Y-105881544D01*
X199710354Y-105980147D01*
X199835853Y-106105646D01*
X199934456Y-106253216D01*
X200002376Y-106417188D01*
X200037000Y-106591259D01*
X200037000Y-106768741D01*
X200002376Y-106942812D01*
X199934456Y-107106784D01*
X199835853Y-107254354D01*
X199710354Y-107379853D01*
X199562784Y-107478456D01*
X199398812Y-107546376D01*
X199249512Y-107576073D01*
X199224742Y-107581000D01*
X199047258Y-107581000D01*
X199022488Y-107576073D01*
X198873188Y-107546376D01*
X198709216Y-107478456D01*
X198561646Y-107379853D01*
X198436147Y-107254354D01*
X198337544Y-107106784D01*
X198269624Y-106942812D01*
X198235000Y-106768741D01*
X198235000Y-106591259D01*
X198269624Y-106417188D01*
X198337544Y-106253216D01*
X198436147Y-106105646D01*
X198561646Y-105980147D01*
X198709216Y-105881544D01*
X198873188Y-105813624D01*
X199022488Y-105783927D01*
X199047258Y-105779000D01*
X199224742Y-105779000D01*
X199249512Y-105783927D01*
G37*
G36*
X176677168Y-105081720D02*
G01*
X176868437Y-105160946D01*
X176868439Y-105160947D01*
X177040577Y-105275966D01*
X177186969Y-105422358D01*
X177301989Y-105594498D01*
X177381215Y-105785767D01*
X177421604Y-105988815D01*
X177421604Y-106195847D01*
X177381215Y-106398895D01*
X177373637Y-106417189D01*
X177301988Y-106590166D01*
X177186969Y-106762304D01*
X177040577Y-106908696D01*
X176868439Y-107023715D01*
X176868438Y-107023716D01*
X176868437Y-107023716D01*
X176677168Y-107102942D01*
X176474120Y-107143331D01*
X176267088Y-107143331D01*
X176064040Y-107102942D01*
X175872771Y-107023716D01*
X175872770Y-107023716D01*
X175872769Y-107023715D01*
X175700631Y-106908696D01*
X175554239Y-106762304D01*
X175439220Y-106590166D01*
X175367571Y-106417189D01*
X175359993Y-106398895D01*
X175319604Y-106195847D01*
X175319604Y-105988815D01*
X175359993Y-105785767D01*
X175439219Y-105594498D01*
X175554239Y-105422358D01*
X175700631Y-105275966D01*
X175872769Y-105160947D01*
X175872771Y-105160946D01*
X176064040Y-105081720D01*
X176267088Y-105041331D01*
X176474120Y-105041331D01*
X176677168Y-105081720D01*
G37*
G36*
X190147552Y-105081720D02*
G01*
X190338821Y-105160946D01*
X190338823Y-105160947D01*
X190510961Y-105275966D01*
X190657353Y-105422358D01*
X190772373Y-105594498D01*
X190851599Y-105785767D01*
X190891988Y-105988815D01*
X190891988Y-106195847D01*
X190851599Y-106398895D01*
X190844021Y-106417189D01*
X190772372Y-106590166D01*
X190657353Y-106762304D01*
X190510961Y-106908696D01*
X190338823Y-107023715D01*
X190338822Y-107023716D01*
X190338821Y-107023716D01*
X190147552Y-107102942D01*
X189944504Y-107143331D01*
X189737472Y-107143331D01*
X189534424Y-107102942D01*
X189343155Y-107023716D01*
X189343154Y-107023716D01*
X189343153Y-107023715D01*
X189171015Y-106908696D01*
X189024623Y-106762304D01*
X188909604Y-106590166D01*
X188837955Y-106417189D01*
X188830377Y-106398895D01*
X188789988Y-106195847D01*
X188789988Y-105988815D01*
X188830377Y-105785767D01*
X188909603Y-105594498D01*
X189024623Y-105422358D01*
X189171015Y-105275966D01*
X189343153Y-105160947D01*
X189343155Y-105160946D01*
X189534424Y-105081720D01*
X189737472Y-105041331D01*
X189944504Y-105041331D01*
X190147552Y-105081720D01*
G37*
G36*
X199249512Y-103243927D02*
G01*
X199398812Y-103273624D01*
X199562784Y-103341544D01*
X199710354Y-103440147D01*
X199835853Y-103565646D01*
X199934456Y-103713216D01*
X200002376Y-103877188D01*
X200037000Y-104051259D01*
X200037000Y-104228741D01*
X200002376Y-104402812D01*
X199934456Y-104566784D01*
X199835853Y-104714354D01*
X199710354Y-104839853D01*
X199562784Y-104938456D01*
X199398812Y-105006376D01*
X199249512Y-105036073D01*
X199224742Y-105041000D01*
X199047258Y-105041000D01*
X199022488Y-105036073D01*
X198873188Y-105006376D01*
X198709216Y-104938456D01*
X198561646Y-104839853D01*
X198436147Y-104714354D01*
X198337544Y-104566784D01*
X198269624Y-104402812D01*
X198235000Y-104228741D01*
X198235000Y-104051259D01*
X198269624Y-103877188D01*
X198337544Y-103713216D01*
X198436147Y-103565646D01*
X198561646Y-103440147D01*
X198709216Y-103341544D01*
X198873188Y-103273624D01*
X199022488Y-103243927D01*
X199047258Y-103239000D01*
X199224742Y-103239000D01*
X199249512Y-103243927D01*
G37*
G36*
X178816166Y-102942722D02*
G01*
X179007435Y-103021948D01*
X179007437Y-103021949D01*
X179179575Y-103136968D01*
X179325967Y-103283360D01*
X179430729Y-103440147D01*
X179440987Y-103455500D01*
X179520213Y-103646769D01*
X179560602Y-103849817D01*
X179560602Y-104056849D01*
X179520213Y-104259897D01*
X179467056Y-104388229D01*
X179440986Y-104451168D01*
X179325967Y-104623306D01*
X179179575Y-104769698D01*
X179007437Y-104884717D01*
X179007436Y-104884718D01*
X179007435Y-104884718D01*
X178816166Y-104963944D01*
X178613118Y-105004333D01*
X178406086Y-105004333D01*
X178203038Y-104963944D01*
X178011769Y-104884718D01*
X178011768Y-104884718D01*
X178011767Y-104884717D01*
X177839629Y-104769698D01*
X177693237Y-104623306D01*
X177578218Y-104451168D01*
X177552148Y-104388229D01*
X177498991Y-104259897D01*
X177458602Y-104056849D01*
X177458602Y-103849817D01*
X177498991Y-103646769D01*
X177578217Y-103455500D01*
X177588476Y-103440147D01*
X177693237Y-103283360D01*
X177839629Y-103136968D01*
X178011767Y-103021949D01*
X178011769Y-103021948D01*
X178203038Y-102942722D01*
X178406086Y-102902333D01*
X178613118Y-102902333D01*
X178816166Y-102942722D01*
G37*
G36*
X161792228Y-103321703D02*
G01*
X161947100Y-103385853D01*
X162086481Y-103478985D01*
X162205015Y-103597519D01*
X162298147Y-103736900D01*
X162362297Y-103891772D01*
X162395000Y-104056184D01*
X162395000Y-104223816D01*
X162362297Y-104388228D01*
X162298147Y-104543100D01*
X162205015Y-104682481D01*
X162086481Y-104801015D01*
X161947100Y-104894147D01*
X161792228Y-104958297D01*
X161627816Y-104991000D01*
X161460184Y-104991000D01*
X161295772Y-104958297D01*
X161140900Y-104894147D01*
X161001519Y-104801015D01*
X160882985Y-104682481D01*
X160789853Y-104543100D01*
X160725703Y-104388228D01*
X160693000Y-104223816D01*
X160693000Y-104056184D01*
X160725703Y-103891772D01*
X160789853Y-103736900D01*
X160882985Y-103597519D01*
X161001519Y-103478985D01*
X161140900Y-103385853D01*
X161295772Y-103321703D01*
X161460184Y-103289000D01*
X161627816Y-103289000D01*
X161792228Y-103321703D01*
G37*
G36*
X131312228Y-103321703D02*
G01*
X131467100Y-103385853D01*
X131606481Y-103478985D01*
X131725015Y-103597519D01*
X131818147Y-103736900D01*
X131882297Y-103891772D01*
X131915000Y-104056184D01*
X131915000Y-104223816D01*
X131882297Y-104388228D01*
X131818147Y-104543100D01*
X131725015Y-104682481D01*
X131606481Y-104801015D01*
X131467100Y-104894147D01*
X131312228Y-104958297D01*
X131147816Y-104991000D01*
X130980184Y-104991000D01*
X130815772Y-104958297D01*
X130660900Y-104894147D01*
X130521519Y-104801015D01*
X130402985Y-104682481D01*
X130309853Y-104543100D01*
X130245703Y-104388228D01*
X130213000Y-104223816D01*
X130213000Y-104056184D01*
X130245703Y-103891772D01*
X130309853Y-103736900D01*
X130402985Y-103597519D01*
X130521519Y-103478985D01*
X130660900Y-103385853D01*
X130815772Y-103321703D01*
X130980184Y-103289000D01*
X131147816Y-103289000D01*
X131312228Y-103321703D01*
G37*
G36*
X154172228Y-103321703D02*
G01*
X154327100Y-103385853D01*
X154466481Y-103478985D01*
X154585015Y-103597519D01*
X154678147Y-103736900D01*
X154742297Y-103891772D01*
X154775000Y-104056184D01*
X154775000Y-104223816D01*
X154742297Y-104388228D01*
X154678147Y-104543100D01*
X154585015Y-104682481D01*
X154466481Y-104801015D01*
X154327100Y-104894147D01*
X154172228Y-104958297D01*
X154007816Y-104991000D01*
X153840184Y-104991000D01*
X153675772Y-104958297D01*
X153520900Y-104894147D01*
X153381519Y-104801015D01*
X153262985Y-104682481D01*
X153169853Y-104543100D01*
X153105703Y-104388228D01*
X153073000Y-104223816D01*
X153073000Y-104056184D01*
X153105703Y-103891772D01*
X153169853Y-103736900D01*
X153262985Y-103597519D01*
X153381519Y-103478985D01*
X153520900Y-103385853D01*
X153675772Y-103321703D01*
X153840184Y-103289000D01*
X154007816Y-103289000D01*
X154172228Y-103321703D01*
G37*
G36*
X151632228Y-103321703D02*
G01*
X151787100Y-103385853D01*
X151926481Y-103478985D01*
X152045015Y-103597519D01*
X152138147Y-103736900D01*
X152202297Y-103891772D01*
X152235000Y-104056184D01*
X152235000Y-104223816D01*
X152202297Y-104388228D01*
X152138147Y-104543100D01*
X152045015Y-104682481D01*
X151926481Y-104801015D01*
X151787100Y-104894147D01*
X151632228Y-104958297D01*
X151467816Y-104991000D01*
X151300184Y-104991000D01*
X151135772Y-104958297D01*
X150980900Y-104894147D01*
X150841519Y-104801015D01*
X150722985Y-104682481D01*
X150629853Y-104543100D01*
X150565703Y-104388228D01*
X150533000Y-104223816D01*
X150533000Y-104056184D01*
X150565703Y-103891772D01*
X150629853Y-103736900D01*
X150722985Y-103597519D01*
X150841519Y-103478985D01*
X150980900Y-103385853D01*
X151135772Y-103321703D01*
X151300184Y-103289000D01*
X151467816Y-103289000D01*
X151632228Y-103321703D01*
G37*
G36*
X149092228Y-103321703D02*
G01*
X149247100Y-103385853D01*
X149386481Y-103478985D01*
X149505015Y-103597519D01*
X149598147Y-103736900D01*
X149662297Y-103891772D01*
X149695000Y-104056184D01*
X149695000Y-104223816D01*
X149662297Y-104388228D01*
X149598147Y-104543100D01*
X149505015Y-104682481D01*
X149386481Y-104801015D01*
X149247100Y-104894147D01*
X149092228Y-104958297D01*
X148927816Y-104991000D01*
X148760184Y-104991000D01*
X148595772Y-104958297D01*
X148440900Y-104894147D01*
X148301519Y-104801015D01*
X148182985Y-104682481D01*
X148089853Y-104543100D01*
X148025703Y-104388228D01*
X147993000Y-104223816D01*
X147993000Y-104056184D01*
X148025703Y-103891772D01*
X148089853Y-103736900D01*
X148182985Y-103597519D01*
X148301519Y-103478985D01*
X148440900Y-103385853D01*
X148595772Y-103321703D01*
X148760184Y-103289000D01*
X148927816Y-103289000D01*
X149092228Y-103321703D01*
G37*
G36*
X146552228Y-103321703D02*
G01*
X146707100Y-103385853D01*
X146846481Y-103478985D01*
X146965015Y-103597519D01*
X147058147Y-103736900D01*
X147122297Y-103891772D01*
X147155000Y-104056184D01*
X147155000Y-104223816D01*
X147122297Y-104388228D01*
X147058147Y-104543100D01*
X146965015Y-104682481D01*
X146846481Y-104801015D01*
X146707100Y-104894147D01*
X146552228Y-104958297D01*
X146387816Y-104991000D01*
X146220184Y-104991000D01*
X146055772Y-104958297D01*
X145900900Y-104894147D01*
X145761519Y-104801015D01*
X145642985Y-104682481D01*
X145549853Y-104543100D01*
X145485703Y-104388228D01*
X145453000Y-104223816D01*
X145453000Y-104056184D01*
X145485703Y-103891772D01*
X145549853Y-103736900D01*
X145642985Y-103597519D01*
X145761519Y-103478985D01*
X145900900Y-103385853D01*
X146055772Y-103321703D01*
X146220184Y-103289000D01*
X146387816Y-103289000D01*
X146552228Y-103321703D01*
G37*
G36*
X144012228Y-103321703D02*
G01*
X144167100Y-103385853D01*
X144306481Y-103478985D01*
X144425015Y-103597519D01*
X144518147Y-103736900D01*
X144582297Y-103891772D01*
X144615000Y-104056184D01*
X144615000Y-104223816D01*
X144582297Y-104388228D01*
X144518147Y-104543100D01*
X144425015Y-104682481D01*
X144306481Y-104801015D01*
X144167100Y-104894147D01*
X144012228Y-104958297D01*
X143847816Y-104991000D01*
X143680184Y-104991000D01*
X143515772Y-104958297D01*
X143360900Y-104894147D01*
X143221519Y-104801015D01*
X143102985Y-104682481D01*
X143009853Y-104543100D01*
X142945703Y-104388228D01*
X142913000Y-104223816D01*
X142913000Y-104056184D01*
X142945703Y-103891772D01*
X143009853Y-103736900D01*
X143102985Y-103597519D01*
X143221519Y-103478985D01*
X143360900Y-103385853D01*
X143515772Y-103321703D01*
X143680184Y-103289000D01*
X143847816Y-103289000D01*
X144012228Y-103321703D01*
G37*
G36*
X141472228Y-103321703D02*
G01*
X141627100Y-103385853D01*
X141766481Y-103478985D01*
X141885015Y-103597519D01*
X141978147Y-103736900D01*
X142042297Y-103891772D01*
X142075000Y-104056184D01*
X142075000Y-104223816D01*
X142042297Y-104388228D01*
X141978147Y-104543100D01*
X141885015Y-104682481D01*
X141766481Y-104801015D01*
X141627100Y-104894147D01*
X141472228Y-104958297D01*
X141307816Y-104991000D01*
X141140184Y-104991000D01*
X140975772Y-104958297D01*
X140820900Y-104894147D01*
X140681519Y-104801015D01*
X140562985Y-104682481D01*
X140469853Y-104543100D01*
X140405703Y-104388228D01*
X140373000Y-104223816D01*
X140373000Y-104056184D01*
X140405703Y-103891772D01*
X140469853Y-103736900D01*
X140562985Y-103597519D01*
X140681519Y-103478985D01*
X140820900Y-103385853D01*
X140975772Y-103321703D01*
X141140184Y-103289000D01*
X141307816Y-103289000D01*
X141472228Y-103321703D01*
G37*
G36*
X138932228Y-103321703D02*
G01*
X139087100Y-103385853D01*
X139226481Y-103478985D01*
X139345015Y-103597519D01*
X139438147Y-103736900D01*
X139502297Y-103891772D01*
X139535000Y-104056184D01*
X139535000Y-104223816D01*
X139502297Y-104388228D01*
X139438147Y-104543100D01*
X139345015Y-104682481D01*
X139226481Y-104801015D01*
X139087100Y-104894147D01*
X138932228Y-104958297D01*
X138767816Y-104991000D01*
X138600184Y-104991000D01*
X138435772Y-104958297D01*
X138280900Y-104894147D01*
X138141519Y-104801015D01*
X138022985Y-104682481D01*
X137929853Y-104543100D01*
X137865703Y-104388228D01*
X137833000Y-104223816D01*
X137833000Y-104056184D01*
X137865703Y-103891772D01*
X137929853Y-103736900D01*
X138022985Y-103597519D01*
X138141519Y-103478985D01*
X138280900Y-103385853D01*
X138435772Y-103321703D01*
X138600184Y-103289000D01*
X138767816Y-103289000D01*
X138932228Y-103321703D01*
G37*
G36*
X136392228Y-103321703D02*
G01*
X136547100Y-103385853D01*
X136686481Y-103478985D01*
X136805015Y-103597519D01*
X136898147Y-103736900D01*
X136962297Y-103891772D01*
X136995000Y-104056184D01*
X136995000Y-104223816D01*
X136962297Y-104388228D01*
X136898147Y-104543100D01*
X136805015Y-104682481D01*
X136686481Y-104801015D01*
X136547100Y-104894147D01*
X136392228Y-104958297D01*
X136227816Y-104991000D01*
X136060184Y-104991000D01*
X135895772Y-104958297D01*
X135740900Y-104894147D01*
X135601519Y-104801015D01*
X135482985Y-104682481D01*
X135389853Y-104543100D01*
X135325703Y-104388228D01*
X135293000Y-104223816D01*
X135293000Y-104056184D01*
X135325703Y-103891772D01*
X135389853Y-103736900D01*
X135482985Y-103597519D01*
X135601519Y-103478985D01*
X135740900Y-103385853D01*
X135895772Y-103321703D01*
X136060184Y-103289000D01*
X136227816Y-103289000D01*
X136392228Y-103321703D01*
G37*
G36*
X133852228Y-103321703D02*
G01*
X134007100Y-103385853D01*
X134146481Y-103478985D01*
X134265015Y-103597519D01*
X134358147Y-103736900D01*
X134422297Y-103891772D01*
X134455000Y-104056184D01*
X134455000Y-104223816D01*
X134422297Y-104388228D01*
X134358147Y-104543100D01*
X134265015Y-104682481D01*
X134146481Y-104801015D01*
X134007100Y-104894147D01*
X133852228Y-104958297D01*
X133687816Y-104991000D01*
X133520184Y-104991000D01*
X133355772Y-104958297D01*
X133200900Y-104894147D01*
X133061519Y-104801015D01*
X132942985Y-104682481D01*
X132849853Y-104543100D01*
X132785703Y-104388228D01*
X132753000Y-104223816D01*
X132753000Y-104056184D01*
X132785703Y-103891772D01*
X132849853Y-103736900D01*
X132942985Y-103597519D01*
X133061519Y-103478985D01*
X133200900Y-103385853D01*
X133355772Y-103321703D01*
X133520184Y-103289000D01*
X133687816Y-103289000D01*
X133852228Y-103321703D01*
G37*
G36*
X156712228Y-103321703D02*
G01*
X156867100Y-103385853D01*
X157006481Y-103478985D01*
X157125015Y-103597519D01*
X157218147Y-103736900D01*
X157282297Y-103891772D01*
X157315000Y-104056184D01*
X157315000Y-104223816D01*
X157282297Y-104388228D01*
X157218147Y-104543100D01*
X157125015Y-104682481D01*
X157006481Y-104801015D01*
X156867100Y-104894147D01*
X156712228Y-104958297D01*
X156547816Y-104991000D01*
X156380184Y-104991000D01*
X156215772Y-104958297D01*
X156060900Y-104894147D01*
X155921519Y-104801015D01*
X155802985Y-104682481D01*
X155709853Y-104543100D01*
X155645703Y-104388228D01*
X155613000Y-104223816D01*
X155613000Y-104056184D01*
X155645703Y-103891772D01*
X155709853Y-103736900D01*
X155802985Y-103597519D01*
X155921519Y-103478985D01*
X156060900Y-103385853D01*
X156215772Y-103321703D01*
X156380184Y-103289000D01*
X156547816Y-103289000D01*
X156712228Y-103321703D01*
G37*
G36*
X159252228Y-103321703D02*
G01*
X159407100Y-103385853D01*
X159546481Y-103478985D01*
X159665015Y-103597519D01*
X159758147Y-103736900D01*
X159822297Y-103891772D01*
X159855000Y-104056184D01*
X159855000Y-104223816D01*
X159822297Y-104388228D01*
X159758147Y-104543100D01*
X159665015Y-104682481D01*
X159546481Y-104801015D01*
X159407100Y-104894147D01*
X159252228Y-104958297D01*
X159087816Y-104991000D01*
X158920184Y-104991000D01*
X158755772Y-104958297D01*
X158600900Y-104894147D01*
X158461519Y-104801015D01*
X158342985Y-104682481D01*
X158249853Y-104543100D01*
X158185703Y-104388228D01*
X158153000Y-104223816D01*
X158153000Y-104056184D01*
X158185703Y-103891772D01*
X158249853Y-103736900D01*
X158342985Y-103597519D01*
X158461519Y-103478985D01*
X158600900Y-103385853D01*
X158755772Y-103321703D01*
X158920184Y-103289000D01*
X159087816Y-103289000D01*
X159252228Y-103321703D01*
G37*
G36*
X164332228Y-103321703D02*
G01*
X164487100Y-103385853D01*
X164626481Y-103478985D01*
X164745015Y-103597519D01*
X164838147Y-103736900D01*
X164902297Y-103891772D01*
X164935000Y-104056184D01*
X164935000Y-104223816D01*
X164902297Y-104388228D01*
X164838147Y-104543100D01*
X164745015Y-104682481D01*
X164626481Y-104801015D01*
X164487100Y-104894147D01*
X164332228Y-104958297D01*
X164167816Y-104991000D01*
X164000184Y-104991000D01*
X163835772Y-104958297D01*
X163680900Y-104894147D01*
X163541519Y-104801015D01*
X163422985Y-104682481D01*
X163329853Y-104543100D01*
X163265703Y-104388228D01*
X163233000Y-104223816D01*
X163233000Y-104056184D01*
X163265703Y-103891772D01*
X163329853Y-103736900D01*
X163422985Y-103597519D01*
X163541519Y-103478985D01*
X163680900Y-103385853D01*
X163835772Y-103321703D01*
X164000184Y-103289000D01*
X164167816Y-103289000D01*
X164332228Y-103321703D01*
G37*
G36*
X166872228Y-103321703D02*
G01*
X167027100Y-103385853D01*
X167166481Y-103478985D01*
X167285015Y-103597519D01*
X167378147Y-103736900D01*
X167442297Y-103891772D01*
X167475000Y-104056184D01*
X167475000Y-104223816D01*
X167442297Y-104388228D01*
X167378147Y-104543100D01*
X167285015Y-104682481D01*
X167166481Y-104801015D01*
X167027100Y-104894147D01*
X166872228Y-104958297D01*
X166707816Y-104991000D01*
X166540184Y-104991000D01*
X166375772Y-104958297D01*
X166220900Y-104894147D01*
X166081519Y-104801015D01*
X165962985Y-104682481D01*
X165869853Y-104543100D01*
X165805703Y-104388228D01*
X165773000Y-104223816D01*
X165773000Y-104056184D01*
X165805703Y-103891772D01*
X165869853Y-103736900D01*
X165962985Y-103597519D01*
X166081519Y-103478985D01*
X166220900Y-103385853D01*
X166375772Y-103321703D01*
X166540184Y-103289000D01*
X166707816Y-103289000D01*
X166872228Y-103321703D01*
G37*
G36*
X186594341Y-101528508D02*
G01*
X186785610Y-101607734D01*
X186785612Y-101607735D01*
X186906846Y-101688741D01*
X186957750Y-101722754D01*
X187104142Y-101869146D01*
X187219162Y-102041286D01*
X187298388Y-102232555D01*
X187338777Y-102435603D01*
X187338777Y-102642635D01*
X187298388Y-102845683D01*
X187225377Y-103021948D01*
X187219161Y-103036954D01*
X187104142Y-103209092D01*
X186957750Y-103355484D01*
X186785612Y-103470503D01*
X186785611Y-103470504D01*
X186785610Y-103470504D01*
X186594341Y-103549730D01*
X186391293Y-103590119D01*
X186184261Y-103590119D01*
X185981213Y-103549730D01*
X185789944Y-103470504D01*
X185789943Y-103470504D01*
X185789942Y-103470503D01*
X185617804Y-103355484D01*
X185471412Y-103209092D01*
X185356393Y-103036954D01*
X185350177Y-103021948D01*
X185277166Y-102845683D01*
X185236777Y-102642635D01*
X185236777Y-102435603D01*
X185277166Y-102232555D01*
X185356392Y-102041286D01*
X185471412Y-101869146D01*
X185617804Y-101722754D01*
X185668708Y-101688741D01*
X185789942Y-101607735D01*
X185789944Y-101607734D01*
X185981213Y-101528508D01*
X186184261Y-101488119D01*
X186391293Y-101488119D01*
X186594341Y-101528508D01*
G37*
G36*
X199249512Y-100703927D02*
G01*
X199398812Y-100733624D01*
X199562784Y-100801544D01*
X199710354Y-100900147D01*
X199835853Y-101025646D01*
X199934456Y-101173216D01*
X200002376Y-101337188D01*
X200037000Y-101511259D01*
X200037000Y-101688741D01*
X200002376Y-101862812D01*
X199934456Y-102026784D01*
X199835853Y-102174354D01*
X199710354Y-102299853D01*
X199562784Y-102398456D01*
X199398812Y-102466376D01*
X199249512Y-102496073D01*
X199224742Y-102501000D01*
X199047258Y-102501000D01*
X199022488Y-102496073D01*
X198873188Y-102466376D01*
X198709216Y-102398456D01*
X198561646Y-102299853D01*
X198436147Y-102174354D01*
X198337544Y-102026784D01*
X198269624Y-101862812D01*
X198235000Y-101688741D01*
X198235000Y-101511259D01*
X198269624Y-101337188D01*
X198337544Y-101173216D01*
X198436147Y-101025646D01*
X198561646Y-100900147D01*
X198709216Y-100801544D01*
X198873188Y-100733624D01*
X199022488Y-100703927D01*
X199047258Y-100699000D01*
X199224742Y-100699000D01*
X199249512Y-100703927D01*
G37*
G36*
X140569928Y-99981764D02*
G01*
X140591009Y-99988160D01*
X140610445Y-99998548D01*
X140627476Y-100012524D01*
X140641452Y-100029555D01*
X140651840Y-100048991D01*
X140658236Y-100070072D01*
X140661000Y-100098140D01*
X140661000Y-100561860D01*
X140658236Y-100589928D01*
X140651840Y-100611009D01*
X140641452Y-100630445D01*
X140627476Y-100647476D01*
X140610445Y-100661452D01*
X140591009Y-100671840D01*
X140569928Y-100678236D01*
X140541860Y-100681000D01*
X138728140Y-100681000D01*
X138700072Y-100678236D01*
X138678991Y-100671840D01*
X138659555Y-100661452D01*
X138642524Y-100647476D01*
X138628548Y-100630445D01*
X138618160Y-100611009D01*
X138611764Y-100589928D01*
X138609000Y-100561860D01*
X138609000Y-100098140D01*
X138611764Y-100070072D01*
X138618160Y-100048991D01*
X138628548Y-100029555D01*
X138642524Y-100012524D01*
X138659555Y-99998548D01*
X138678991Y-99988160D01*
X138700072Y-99981764D01*
X138728140Y-99979000D01*
X140541860Y-99979000D01*
X140569928Y-99981764D01*
G37*
G36*
X135619928Y-99981764D02*
G01*
X135641009Y-99988160D01*
X135660445Y-99998548D01*
X135677476Y-100012524D01*
X135691452Y-100029555D01*
X135701840Y-100048991D01*
X135708236Y-100070072D01*
X135711000Y-100098140D01*
X135711000Y-100561860D01*
X135708236Y-100589928D01*
X135701840Y-100611009D01*
X135691452Y-100630445D01*
X135677476Y-100647476D01*
X135660445Y-100661452D01*
X135641009Y-100671840D01*
X135619928Y-100678236D01*
X135591860Y-100681000D01*
X133778140Y-100681000D01*
X133750072Y-100678236D01*
X133728991Y-100671840D01*
X133709555Y-100661452D01*
X133692524Y-100647476D01*
X133678548Y-100630445D01*
X133668160Y-100611009D01*
X133661764Y-100589928D01*
X133659000Y-100561860D01*
X133659000Y-100098140D01*
X133661764Y-100070072D01*
X133668160Y-100048991D01*
X133678548Y-100029555D01*
X133692524Y-100012524D01*
X133709555Y-99998548D01*
X133728991Y-99988160D01*
X133750072Y-99981764D01*
X133778140Y-99979000D01*
X135591860Y-99979000D01*
X135619928Y-99981764D01*
G37*
G36*
X183412360Y-98346528D02*
G01*
X183603629Y-98425754D01*
X183603631Y-98425755D01*
X183775769Y-98540774D01*
X183922161Y-98687166D01*
X183983517Y-98778991D01*
X184037181Y-98859306D01*
X184116407Y-99050575D01*
X184156796Y-99253623D01*
X184156796Y-99460655D01*
X184116407Y-99663703D01*
X184037181Y-99854972D01*
X184037180Y-99854974D01*
X183922161Y-100027112D01*
X183775769Y-100173504D01*
X183603631Y-100288523D01*
X183603630Y-100288524D01*
X183603629Y-100288524D01*
X183412360Y-100367750D01*
X183209312Y-100408139D01*
X183002280Y-100408139D01*
X182799232Y-100367750D01*
X182607963Y-100288524D01*
X182607962Y-100288524D01*
X182607961Y-100288523D01*
X182435823Y-100173504D01*
X182289431Y-100027112D01*
X182174412Y-99854974D01*
X182174411Y-99854972D01*
X182095185Y-99663703D01*
X182054796Y-99460655D01*
X182054796Y-99253623D01*
X182095185Y-99050575D01*
X182174411Y-98859306D01*
X182228076Y-98778991D01*
X182289431Y-98687166D01*
X182435823Y-98540774D01*
X182607961Y-98425755D01*
X182607963Y-98425754D01*
X182799232Y-98346528D01*
X183002280Y-98306139D01*
X183209312Y-98306139D01*
X183412360Y-98346528D01*
G37*
G36*
X200037000Y-99961000D02*
G01*
X198235000Y-99961000D01*
X198235000Y-98159000D01*
X200037000Y-98159000D01*
X200037000Y-99961000D01*
G37*
G36*
X140569928Y-98711764D02*
G01*
X140591009Y-98718160D01*
X140610445Y-98728548D01*
X140627476Y-98742524D01*
X140641452Y-98759555D01*
X140651840Y-98778991D01*
X140658236Y-98800072D01*
X140661000Y-98828140D01*
X140661000Y-99291860D01*
X140658236Y-99319928D01*
X140651840Y-99341009D01*
X140641452Y-99360445D01*
X140627476Y-99377476D01*
X140610445Y-99391452D01*
X140591009Y-99401840D01*
X140569928Y-99408236D01*
X140541860Y-99411000D01*
X138728140Y-99411000D01*
X138700072Y-99408236D01*
X138678991Y-99401840D01*
X138659555Y-99391452D01*
X138642524Y-99377476D01*
X138628548Y-99360445D01*
X138618160Y-99341009D01*
X138611764Y-99319928D01*
X138609000Y-99291860D01*
X138609000Y-98828140D01*
X138611764Y-98800072D01*
X138618160Y-98778991D01*
X138628548Y-98759555D01*
X138642524Y-98742524D01*
X138659555Y-98728548D01*
X138678991Y-98718160D01*
X138700072Y-98711764D01*
X138728140Y-98709000D01*
X140541860Y-98709000D01*
X140569928Y-98711764D01*
G37*
G36*
X135619928Y-98711764D02*
G01*
X135641009Y-98718160D01*
X135660445Y-98728548D01*
X135677476Y-98742524D01*
X135691452Y-98759555D01*
X135701840Y-98778991D01*
X135708236Y-98800072D01*
X135711000Y-98828140D01*
X135711000Y-99291860D01*
X135708236Y-99319928D01*
X135701840Y-99341009D01*
X135691452Y-99360445D01*
X135677476Y-99377476D01*
X135660445Y-99391452D01*
X135641009Y-99401840D01*
X135619928Y-99408236D01*
X135591860Y-99411000D01*
X133778140Y-99411000D01*
X133750072Y-99408236D01*
X133728991Y-99401840D01*
X133709555Y-99391452D01*
X133692524Y-99377476D01*
X133678548Y-99360445D01*
X133668160Y-99341009D01*
X133661764Y-99319928D01*
X133659000Y-99291860D01*
X133659000Y-98828140D01*
X133661764Y-98800072D01*
X133668160Y-98778991D01*
X133678548Y-98759555D01*
X133692524Y-98742524D01*
X133709555Y-98728548D01*
X133728991Y-98718160D01*
X133750072Y-98711764D01*
X133778140Y-98709000D01*
X135591860Y-98709000D01*
X135619928Y-98711764D01*
G37*
G36*
X135619928Y-97441764D02*
G01*
X135641009Y-97448160D01*
X135660445Y-97458548D01*
X135677476Y-97472524D01*
X135691452Y-97489555D01*
X135701840Y-97508991D01*
X135708236Y-97530072D01*
X135711000Y-97558140D01*
X135711000Y-98021860D01*
X135708236Y-98049928D01*
X135701840Y-98071009D01*
X135691452Y-98090445D01*
X135677476Y-98107476D01*
X135660445Y-98121452D01*
X135641009Y-98131840D01*
X135619928Y-98138236D01*
X135591860Y-98141000D01*
X133778140Y-98141000D01*
X133750072Y-98138236D01*
X133728991Y-98131840D01*
X133709555Y-98121452D01*
X133692524Y-98107476D01*
X133678548Y-98090445D01*
X133668160Y-98071009D01*
X133661764Y-98049928D01*
X133659000Y-98021860D01*
X133659000Y-97558140D01*
X133661764Y-97530072D01*
X133668160Y-97508991D01*
X133678548Y-97489555D01*
X133692524Y-97472524D01*
X133709555Y-97458548D01*
X133728991Y-97448160D01*
X133750072Y-97441764D01*
X133778140Y-97439000D01*
X135591860Y-97439000D01*
X135619928Y-97441764D01*
G37*
G36*
X140569928Y-97441764D02*
G01*
X140591009Y-97448160D01*
X140610445Y-97458548D01*
X140627476Y-97472524D01*
X140641452Y-97489555D01*
X140651840Y-97508991D01*
X140658236Y-97530072D01*
X140661000Y-97558140D01*
X140661000Y-98021860D01*
X140658236Y-98049928D01*
X140651840Y-98071009D01*
X140641452Y-98090445D01*
X140627476Y-98107476D01*
X140610445Y-98121452D01*
X140591009Y-98131840D01*
X140569928Y-98138236D01*
X140541860Y-98141000D01*
X138728140Y-98141000D01*
X138700072Y-98138236D01*
X138678991Y-98131840D01*
X138659555Y-98121452D01*
X138642524Y-98107476D01*
X138628548Y-98090445D01*
X138618160Y-98071009D01*
X138611764Y-98049928D01*
X138609000Y-98021860D01*
X138609000Y-97558140D01*
X138611764Y-97530072D01*
X138618160Y-97508991D01*
X138628548Y-97489555D01*
X138642524Y-97472524D01*
X138659555Y-97458548D01*
X138678991Y-97448160D01*
X138700072Y-97441764D01*
X138728140Y-97439000D01*
X140541860Y-97439000D01*
X140569928Y-97441764D01*
G37*
G36*
X135619928Y-96171764D02*
G01*
X135641009Y-96178160D01*
X135660445Y-96188548D01*
X135677476Y-96202524D01*
X135691452Y-96219555D01*
X135701840Y-96238991D01*
X135708236Y-96260072D01*
X135711000Y-96288140D01*
X135711000Y-96751860D01*
X135708236Y-96779928D01*
X135701840Y-96801009D01*
X135691452Y-96820445D01*
X135677476Y-96837476D01*
X135660445Y-96851452D01*
X135641009Y-96861840D01*
X135619928Y-96868236D01*
X135591860Y-96871000D01*
X133778140Y-96871000D01*
X133750072Y-96868236D01*
X133728991Y-96861840D01*
X133709555Y-96851452D01*
X133692524Y-96837476D01*
X133678548Y-96820445D01*
X133668160Y-96801009D01*
X133661764Y-96779928D01*
X133659000Y-96751860D01*
X133659000Y-96288140D01*
X133661764Y-96260072D01*
X133668160Y-96238991D01*
X133678548Y-96219555D01*
X133692524Y-96202524D01*
X133709555Y-96188548D01*
X133728991Y-96178160D01*
X133750072Y-96171764D01*
X133778140Y-96169000D01*
X135591860Y-96169000D01*
X135619928Y-96171764D01*
G37*
G36*
X140569928Y-96171764D02*
G01*
X140591009Y-96178160D01*
X140610445Y-96188548D01*
X140627476Y-96202524D01*
X140641452Y-96219555D01*
X140651840Y-96238991D01*
X140658236Y-96260072D01*
X140661000Y-96288140D01*
X140661000Y-96751860D01*
X140658236Y-96779928D01*
X140651840Y-96801009D01*
X140641452Y-96820445D01*
X140627476Y-96837476D01*
X140610445Y-96851452D01*
X140591009Y-96861840D01*
X140569928Y-96868236D01*
X140541860Y-96871000D01*
X138728140Y-96871000D01*
X138700072Y-96868236D01*
X138678991Y-96861840D01*
X138659555Y-96851452D01*
X138642524Y-96837476D01*
X138628548Y-96820445D01*
X138618160Y-96801009D01*
X138611764Y-96779928D01*
X138609000Y-96751860D01*
X138609000Y-96288140D01*
X138611764Y-96260072D01*
X138618160Y-96238991D01*
X138628548Y-96219555D01*
X138642524Y-96202524D01*
X138659555Y-96188548D01*
X138678991Y-96178160D01*
X138700072Y-96171764D01*
X138728140Y-96169000D01*
X140541860Y-96169000D01*
X140569928Y-96171764D01*
G37*
G36*
X140569928Y-94901764D02*
G01*
X140591009Y-94908160D01*
X140610445Y-94918548D01*
X140627476Y-94932524D01*
X140641452Y-94949555D01*
X140651840Y-94968991D01*
X140658236Y-94990072D01*
X140661000Y-95018140D01*
X140661000Y-95481860D01*
X140658236Y-95509928D01*
X140651840Y-95531009D01*
X140641452Y-95550445D01*
X140627476Y-95567476D01*
X140610445Y-95581452D01*
X140591009Y-95591840D01*
X140569928Y-95598236D01*
X140541860Y-95601000D01*
X138728140Y-95601000D01*
X138700072Y-95598236D01*
X138678991Y-95591840D01*
X138659555Y-95581452D01*
X138642524Y-95567476D01*
X138628548Y-95550445D01*
X138618160Y-95531009D01*
X138611764Y-95509928D01*
X138609000Y-95481860D01*
X138609000Y-95018140D01*
X138611764Y-94990072D01*
X138618160Y-94968991D01*
X138628548Y-94949555D01*
X138642524Y-94932524D01*
X138659555Y-94918548D01*
X138678991Y-94908160D01*
X138700072Y-94901764D01*
X138728140Y-94899000D01*
X140541860Y-94899000D01*
X140569928Y-94901764D01*
G37*
G36*
X135619928Y-94901764D02*
G01*
X135641009Y-94908160D01*
X135660445Y-94918548D01*
X135677476Y-94932524D01*
X135691452Y-94949555D01*
X135701840Y-94968991D01*
X135708236Y-94990072D01*
X135711000Y-95018140D01*
X135711000Y-95481860D01*
X135708236Y-95509928D01*
X135701840Y-95531009D01*
X135691452Y-95550445D01*
X135677476Y-95567476D01*
X135660445Y-95581452D01*
X135641009Y-95591840D01*
X135619928Y-95598236D01*
X135591860Y-95601000D01*
X133778140Y-95601000D01*
X133750072Y-95598236D01*
X133728991Y-95591840D01*
X133709555Y-95581452D01*
X133692524Y-95567476D01*
X133678548Y-95550445D01*
X133668160Y-95531009D01*
X133661764Y-95509928D01*
X133659000Y-95481860D01*
X133659000Y-95018140D01*
X133661764Y-94990072D01*
X133668160Y-94968991D01*
X133678548Y-94949555D01*
X133692524Y-94932524D01*
X133709555Y-94918548D01*
X133728991Y-94908160D01*
X133750072Y-94901764D01*
X133778140Y-94899000D01*
X135591860Y-94899000D01*
X135619928Y-94901764D01*
G37*
G36*
X199249512Y-93083927D02*
G01*
X199398812Y-93113624D01*
X199562784Y-93181544D01*
X199710354Y-93280147D01*
X199835853Y-93405646D01*
X199934456Y-93553216D01*
X200002376Y-93717188D01*
X200037000Y-93891259D01*
X200037000Y-94068741D01*
X200002376Y-94242812D01*
X199934456Y-94406784D01*
X199835853Y-94554354D01*
X199710354Y-94679853D01*
X199562784Y-94778456D01*
X199398812Y-94846376D01*
X199249512Y-94876073D01*
X199224742Y-94881000D01*
X199047258Y-94881000D01*
X199022488Y-94876073D01*
X198873188Y-94846376D01*
X198709216Y-94778456D01*
X198561646Y-94679853D01*
X198436147Y-94554354D01*
X198337544Y-94406784D01*
X198269624Y-94242812D01*
X198235000Y-94068741D01*
X198235000Y-93891259D01*
X198269624Y-93717188D01*
X198337544Y-93553216D01*
X198436147Y-93405646D01*
X198561646Y-93280147D01*
X198709216Y-93181544D01*
X198873188Y-93113624D01*
X199022488Y-93083927D01*
X199047258Y-93079000D01*
X199224742Y-93079000D01*
X199249512Y-93083927D01*
G37*
G36*
X140569928Y-93631764D02*
G01*
X140591009Y-93638160D01*
X140610445Y-93648548D01*
X140627476Y-93662524D01*
X140641452Y-93679555D01*
X140651840Y-93698991D01*
X140658236Y-93720072D01*
X140661000Y-93748140D01*
X140661000Y-94211860D01*
X140658236Y-94239928D01*
X140651840Y-94261009D01*
X140641452Y-94280445D01*
X140627476Y-94297476D01*
X140610445Y-94311452D01*
X140591009Y-94321840D01*
X140569928Y-94328236D01*
X140541860Y-94331000D01*
X138728140Y-94331000D01*
X138700072Y-94328236D01*
X138678991Y-94321840D01*
X138659555Y-94311452D01*
X138642524Y-94297476D01*
X138628548Y-94280445D01*
X138618160Y-94261009D01*
X138611764Y-94239928D01*
X138609000Y-94211860D01*
X138609000Y-93748140D01*
X138611764Y-93720072D01*
X138618160Y-93698991D01*
X138628548Y-93679555D01*
X138642524Y-93662524D01*
X138659555Y-93648548D01*
X138678991Y-93638160D01*
X138700072Y-93631764D01*
X138728140Y-93629000D01*
X140541860Y-93629000D01*
X140569928Y-93631764D01*
G37*
G36*
X135619928Y-93631764D02*
G01*
X135641009Y-93638160D01*
X135660445Y-93648548D01*
X135677476Y-93662524D01*
X135691452Y-93679555D01*
X135701840Y-93698991D01*
X135708236Y-93720072D01*
X135711000Y-93748140D01*
X135711000Y-94211860D01*
X135708236Y-94239928D01*
X135701840Y-94261009D01*
X135691452Y-94280445D01*
X135677476Y-94297476D01*
X135660445Y-94311452D01*
X135641009Y-94321840D01*
X135619928Y-94328236D01*
X135591860Y-94331000D01*
X133778140Y-94331000D01*
X133750072Y-94328236D01*
X133728991Y-94321840D01*
X133709555Y-94311452D01*
X133692524Y-94297476D01*
X133678548Y-94280445D01*
X133668160Y-94261009D01*
X133661764Y-94239928D01*
X133659000Y-94211860D01*
X133659000Y-93748140D01*
X133661764Y-93720072D01*
X133668160Y-93698991D01*
X133678548Y-93679555D01*
X133692524Y-93662524D01*
X133709555Y-93648548D01*
X133728991Y-93638160D01*
X133750072Y-93631764D01*
X133778140Y-93629000D01*
X135591860Y-93629000D01*
X135619928Y-93631764D01*
G37*
G36*
X140569928Y-92361764D02*
G01*
X140591009Y-92368160D01*
X140610445Y-92378548D01*
X140627476Y-92392524D01*
X140641452Y-92409555D01*
X140651840Y-92428991D01*
X140658236Y-92450072D01*
X140661000Y-92478140D01*
X140661000Y-92941860D01*
X140658236Y-92969928D01*
X140651840Y-92991009D01*
X140641452Y-93010445D01*
X140627476Y-93027476D01*
X140610445Y-93041452D01*
X140591009Y-93051840D01*
X140569928Y-93058236D01*
X140541860Y-93061000D01*
X138728140Y-93061000D01*
X138700072Y-93058236D01*
X138678991Y-93051840D01*
X138659555Y-93041452D01*
X138642524Y-93027476D01*
X138628548Y-93010445D01*
X138618160Y-92991009D01*
X138611764Y-92969928D01*
X138609000Y-92941860D01*
X138609000Y-92478140D01*
X138611764Y-92450072D01*
X138618160Y-92428991D01*
X138628548Y-92409555D01*
X138642524Y-92392524D01*
X138659555Y-92378548D01*
X138678991Y-92368160D01*
X138700072Y-92361764D01*
X138728140Y-92359000D01*
X140541860Y-92359000D01*
X140569928Y-92361764D01*
G37*
G36*
X135619928Y-92361764D02*
G01*
X135641009Y-92368160D01*
X135660445Y-92378548D01*
X135677476Y-92392524D01*
X135691452Y-92409555D01*
X135701840Y-92428991D01*
X135708236Y-92450072D01*
X135711000Y-92478140D01*
X135711000Y-92941860D01*
X135708236Y-92969928D01*
X135701840Y-92991009D01*
X135691452Y-93010445D01*
X135677476Y-93027476D01*
X135660445Y-93041452D01*
X135641009Y-93051840D01*
X135619928Y-93058236D01*
X135591860Y-93061000D01*
X133778140Y-93061000D01*
X133750072Y-93058236D01*
X133728991Y-93051840D01*
X133709555Y-93041452D01*
X133692524Y-93027476D01*
X133678548Y-93010445D01*
X133668160Y-92991009D01*
X133661764Y-92969928D01*
X133659000Y-92941860D01*
X133659000Y-92478140D01*
X133661764Y-92450072D01*
X133668160Y-92428991D01*
X133678548Y-92409555D01*
X133692524Y-92392524D01*
X133709555Y-92378548D01*
X133728991Y-92368160D01*
X133750072Y-92361764D01*
X133778140Y-92359000D01*
X135591860Y-92359000D01*
X135619928Y-92361764D01*
G37*
G36*
X199249512Y-90543927D02*
G01*
X199398812Y-90573624D01*
X199562784Y-90641544D01*
X199710354Y-90740147D01*
X199835853Y-90865646D01*
X199934456Y-91013216D01*
X200002376Y-91177188D01*
X200037000Y-91351259D01*
X200037000Y-91528741D01*
X200002376Y-91702812D01*
X199934456Y-91866784D01*
X199835853Y-92014354D01*
X199710354Y-92139853D01*
X199562784Y-92238456D01*
X199398812Y-92306376D01*
X199249512Y-92336073D01*
X199224742Y-92341000D01*
X199047258Y-92341000D01*
X199022488Y-92336073D01*
X198873188Y-92306376D01*
X198709216Y-92238456D01*
X198561646Y-92139853D01*
X198436147Y-92014354D01*
X198337544Y-91866784D01*
X198269624Y-91702812D01*
X198235000Y-91528741D01*
X198235000Y-91351259D01*
X198269624Y-91177188D01*
X198337544Y-91013216D01*
X198436147Y-90865646D01*
X198561646Y-90740147D01*
X198709216Y-90641544D01*
X198873188Y-90573624D01*
X199022488Y-90543927D01*
X199047258Y-90539000D01*
X199224742Y-90539000D01*
X199249512Y-90543927D01*
G37*
G36*
X199249512Y-88003927D02*
G01*
X199398812Y-88033624D01*
X199562784Y-88101544D01*
X199710354Y-88200147D01*
X199835853Y-88325646D01*
X199934456Y-88473216D01*
X200002376Y-88637188D01*
X200037000Y-88811259D01*
X200037000Y-88988741D01*
X200002376Y-89162812D01*
X199934456Y-89326784D01*
X199835853Y-89474354D01*
X199710354Y-89599853D01*
X199562784Y-89698456D01*
X199398812Y-89766376D01*
X199249512Y-89796073D01*
X199224742Y-89801000D01*
X199047258Y-89801000D01*
X199022488Y-89796073D01*
X198873188Y-89766376D01*
X198709216Y-89698456D01*
X198561646Y-89599853D01*
X198436147Y-89474354D01*
X198337544Y-89326784D01*
X198269624Y-89162812D01*
X198235000Y-88988741D01*
X198235000Y-88811259D01*
X198269624Y-88637188D01*
X198337544Y-88473216D01*
X198436147Y-88325646D01*
X198561646Y-88200147D01*
X198709216Y-88101544D01*
X198873188Y-88033624D01*
X199022488Y-88003927D01*
X199047258Y-87999000D01*
X199224742Y-87999000D01*
X199249512Y-88003927D01*
G37*
G36*
X159252228Y-88081703D02*
G01*
X159407100Y-88145853D01*
X159546481Y-88238985D01*
X159665015Y-88357519D01*
X159758147Y-88496900D01*
X159822297Y-88651772D01*
X159855000Y-88816184D01*
X159855000Y-88983816D01*
X159822297Y-89148228D01*
X159758147Y-89303100D01*
X159665015Y-89442481D01*
X159546481Y-89561015D01*
X159407100Y-89654147D01*
X159252228Y-89718297D01*
X159087816Y-89751000D01*
X158920184Y-89751000D01*
X158755772Y-89718297D01*
X158600900Y-89654147D01*
X158461519Y-89561015D01*
X158342985Y-89442481D01*
X158249853Y-89303100D01*
X158185703Y-89148228D01*
X158153000Y-88983816D01*
X158153000Y-88816184D01*
X158185703Y-88651772D01*
X158249853Y-88496900D01*
X158342985Y-88357519D01*
X158461519Y-88238985D01*
X158600900Y-88145853D01*
X158755772Y-88081703D01*
X158920184Y-88049000D01*
X159087816Y-88049000D01*
X159252228Y-88081703D01*
G37*
G36*
X164332228Y-88081703D02*
G01*
X164487100Y-88145853D01*
X164626481Y-88238985D01*
X164745015Y-88357519D01*
X164838147Y-88496900D01*
X164902297Y-88651772D01*
X164935000Y-88816184D01*
X164935000Y-88983816D01*
X164902297Y-89148228D01*
X164838147Y-89303100D01*
X164745015Y-89442481D01*
X164626481Y-89561015D01*
X164487100Y-89654147D01*
X164332228Y-89718297D01*
X164167816Y-89751000D01*
X164000184Y-89751000D01*
X163835772Y-89718297D01*
X163680900Y-89654147D01*
X163541519Y-89561015D01*
X163422985Y-89442481D01*
X163329853Y-89303100D01*
X163265703Y-89148228D01*
X163233000Y-88983816D01*
X163233000Y-88816184D01*
X163265703Y-88651772D01*
X163329853Y-88496900D01*
X163422985Y-88357519D01*
X163541519Y-88238985D01*
X163680900Y-88145853D01*
X163835772Y-88081703D01*
X164000184Y-88049000D01*
X164167816Y-88049000D01*
X164332228Y-88081703D01*
G37*
G36*
X156712228Y-88081703D02*
G01*
X156867100Y-88145853D01*
X157006481Y-88238985D01*
X157125015Y-88357519D01*
X157218147Y-88496900D01*
X157282297Y-88651772D01*
X157315000Y-88816184D01*
X157315000Y-88983816D01*
X157282297Y-89148228D01*
X157218147Y-89303100D01*
X157125015Y-89442481D01*
X157006481Y-89561015D01*
X156867100Y-89654147D01*
X156712228Y-89718297D01*
X156547816Y-89751000D01*
X156380184Y-89751000D01*
X156215772Y-89718297D01*
X156060900Y-89654147D01*
X155921519Y-89561015D01*
X155802985Y-89442481D01*
X155709853Y-89303100D01*
X155645703Y-89148228D01*
X155613000Y-88983816D01*
X155613000Y-88816184D01*
X155645703Y-88651772D01*
X155709853Y-88496900D01*
X155802985Y-88357519D01*
X155921519Y-88238985D01*
X156060900Y-88145853D01*
X156215772Y-88081703D01*
X156380184Y-88049000D01*
X156547816Y-88049000D01*
X156712228Y-88081703D01*
G37*
G36*
X133852228Y-88081703D02*
G01*
X134007100Y-88145853D01*
X134146481Y-88238985D01*
X134265015Y-88357519D01*
X134358147Y-88496900D01*
X134422297Y-88651772D01*
X134455000Y-88816184D01*
X134455000Y-88983816D01*
X134422297Y-89148228D01*
X134358147Y-89303100D01*
X134265015Y-89442481D01*
X134146481Y-89561015D01*
X134007100Y-89654147D01*
X133852228Y-89718297D01*
X133687816Y-89751000D01*
X133520184Y-89751000D01*
X133355772Y-89718297D01*
X133200900Y-89654147D01*
X133061519Y-89561015D01*
X132942985Y-89442481D01*
X132849853Y-89303100D01*
X132785703Y-89148228D01*
X132753000Y-88983816D01*
X132753000Y-88816184D01*
X132785703Y-88651772D01*
X132849853Y-88496900D01*
X132942985Y-88357519D01*
X133061519Y-88238985D01*
X133200900Y-88145853D01*
X133355772Y-88081703D01*
X133520184Y-88049000D01*
X133687816Y-88049000D01*
X133852228Y-88081703D01*
G37*
G36*
X136392228Y-88081703D02*
G01*
X136547100Y-88145853D01*
X136686481Y-88238985D01*
X136805015Y-88357519D01*
X136898147Y-88496900D01*
X136962297Y-88651772D01*
X136995000Y-88816184D01*
X136995000Y-88983816D01*
X136962297Y-89148228D01*
X136898147Y-89303100D01*
X136805015Y-89442481D01*
X136686481Y-89561015D01*
X136547100Y-89654147D01*
X136392228Y-89718297D01*
X136227816Y-89751000D01*
X136060184Y-89751000D01*
X135895772Y-89718297D01*
X135740900Y-89654147D01*
X135601519Y-89561015D01*
X135482985Y-89442481D01*
X135389853Y-89303100D01*
X135325703Y-89148228D01*
X135293000Y-88983816D01*
X135293000Y-88816184D01*
X135325703Y-88651772D01*
X135389853Y-88496900D01*
X135482985Y-88357519D01*
X135601519Y-88238985D01*
X135740900Y-88145853D01*
X135895772Y-88081703D01*
X136060184Y-88049000D01*
X136227816Y-88049000D01*
X136392228Y-88081703D01*
G37*
G36*
X138932228Y-88081703D02*
G01*
X139087100Y-88145853D01*
X139226481Y-88238985D01*
X139345015Y-88357519D01*
X139438147Y-88496900D01*
X139502297Y-88651772D01*
X139535000Y-88816184D01*
X139535000Y-88983816D01*
X139502297Y-89148228D01*
X139438147Y-89303100D01*
X139345015Y-89442481D01*
X139226481Y-89561015D01*
X139087100Y-89654147D01*
X138932228Y-89718297D01*
X138767816Y-89751000D01*
X138600184Y-89751000D01*
X138435772Y-89718297D01*
X138280900Y-89654147D01*
X138141519Y-89561015D01*
X138022985Y-89442481D01*
X137929853Y-89303100D01*
X137865703Y-89148228D01*
X137833000Y-88983816D01*
X137833000Y-88816184D01*
X137865703Y-88651772D01*
X137929853Y-88496900D01*
X138022985Y-88357519D01*
X138141519Y-88238985D01*
X138280900Y-88145853D01*
X138435772Y-88081703D01*
X138600184Y-88049000D01*
X138767816Y-88049000D01*
X138932228Y-88081703D01*
G37*
G36*
X141472228Y-88081703D02*
G01*
X141627100Y-88145853D01*
X141766481Y-88238985D01*
X141885015Y-88357519D01*
X141978147Y-88496900D01*
X142042297Y-88651772D01*
X142075000Y-88816184D01*
X142075000Y-88983816D01*
X142042297Y-89148228D01*
X141978147Y-89303100D01*
X141885015Y-89442481D01*
X141766481Y-89561015D01*
X141627100Y-89654147D01*
X141472228Y-89718297D01*
X141307816Y-89751000D01*
X141140184Y-89751000D01*
X140975772Y-89718297D01*
X140820900Y-89654147D01*
X140681519Y-89561015D01*
X140562985Y-89442481D01*
X140469853Y-89303100D01*
X140405703Y-89148228D01*
X140373000Y-88983816D01*
X140373000Y-88816184D01*
X140405703Y-88651772D01*
X140469853Y-88496900D01*
X140562985Y-88357519D01*
X140681519Y-88238985D01*
X140820900Y-88145853D01*
X140975772Y-88081703D01*
X141140184Y-88049000D01*
X141307816Y-88049000D01*
X141472228Y-88081703D01*
G37*
G36*
X144012228Y-88081703D02*
G01*
X144167100Y-88145853D01*
X144306481Y-88238985D01*
X144425015Y-88357519D01*
X144518147Y-88496900D01*
X144582297Y-88651772D01*
X144615000Y-88816184D01*
X144615000Y-88983816D01*
X144582297Y-89148228D01*
X144518147Y-89303100D01*
X144425015Y-89442481D01*
X144306481Y-89561015D01*
X144167100Y-89654147D01*
X144012228Y-89718297D01*
X143847816Y-89751000D01*
X143680184Y-89751000D01*
X143515772Y-89718297D01*
X143360900Y-89654147D01*
X143221519Y-89561015D01*
X143102985Y-89442481D01*
X143009853Y-89303100D01*
X142945703Y-89148228D01*
X142913000Y-88983816D01*
X142913000Y-88816184D01*
X142945703Y-88651772D01*
X143009853Y-88496900D01*
X143102985Y-88357519D01*
X143221519Y-88238985D01*
X143360900Y-88145853D01*
X143515772Y-88081703D01*
X143680184Y-88049000D01*
X143847816Y-88049000D01*
X144012228Y-88081703D01*
G37*
G36*
X146552228Y-88081703D02*
G01*
X146707100Y-88145853D01*
X146846481Y-88238985D01*
X146965015Y-88357519D01*
X147058147Y-88496900D01*
X147122297Y-88651772D01*
X147155000Y-88816184D01*
X147155000Y-88983816D01*
X147122297Y-89148228D01*
X147058147Y-89303100D01*
X146965015Y-89442481D01*
X146846481Y-89561015D01*
X146707100Y-89654147D01*
X146552228Y-89718297D01*
X146387816Y-89751000D01*
X146220184Y-89751000D01*
X146055772Y-89718297D01*
X145900900Y-89654147D01*
X145761519Y-89561015D01*
X145642985Y-89442481D01*
X145549853Y-89303100D01*
X145485703Y-89148228D01*
X145453000Y-88983816D01*
X145453000Y-88816184D01*
X145485703Y-88651772D01*
X145549853Y-88496900D01*
X145642985Y-88357519D01*
X145761519Y-88238985D01*
X145900900Y-88145853D01*
X146055772Y-88081703D01*
X146220184Y-88049000D01*
X146387816Y-88049000D01*
X146552228Y-88081703D01*
G37*
G36*
X149092228Y-88081703D02*
G01*
X149247100Y-88145853D01*
X149386481Y-88238985D01*
X149505015Y-88357519D01*
X149598147Y-88496900D01*
X149662297Y-88651772D01*
X149695000Y-88816184D01*
X149695000Y-88983816D01*
X149662297Y-89148228D01*
X149598147Y-89303100D01*
X149505015Y-89442481D01*
X149386481Y-89561015D01*
X149247100Y-89654147D01*
X149092228Y-89718297D01*
X148927816Y-89751000D01*
X148760184Y-89751000D01*
X148595772Y-89718297D01*
X148440900Y-89654147D01*
X148301519Y-89561015D01*
X148182985Y-89442481D01*
X148089853Y-89303100D01*
X148025703Y-89148228D01*
X147993000Y-88983816D01*
X147993000Y-88816184D01*
X148025703Y-88651772D01*
X148089853Y-88496900D01*
X148182985Y-88357519D01*
X148301519Y-88238985D01*
X148440900Y-88145853D01*
X148595772Y-88081703D01*
X148760184Y-88049000D01*
X148927816Y-88049000D01*
X149092228Y-88081703D01*
G37*
G36*
X167475000Y-89751000D02*
G01*
X165773000Y-89751000D01*
X165773000Y-88049000D01*
X167475000Y-88049000D01*
X167475000Y-89751000D01*
G37*
G36*
X131312228Y-88081703D02*
G01*
X131467100Y-88145853D01*
X131606481Y-88238985D01*
X131725015Y-88357519D01*
X131818147Y-88496900D01*
X131882297Y-88651772D01*
X131915000Y-88816184D01*
X131915000Y-88983816D01*
X131882297Y-89148228D01*
X131818147Y-89303100D01*
X131725015Y-89442481D01*
X131606481Y-89561015D01*
X131467100Y-89654147D01*
X131312228Y-89718297D01*
X131147816Y-89751000D01*
X130980184Y-89751000D01*
X130815772Y-89718297D01*
X130660900Y-89654147D01*
X130521519Y-89561015D01*
X130402985Y-89442481D01*
X130309853Y-89303100D01*
X130245703Y-89148228D01*
X130213000Y-88983816D01*
X130213000Y-88816184D01*
X130245703Y-88651772D01*
X130309853Y-88496900D01*
X130402985Y-88357519D01*
X130521519Y-88238985D01*
X130660900Y-88145853D01*
X130815772Y-88081703D01*
X130980184Y-88049000D01*
X131147816Y-88049000D01*
X131312228Y-88081703D01*
G37*
G36*
X154172228Y-88081703D02*
G01*
X154327100Y-88145853D01*
X154466481Y-88238985D01*
X154585015Y-88357519D01*
X154678147Y-88496900D01*
X154742297Y-88651772D01*
X154775000Y-88816184D01*
X154775000Y-88983816D01*
X154742297Y-89148228D01*
X154678147Y-89303100D01*
X154585015Y-89442481D01*
X154466481Y-89561015D01*
X154327100Y-89654147D01*
X154172228Y-89718297D01*
X154007816Y-89751000D01*
X153840184Y-89751000D01*
X153675772Y-89718297D01*
X153520900Y-89654147D01*
X153381519Y-89561015D01*
X153262985Y-89442481D01*
X153169853Y-89303100D01*
X153105703Y-89148228D01*
X153073000Y-88983816D01*
X153073000Y-88816184D01*
X153105703Y-88651772D01*
X153169853Y-88496900D01*
X153262985Y-88357519D01*
X153381519Y-88238985D01*
X153520900Y-88145853D01*
X153675772Y-88081703D01*
X153840184Y-88049000D01*
X154007816Y-88049000D01*
X154172228Y-88081703D01*
G37*
G36*
X151632228Y-88081703D02*
G01*
X151787100Y-88145853D01*
X151926481Y-88238985D01*
X152045015Y-88357519D01*
X152138147Y-88496900D01*
X152202297Y-88651772D01*
X152235000Y-88816184D01*
X152235000Y-88983816D01*
X152202297Y-89148228D01*
X152138147Y-89303100D01*
X152045015Y-89442481D01*
X151926481Y-89561015D01*
X151787100Y-89654147D01*
X151632228Y-89718297D01*
X151467816Y-89751000D01*
X151300184Y-89751000D01*
X151135772Y-89718297D01*
X150980900Y-89654147D01*
X150841519Y-89561015D01*
X150722985Y-89442481D01*
X150629853Y-89303100D01*
X150565703Y-89148228D01*
X150533000Y-88983816D01*
X150533000Y-88816184D01*
X150565703Y-88651772D01*
X150629853Y-88496900D01*
X150722985Y-88357519D01*
X150841519Y-88238985D01*
X150980900Y-88145853D01*
X151135772Y-88081703D01*
X151300184Y-88049000D01*
X151467816Y-88049000D01*
X151632228Y-88081703D01*
G37*
G36*
X161792228Y-88081703D02*
G01*
X161947100Y-88145853D01*
X162086481Y-88238985D01*
X162205015Y-88357519D01*
X162298147Y-88496900D01*
X162362297Y-88651772D01*
X162395000Y-88816184D01*
X162395000Y-88983816D01*
X162362297Y-89148228D01*
X162298147Y-89303100D01*
X162205015Y-89442481D01*
X162086481Y-89561015D01*
X161947100Y-89654147D01*
X161792228Y-89718297D01*
X161627816Y-89751000D01*
X161460184Y-89751000D01*
X161295772Y-89718297D01*
X161140900Y-89654147D01*
X161001519Y-89561015D01*
X160882985Y-89442481D01*
X160789853Y-89303100D01*
X160725703Y-89148228D01*
X160693000Y-88983816D01*
X160693000Y-88816184D01*
X160725703Y-88651772D01*
X160789853Y-88496900D01*
X160882985Y-88357519D01*
X161001519Y-88238985D01*
X161140900Y-88145853D01*
X161295772Y-88081703D01*
X161460184Y-88049000D01*
X161627816Y-88049000D01*
X161792228Y-88081703D01*
G37*
G36*
X200037000Y-87261000D02*
G01*
X198235000Y-87261000D01*
X198235000Y-85459000D01*
X200037000Y-85459000D01*
X200037000Y-87261000D01*
G37*
G36*
X130823072Y-81170918D02*
G01*
X131068939Y-81272759D01*
X131180328Y-81347187D01*
X131290211Y-81420609D01*
X131478391Y-81608789D01*
X131626242Y-81830063D01*
X131728082Y-82075928D01*
X131764064Y-82256819D01*
X131780000Y-82336938D01*
X131780000Y-82603062D01*
X131728082Y-82864072D01*
X131626241Y-83109939D01*
X131478390Y-83331212D01*
X131290212Y-83519390D01*
X131068939Y-83667241D01*
X131068938Y-83667242D01*
X131068937Y-83667242D01*
X130823072Y-83769082D01*
X130562063Y-83821000D01*
X130295937Y-83821000D01*
X130034928Y-83769082D01*
X129789063Y-83667242D01*
X129789062Y-83667242D01*
X129789061Y-83667241D01*
X129567788Y-83519390D01*
X129379610Y-83331212D01*
X129231759Y-83109939D01*
X129129918Y-82864072D01*
X129078000Y-82603062D01*
X129078000Y-82336938D01*
X129093937Y-82256819D01*
X129129918Y-82075928D01*
X129231758Y-81830063D01*
X129379609Y-81608789D01*
X129567789Y-81420609D01*
X129677672Y-81347187D01*
X129789061Y-81272759D01*
X130034928Y-81170918D01*
X130295937Y-81119000D01*
X130562063Y-81119000D01*
X130823072Y-81170918D01*
G37*
G36*
X162345000Y-82481000D02*
G01*
X160743000Y-82481000D01*
X160743000Y-80079000D01*
X162345000Y-80079000D01*
X162345000Y-82481000D01*
G37*
G36*
X167425000Y-82481000D02*
G01*
X165823000Y-82481000D01*
X165823000Y-80079000D01*
X167425000Y-80079000D01*
X167425000Y-82481000D01*
G37*
G36*
X164885000Y-82481000D02*
G01*
X163283000Y-82481000D01*
X163283000Y-80079000D01*
X164885000Y-80079000D01*
X164885000Y-82481000D01*
G37*
G36*
X139205562Y-80738181D02*
G01*
X139240481Y-80748774D01*
X139272663Y-80765976D01*
X139300873Y-80789127D01*
X139324024Y-80817337D01*
X139341226Y-80849519D01*
X139351819Y-80884438D01*
X139356000Y-80926895D01*
X139356000Y-82068105D01*
X139351819Y-82110562D01*
X139341226Y-82145481D01*
X139324024Y-82177663D01*
X139300873Y-82205873D01*
X139272663Y-82229024D01*
X139240481Y-82246226D01*
X139205562Y-82256819D01*
X139163105Y-82261000D01*
X137696895Y-82261000D01*
X137654438Y-82256819D01*
X137619519Y-82246226D01*
X137587337Y-82229024D01*
X137559127Y-82205873D01*
X137535976Y-82177663D01*
X137518774Y-82145481D01*
X137508181Y-82110562D01*
X137504000Y-82068105D01*
X137504000Y-80926895D01*
X137508181Y-80884438D01*
X137518774Y-80849519D01*
X137535976Y-80817337D01*
X137559127Y-80789127D01*
X137587337Y-80765976D01*
X137619519Y-80748774D01*
X137654438Y-80738181D01*
X137696895Y-80734000D01*
X139163105Y-80734000D01*
X139205562Y-80738181D01*
G37*
G36*
X200037000Y-80911000D02*
G01*
X198235000Y-80911000D01*
X198235000Y-79109000D01*
X200037000Y-79109000D01*
X200037000Y-80911000D01*
G37*
G36*
X139205562Y-77763181D02*
G01*
X139240481Y-77773774D01*
X139272663Y-77790976D01*
X139300873Y-77814127D01*
X139324024Y-77842337D01*
X139341226Y-77874519D01*
X139351819Y-77909438D01*
X139356000Y-77951895D01*
X139356000Y-79093105D01*
X139351819Y-79135562D01*
X139341226Y-79170481D01*
X139324024Y-79202663D01*
X139300873Y-79230873D01*
X139272663Y-79254024D01*
X139240481Y-79271226D01*
X139205562Y-79281819D01*
X139163105Y-79286000D01*
X137696895Y-79286000D01*
X137654438Y-79281819D01*
X137619519Y-79271226D01*
X137587337Y-79254024D01*
X137559127Y-79230873D01*
X137535976Y-79202663D01*
X137518774Y-79170481D01*
X137508181Y-79135562D01*
X137504000Y-79093105D01*
X137504000Y-77951895D01*
X137508181Y-77909438D01*
X137518774Y-77874519D01*
X137535976Y-77842337D01*
X137559127Y-77814127D01*
X137587337Y-77790976D01*
X137619519Y-77773774D01*
X137654438Y-77763181D01*
X137696895Y-77759000D01*
X139163105Y-77759000D01*
X139205562Y-77763181D01*
G37*
G36*
X131780000Y-78821000D02*
G01*
X129078000Y-78821000D01*
X129078000Y-76119000D01*
X131780000Y-76119000D01*
X131780000Y-78821000D01*
G37*
G36*
X199249512Y-76573927D02*
G01*
X199398812Y-76603624D01*
X199562784Y-76671544D01*
X199710354Y-76770147D01*
X199835853Y-76895646D01*
X199934456Y-77043216D01*
X200002376Y-77207188D01*
X200037000Y-77381259D01*
X200037000Y-77558741D01*
X200002376Y-77732812D01*
X199934456Y-77896784D01*
X199835853Y-78044354D01*
X199710354Y-78169853D01*
X199562784Y-78268456D01*
X199398812Y-78336376D01*
X199249512Y-78366073D01*
X199224742Y-78371000D01*
X199047258Y-78371000D01*
X199022488Y-78366073D01*
X198873188Y-78336376D01*
X198709216Y-78268456D01*
X198561646Y-78169853D01*
X198436147Y-78044354D01*
X198337544Y-77896784D01*
X198269624Y-77732812D01*
X198235000Y-77558741D01*
X198235000Y-77381259D01*
X198269624Y-77207188D01*
X198337544Y-77043216D01*
X198436147Y-76895646D01*
X198561646Y-76770147D01*
X198709216Y-76671544D01*
X198873188Y-76603624D01*
X199022488Y-76573927D01*
X199047258Y-76569000D01*
X199224742Y-76569000D01*
X199249512Y-76573927D01*
G37*
G36*
X185536000Y-77526000D02*
G01*
X183874000Y-77526000D01*
X183874000Y-76774000D01*
X185536000Y-76774000D01*
X185536000Y-77526000D01*
G37*
G36*
X188236000Y-77526000D02*
G01*
X186574000Y-77526000D01*
X186574000Y-74874000D01*
X188236000Y-74874000D01*
X188236000Y-77526000D01*
G37*
G36*
X143041000Y-76131000D02*
G01*
X141439000Y-76131000D01*
X141439000Y-73729000D01*
X143041000Y-73729000D01*
X143041000Y-76131000D01*
G37*
G36*
X199249512Y-74033927D02*
G01*
X199398812Y-74063624D01*
X199562784Y-74131544D01*
X199710354Y-74230147D01*
X199835853Y-74355646D01*
X199934456Y-74503216D01*
X200002376Y-74667188D01*
X200032073Y-74816488D01*
X200037000Y-74841258D01*
X200037000Y-75018742D01*
X200032073Y-75043512D01*
X200002376Y-75192812D01*
X199934456Y-75356784D01*
X199835853Y-75504354D01*
X199710354Y-75629853D01*
X199562784Y-75728456D01*
X199398812Y-75796376D01*
X199259933Y-75824000D01*
X199224742Y-75831000D01*
X199047258Y-75831000D01*
X199012067Y-75824000D01*
X198873188Y-75796376D01*
X198709216Y-75728456D01*
X198561646Y-75629853D01*
X198436147Y-75504354D01*
X198337544Y-75356784D01*
X198269624Y-75192812D01*
X198239927Y-75043512D01*
X198235000Y-75018742D01*
X198235000Y-74841258D01*
X198239927Y-74816488D01*
X198269624Y-74667188D01*
X198337544Y-74503216D01*
X198436147Y-74355646D01*
X198561646Y-74230147D01*
X198709216Y-74131544D01*
X198873188Y-74063624D01*
X199022488Y-74033927D01*
X199047258Y-74029000D01*
X199224742Y-74029000D01*
X199249512Y-74033927D01*
G37*
G36*
X185536000Y-75626000D02*
G01*
X183874000Y-75626000D01*
X183874000Y-74874000D01*
X185536000Y-74874000D01*
X185536000Y-75626000D01*
G37*
G36*
X130823072Y-71170918D02*
G01*
X131068939Y-71272759D01*
X131180328Y-71347187D01*
X131290211Y-71420609D01*
X131478391Y-71608789D01*
X131626242Y-71830063D01*
X131728082Y-72075928D01*
X131780000Y-72336937D01*
X131780000Y-72603063D01*
X131728082Y-72864072D01*
X131686545Y-72964353D01*
X131626241Y-73109939D01*
X131478390Y-73331212D01*
X131290212Y-73519390D01*
X131068939Y-73667241D01*
X131068938Y-73667242D01*
X131068937Y-73667242D01*
X130823072Y-73769082D01*
X130562063Y-73821000D01*
X130295937Y-73821000D01*
X130034928Y-73769082D01*
X129789063Y-73667242D01*
X129789062Y-73667242D01*
X129789061Y-73667241D01*
X129567788Y-73519390D01*
X129379610Y-73331212D01*
X129231759Y-73109939D01*
X129171456Y-72964353D01*
X129129918Y-72864072D01*
X129078000Y-72603063D01*
X129078000Y-72336937D01*
X129129918Y-72075928D01*
X129231758Y-71830063D01*
X129379609Y-71608789D01*
X129567789Y-71420609D01*
X129677672Y-71347187D01*
X129789061Y-71272759D01*
X130034928Y-71170918D01*
X130295937Y-71119000D01*
X130562063Y-71119000D01*
X130823072Y-71170918D01*
G37*
G36*
X199249512Y-71493927D02*
G01*
X199398812Y-71523624D01*
X199562784Y-71591544D01*
X199710354Y-71690147D01*
X199835853Y-71815646D01*
X199934456Y-71963216D01*
X200002376Y-72127188D01*
X200037000Y-72301259D01*
X200037000Y-72478741D01*
X200002376Y-72652812D01*
X199934456Y-72816784D01*
X199835853Y-72964354D01*
X199710354Y-73089853D01*
X199562784Y-73188456D01*
X199398812Y-73256376D01*
X199249512Y-73286073D01*
X199224742Y-73291000D01*
X199047258Y-73291000D01*
X199022488Y-73286073D01*
X198873188Y-73256376D01*
X198709216Y-73188456D01*
X198561646Y-73089853D01*
X198436147Y-72964354D01*
X198337544Y-72816784D01*
X198269624Y-72652812D01*
X198235000Y-72478741D01*
X198235000Y-72301259D01*
X198269624Y-72127188D01*
X198337544Y-71963216D01*
X198436147Y-71815646D01*
X198561646Y-71690147D01*
X198709216Y-71591544D01*
X198873188Y-71523624D01*
X199022488Y-71493927D01*
X199047258Y-71489000D01*
X199224742Y-71489000D01*
X199249512Y-71493927D01*
G37*
G36*
X188236000Y-72446000D02*
G01*
X186574000Y-72446000D01*
X186574000Y-69794000D01*
X188236000Y-69794000D01*
X188236000Y-72446000D01*
G37*
G36*
X185536000Y-72446000D02*
G01*
X183874000Y-72446000D01*
X183874000Y-71694000D01*
X185536000Y-71694000D01*
X185536000Y-72446000D01*
G37*
G36*
X139205562Y-70578181D02*
G01*
X139240481Y-70588774D01*
X139272663Y-70605976D01*
X139300873Y-70629127D01*
X139324024Y-70657337D01*
X139341226Y-70689519D01*
X139351819Y-70724438D01*
X139356000Y-70766895D01*
X139356000Y-71908105D01*
X139351819Y-71950562D01*
X139341226Y-71985481D01*
X139324024Y-72017663D01*
X139300873Y-72045873D01*
X139272663Y-72069024D01*
X139240481Y-72086226D01*
X139205562Y-72096819D01*
X139163105Y-72101000D01*
X137696895Y-72101000D01*
X137654438Y-72096819D01*
X137619519Y-72086226D01*
X137587337Y-72069024D01*
X137559127Y-72045873D01*
X137535976Y-72017663D01*
X137518774Y-71985481D01*
X137508181Y-71950562D01*
X137504000Y-71908105D01*
X137504000Y-70766895D01*
X137508181Y-70724438D01*
X137518774Y-70689519D01*
X137535976Y-70657337D01*
X137559127Y-70629127D01*
X137587337Y-70605976D01*
X137619519Y-70588774D01*
X137654438Y-70578181D01*
X137696895Y-70574000D01*
X139163105Y-70574000D01*
X139205562Y-70578181D01*
G37*
G36*
X199249512Y-68953927D02*
G01*
X199398812Y-68983624D01*
X199562784Y-69051544D01*
X199710354Y-69150147D01*
X199835853Y-69275646D01*
X199934456Y-69423216D01*
X200002376Y-69587188D01*
X200037000Y-69761259D01*
X200037000Y-69938741D01*
X200002376Y-70112812D01*
X199934456Y-70276784D01*
X199835853Y-70424354D01*
X199710354Y-70549853D01*
X199562784Y-70648456D01*
X199398812Y-70716376D01*
X199259933Y-70744000D01*
X199224742Y-70751000D01*
X199047258Y-70751000D01*
X199012067Y-70744000D01*
X198873188Y-70716376D01*
X198709216Y-70648456D01*
X198561646Y-70549853D01*
X198436147Y-70424354D01*
X198337544Y-70276784D01*
X198269624Y-70112812D01*
X198235000Y-69938741D01*
X198235000Y-69761259D01*
X198269624Y-69587188D01*
X198337544Y-69423216D01*
X198436147Y-69275646D01*
X198561646Y-69150147D01*
X198709216Y-69051544D01*
X198873188Y-68983624D01*
X199022488Y-68953927D01*
X199047258Y-68949000D01*
X199224742Y-68949000D01*
X199249512Y-68953927D01*
G37*
G36*
X185536000Y-70546000D02*
G01*
X183874000Y-70546000D01*
X183874000Y-69794000D01*
X185536000Y-69794000D01*
X185536000Y-70546000D01*
G37*
G36*
X139205562Y-67603181D02*
G01*
X139240481Y-67613774D01*
X139272663Y-67630976D01*
X139300873Y-67654127D01*
X139324024Y-67682337D01*
X139341226Y-67714519D01*
X139351819Y-67749438D01*
X139356000Y-67791895D01*
X139356000Y-68933105D01*
X139351819Y-68975562D01*
X139341226Y-69010481D01*
X139324024Y-69042663D01*
X139300873Y-69070873D01*
X139272663Y-69094024D01*
X139240481Y-69111226D01*
X139205562Y-69121819D01*
X139163105Y-69126000D01*
X137696895Y-69126000D01*
X137654438Y-69121819D01*
X137619519Y-69111226D01*
X137587337Y-69094024D01*
X137559127Y-69070873D01*
X137535976Y-69042663D01*
X137518774Y-69010481D01*
X137508181Y-68975562D01*
X137504000Y-68933105D01*
X137504000Y-67791895D01*
X137508181Y-67749438D01*
X137518774Y-67714519D01*
X137535976Y-67682337D01*
X137559127Y-67654127D01*
X137587337Y-67630976D01*
X137619519Y-67613774D01*
X137654438Y-67603181D01*
X137696895Y-67599000D01*
X139163105Y-67599000D01*
X139205562Y-67603181D01*
G37*
G36*
X131780000Y-68821000D02*
G01*
X129078000Y-68821000D01*
X129078000Y-66119000D01*
X131780000Y-66119000D01*
X131780000Y-68821000D01*
G37*
G36*
X199249512Y-66413927D02*
G01*
X199398812Y-66443624D01*
X199562784Y-66511544D01*
X199710354Y-66610147D01*
X199835853Y-66735646D01*
X199934456Y-66883216D01*
X200002376Y-67047188D01*
X200037000Y-67221259D01*
X200037000Y-67398741D01*
X200002376Y-67572812D01*
X199934456Y-67736784D01*
X199835853Y-67884354D01*
X199710354Y-68009853D01*
X199562784Y-68108456D01*
X199398812Y-68176376D01*
X199249512Y-68206073D01*
X199224742Y-68211000D01*
X199047258Y-68211000D01*
X199022488Y-68206073D01*
X198873188Y-68176376D01*
X198709216Y-68108456D01*
X198561646Y-68009853D01*
X198436147Y-67884354D01*
X198337544Y-67736784D01*
X198269624Y-67572812D01*
X198235000Y-67398741D01*
X198235000Y-67221259D01*
X198269624Y-67047188D01*
X198337544Y-66883216D01*
X198436147Y-66735646D01*
X198561646Y-66610147D01*
X198709216Y-66511544D01*
X198873188Y-66443624D01*
X199022488Y-66413927D01*
X199047258Y-66409000D01*
X199224742Y-66409000D01*
X199249512Y-66413927D01*
G37*
G36*
X132714239Y-55231467D02*
G01*
X133028282Y-55293934D01*
X133619926Y-55539001D01*
X134020073Y-55806371D01*
X134138419Y-55885447D01*
X134152392Y-55894784D01*
X134605216Y-56347608D01*
X134960999Y-56880074D01*
X135206066Y-57471718D01*
X135206066Y-57471719D01*
X135331000Y-58099803D01*
X135331000Y-58740197D01*
X135268533Y-59054239D01*
X135206066Y-59368282D01*
X134960999Y-59959926D01*
X134605216Y-60492392D01*
X134152392Y-60945216D01*
X133619926Y-61300999D01*
X133028282Y-61546066D01*
X132714239Y-61608533D01*
X132400197Y-61671000D01*
X131759803Y-61671000D01*
X131445761Y-61608533D01*
X131131718Y-61546066D01*
X130540074Y-61300999D01*
X130007608Y-60945216D01*
X129554784Y-60492392D01*
X129199001Y-59959926D01*
X128953934Y-59368282D01*
X128891467Y-59054239D01*
X128829000Y-58740197D01*
X128829000Y-58099803D01*
X128953934Y-57471719D01*
X128953934Y-57471718D01*
X129199001Y-56880074D01*
X129554784Y-56347608D01*
X130007608Y-55894784D01*
X130021582Y-55885447D01*
X130139927Y-55806371D01*
X130540074Y-55539001D01*
X131131718Y-55293934D01*
X131445761Y-55231467D01*
X131759803Y-55169000D01*
X132400197Y-55169000D01*
X132714239Y-55231467D01*
G37*
G36*
X196214239Y-55231467D02*
G01*
X196528282Y-55293934D01*
X197119926Y-55539001D01*
X197520073Y-55806371D01*
X197638419Y-55885447D01*
X197652392Y-55894784D01*
X198105216Y-56347608D01*
X198460999Y-56880074D01*
X198706066Y-57471718D01*
X198706066Y-57471719D01*
X198831000Y-58099803D01*
X198831000Y-58740197D01*
X198768533Y-59054239D01*
X198706066Y-59368282D01*
X198460999Y-59959926D01*
X198105216Y-60492392D01*
X197652392Y-60945216D01*
X197119926Y-61300999D01*
X196528282Y-61546066D01*
X196214239Y-61608533D01*
X195900197Y-61671000D01*
X195259803Y-61671000D01*
X194945761Y-61608533D01*
X194631718Y-61546066D01*
X194040074Y-61300999D01*
X193507608Y-60945216D01*
X193054784Y-60492392D01*
X192699001Y-59959926D01*
X192453934Y-59368282D01*
X192391467Y-59054239D01*
X192329000Y-58740197D01*
X192329000Y-58099803D01*
X192453934Y-57471719D01*
X192453934Y-57471718D01*
X192699001Y-56880074D01*
X193054784Y-56347608D01*
X193507608Y-55894784D01*
X193521582Y-55885447D01*
X193639927Y-55806371D01*
X194040074Y-55539001D01*
X194631718Y-55293934D01*
X194945761Y-55231467D01*
X195259803Y-55169000D01*
X195900197Y-55169000D01*
X196214239Y-55231467D01*
G37*
G36*
X183569487Y-55644996D02*
G01*
X183780749Y-55732504D01*
X183806255Y-55743069D01*
X184019339Y-55885447D01*
X184200553Y-56066661D01*
X184337719Y-56271944D01*
X184342932Y-56279747D01*
X184441004Y-56516513D01*
X184491000Y-56767861D01*
X184491000Y-57024139D01*
X184441004Y-57275487D01*
X184359722Y-57471718D01*
X184342931Y-57512255D01*
X184200553Y-57725339D01*
X184019339Y-57906553D01*
X183806255Y-58048931D01*
X183806254Y-58048932D01*
X183806253Y-58048932D01*
X183569487Y-58147004D01*
X183318139Y-58197000D01*
X183061861Y-58197000D01*
X182810513Y-58147004D01*
X182573747Y-58048932D01*
X182573746Y-58048932D01*
X182573745Y-58048931D01*
X182360661Y-57906553D01*
X182179447Y-57725339D01*
X182037069Y-57512255D01*
X182020278Y-57471718D01*
X181938996Y-57275487D01*
X181889000Y-57024139D01*
X181889000Y-56767861D01*
X181938996Y-56516513D01*
X182037068Y-56279747D01*
X182042282Y-56271944D01*
X182179447Y-56066661D01*
X182360661Y-55885447D01*
X182573745Y-55743069D01*
X182599251Y-55732504D01*
X182810513Y-55644996D01*
X183061861Y-55595000D01*
X183318139Y-55595000D01*
X183569487Y-55644996D01*
G37*
G36*
X180069487Y-55644996D02*
G01*
X180280749Y-55732504D01*
X180306255Y-55743069D01*
X180519339Y-55885447D01*
X180700553Y-56066661D01*
X180837719Y-56271944D01*
X180842932Y-56279747D01*
X180941004Y-56516513D01*
X180991000Y-56767861D01*
X180991000Y-57024139D01*
X180941004Y-57275487D01*
X180859722Y-57471718D01*
X180842931Y-57512255D01*
X180700553Y-57725339D01*
X180519339Y-57906553D01*
X180306255Y-58048931D01*
X180306254Y-58048932D01*
X180306253Y-58048932D01*
X180069487Y-58147004D01*
X179818139Y-58197000D01*
X179561861Y-58197000D01*
X179310513Y-58147004D01*
X179073747Y-58048932D01*
X179073746Y-58048932D01*
X179073745Y-58048931D01*
X178860661Y-57906553D01*
X178679447Y-57725339D01*
X178537069Y-57512255D01*
X178520278Y-57471718D01*
X178438996Y-57275487D01*
X178389000Y-57024139D01*
X178389000Y-56767861D01*
X178438996Y-56516513D01*
X178537068Y-56279747D01*
X178542282Y-56271944D01*
X178679447Y-56066661D01*
X178860661Y-55885447D01*
X179073745Y-55743069D01*
X179099251Y-55732504D01*
X179310513Y-55644996D01*
X179561861Y-55595000D01*
X179818139Y-55595000D01*
X180069487Y-55644996D01*
G37*
G36*
X175291000Y-58197000D02*
G01*
X172689000Y-58197000D01*
X172689000Y-55595000D01*
X175291000Y-55595000D01*
X175291000Y-58197000D01*
G37*
G36*
X170869487Y-55644996D02*
G01*
X171080749Y-55732504D01*
X171106255Y-55743069D01*
X171319339Y-55885447D01*
X171500553Y-56066661D01*
X171637719Y-56271944D01*
X171642932Y-56279747D01*
X171741004Y-56516513D01*
X171791000Y-56767861D01*
X171791000Y-57024139D01*
X171741004Y-57275487D01*
X171659722Y-57471718D01*
X171642931Y-57512255D01*
X171500553Y-57725339D01*
X171319339Y-57906553D01*
X171106255Y-58048931D01*
X171106254Y-58048932D01*
X171106253Y-58048932D01*
X170869487Y-58147004D01*
X170618139Y-58197000D01*
X170361861Y-58197000D01*
X170110513Y-58147004D01*
X169873747Y-58048932D01*
X169873746Y-58048932D01*
X169873745Y-58048931D01*
X169660661Y-57906553D01*
X169479447Y-57725339D01*
X169337069Y-57512255D01*
X169320278Y-57471718D01*
X169238996Y-57275487D01*
X169189000Y-57024139D01*
X169189000Y-56767861D01*
X169238996Y-56516513D01*
X169337068Y-56279747D01*
X169342282Y-56271944D01*
X169479447Y-56066661D01*
X169660661Y-55885447D01*
X169873745Y-55743069D01*
X169899251Y-55732504D01*
X170110513Y-55644996D01*
X170361861Y-55595000D01*
X170618139Y-55595000D01*
X170869487Y-55644996D01*
G37*
G36*
X167369487Y-55644996D02*
G01*
X167580749Y-55732504D01*
X167606255Y-55743069D01*
X167819339Y-55885447D01*
X168000553Y-56066661D01*
X168137719Y-56271944D01*
X168142932Y-56279747D01*
X168241004Y-56516513D01*
X168291000Y-56767861D01*
X168291000Y-57024139D01*
X168241004Y-57275487D01*
X168159722Y-57471718D01*
X168142931Y-57512255D01*
X168000553Y-57725339D01*
X167819339Y-57906553D01*
X167606255Y-58048931D01*
X167606254Y-58048932D01*
X167606253Y-58048932D01*
X167369487Y-58147004D01*
X167118139Y-58197000D01*
X166861861Y-58197000D01*
X166610513Y-58147004D01*
X166373747Y-58048932D01*
X166373746Y-58048932D01*
X166373745Y-58048931D01*
X166160661Y-57906553D01*
X165979447Y-57725339D01*
X165837069Y-57512255D01*
X165820278Y-57471718D01*
X165738996Y-57275487D01*
X165689000Y-57024139D01*
X165689000Y-56767861D01*
X165738996Y-56516513D01*
X165837068Y-56279747D01*
X165842282Y-56271944D01*
X165979447Y-56066661D01*
X166160661Y-55885447D01*
X166373745Y-55743069D01*
X166399251Y-55732504D01*
X166610513Y-55644996D01*
X166861861Y-55595000D01*
X167118139Y-55595000D01*
X167369487Y-55644996D01*
G37*
G36*
X162591000Y-58197000D02*
G01*
X159989000Y-58197000D01*
X159989000Y-55595000D01*
X162591000Y-55595000D01*
X162591000Y-58197000D01*
G37*
G36*
X158169487Y-55644996D02*
G01*
X158380749Y-55732504D01*
X158406255Y-55743069D01*
X158619339Y-55885447D01*
X158800553Y-56066661D01*
X158937719Y-56271944D01*
X158942932Y-56279747D01*
X159041004Y-56516513D01*
X159091000Y-56767861D01*
X159091000Y-57024139D01*
X159041004Y-57275487D01*
X158959722Y-57471718D01*
X158942931Y-57512255D01*
X158800553Y-57725339D01*
X158619339Y-57906553D01*
X158406255Y-58048931D01*
X158406254Y-58048932D01*
X158406253Y-58048932D01*
X158169487Y-58147004D01*
X157918139Y-58197000D01*
X157661861Y-58197000D01*
X157410513Y-58147004D01*
X157173747Y-58048932D01*
X157173746Y-58048932D01*
X157173745Y-58048931D01*
X156960661Y-57906553D01*
X156779447Y-57725339D01*
X156637069Y-57512255D01*
X156620278Y-57471718D01*
X156538996Y-57275487D01*
X156489000Y-57024139D01*
X156489000Y-56767861D01*
X156538996Y-56516513D01*
X156637068Y-56279747D01*
X156642282Y-56271944D01*
X156779447Y-56066661D01*
X156960661Y-55885447D01*
X157173745Y-55743069D01*
X157199251Y-55732504D01*
X157410513Y-55644996D01*
X157661861Y-55595000D01*
X157918139Y-55595000D01*
X158169487Y-55644996D01*
G37*
G36*
X154669487Y-55644996D02*
G01*
X154880749Y-55732504D01*
X154906255Y-55743069D01*
X155119339Y-55885447D01*
X155300553Y-56066661D01*
X155437719Y-56271944D01*
X155442932Y-56279747D01*
X155541004Y-56516513D01*
X155591000Y-56767861D01*
X155591000Y-57024139D01*
X155541004Y-57275487D01*
X155459722Y-57471718D01*
X155442931Y-57512255D01*
X155300553Y-57725339D01*
X155119339Y-57906553D01*
X154906255Y-58048931D01*
X154906254Y-58048932D01*
X154906253Y-58048932D01*
X154669487Y-58147004D01*
X154418139Y-58197000D01*
X154161861Y-58197000D01*
X153910513Y-58147004D01*
X153673747Y-58048932D01*
X153673746Y-58048932D01*
X153673745Y-58048931D01*
X153460661Y-57906553D01*
X153279447Y-57725339D01*
X153137069Y-57512255D01*
X153120278Y-57471718D01*
X153038996Y-57275487D01*
X152989000Y-57024139D01*
X152989000Y-56767861D01*
X153038996Y-56516513D01*
X153137068Y-56279747D01*
X153142282Y-56271944D01*
X153279447Y-56066661D01*
X153460661Y-55885447D01*
X153673745Y-55743069D01*
X153699251Y-55732504D01*
X153910513Y-55644996D01*
X154161861Y-55595000D01*
X154418139Y-55595000D01*
X154669487Y-55644996D01*
G37*
G36*
X149891000Y-58197000D02*
G01*
X147289000Y-58197000D01*
X147289000Y-55595000D01*
X149891000Y-55595000D01*
X149891000Y-58197000D01*
G37*
G36*
X145469487Y-55644996D02*
G01*
X145680749Y-55732504D01*
X145706255Y-55743069D01*
X145919339Y-55885447D01*
X146100553Y-56066661D01*
X146237719Y-56271944D01*
X146242932Y-56279747D01*
X146341004Y-56516513D01*
X146391000Y-56767861D01*
X146391000Y-57024139D01*
X146341004Y-57275487D01*
X146259722Y-57471718D01*
X146242931Y-57512255D01*
X146100553Y-57725339D01*
X145919339Y-57906553D01*
X145706255Y-58048931D01*
X145706254Y-58048932D01*
X145706253Y-58048932D01*
X145469487Y-58147004D01*
X145218139Y-58197000D01*
X144961861Y-58197000D01*
X144710513Y-58147004D01*
X144473747Y-58048932D01*
X144473746Y-58048932D01*
X144473745Y-58048931D01*
X144260661Y-57906553D01*
X144079447Y-57725339D01*
X143937069Y-57512255D01*
X143920278Y-57471718D01*
X143838996Y-57275487D01*
X143789000Y-57024139D01*
X143789000Y-56767861D01*
X143838996Y-56516513D01*
X143937068Y-56279747D01*
X143942282Y-56271944D01*
X144079447Y-56066661D01*
X144260661Y-55885447D01*
X144473745Y-55743069D01*
X144499251Y-55732504D01*
X144710513Y-55644996D01*
X144961861Y-55595000D01*
X145218139Y-55595000D01*
X145469487Y-55644996D01*
G37*
G36*
X187991000Y-58197000D02*
G01*
X185389000Y-58197000D01*
X185389000Y-55595000D01*
X187991000Y-55595000D01*
X187991000Y-58197000D01*
G37*
G36*
X141969487Y-55644996D02*
G01*
X142180749Y-55732504D01*
X142206255Y-55743069D01*
X142419339Y-55885447D01*
X142600553Y-56066661D01*
X142737719Y-56271944D01*
X142742932Y-56279747D01*
X142841004Y-56516513D01*
X142891000Y-56767861D01*
X142891000Y-57024139D01*
X142841004Y-57275487D01*
X142759722Y-57471718D01*
X142742931Y-57512255D01*
X142600553Y-57725339D01*
X142419339Y-57906553D01*
X142206255Y-58048931D01*
X142206254Y-58048932D01*
X142206253Y-58048932D01*
X141969487Y-58147004D01*
X141718139Y-58197000D01*
X141461861Y-58197000D01*
X141210513Y-58147004D01*
X140973747Y-58048932D01*
X140973746Y-58048932D01*
X140973745Y-58048931D01*
X140760661Y-57906553D01*
X140579447Y-57725339D01*
X140437069Y-57512255D01*
X140420278Y-57471718D01*
X140338996Y-57275487D01*
X140289000Y-57024139D01*
X140289000Y-56767861D01*
X140338996Y-56516513D01*
X140437068Y-56279747D01*
X140442282Y-56271944D01*
X140579447Y-56066661D01*
X140760661Y-55885447D01*
X140973745Y-55743069D01*
X140999251Y-55732504D01*
X141210513Y-55644996D01*
X141461861Y-55595000D01*
X141718139Y-55595000D01*
X141969487Y-55644996D01*
G37*
M02*
